<svg width="1063" height="611" viewBox="0 0 1063 611" fill="none" xmlns="http://www.w3.org/2000/svg">
<rect width="1063" height="611" rx="35" fill="#14213D"/>
<path d="M338.357 300.51C338.357 296.748 335.603 294.102 332.057 294.102C328.529 294.102 325.757 296.748 325.757 300.51C325.757 304.272 328.529 306.918 332.057 306.918C335.603 306.918 338.357 304.272 338.357 300.51ZM327.431 300.51C327.431 297.432 329.411 295.524 332.057 295.524C334.703 295.524 336.683 297.432 336.683 300.51C336.683 303.57 334.703 305.496 332.057 305.496C329.411 305.496 327.431 303.57 327.431 300.51ZM349.268 296.928H347.63V302.346C347.63 304.47 346.496 305.514 344.804 305.514C343.148 305.514 342.05 304.488 342.05 302.49V296.928H340.43V302.706C340.43 305.532 342.212 306.936 344.48 306.936C345.794 306.936 347 306.36 347.63 305.334V306.792H349.268V296.928ZM353.671 301.428C353.671 299.142 354.859 298.44 356.425 298.44H356.857V296.748C355.291 296.748 354.229 297.432 353.671 298.53V296.928H352.033V306.792H353.671V301.428ZM365.185 298.746V296.928H363.547V311.472H365.185V304.974C365.797 305.982 367.075 306.954 368.875 306.954C371.521 306.954 373.555 304.884 373.555 301.824C373.555 298.746 371.521 296.766 368.875 296.766C367.075 296.766 365.779 297.702 365.185 298.746ZM371.881 301.824C371.881 304.146 370.351 305.514 368.533 305.514C366.751 305.514 365.185 304.164 365.185 301.842C365.185 299.556 366.751 298.188 368.533 298.188C370.351 298.188 371.881 299.502 371.881 301.824ZM377.349 301.428C377.349 299.142 378.537 298.44 380.103 298.44H380.535V296.748C378.969 296.748 377.907 297.432 377.349 298.53V296.928H375.711V306.792H377.349V301.428ZM391.786 301.842C391.786 298.728 389.608 296.766 386.8 296.766C384.01 296.766 381.814 298.728 381.814 301.842C381.814 304.974 383.938 306.954 386.728 306.954C389.536 306.954 391.786 304.974 391.786 301.842ZM383.488 301.842C383.488 299.358 385.054 298.188 386.782 298.188C388.474 298.188 390.112 299.358 390.112 301.842C390.112 304.344 388.438 305.514 386.728 305.514C385.018 305.514 383.488 304.344 383.488 301.842ZM393.328 301.824C393.328 304.884 395.362 306.954 398.008 306.954C399.808 306.954 401.086 306.036 401.68 304.938V306.792H403.336V293.472H401.68V298.692C400.996 297.558 399.574 296.766 398.026 296.766C395.362 296.766 393.328 298.746 393.328 301.824ZM401.68 301.842C401.68 304.164 400.132 305.514 398.332 305.514C396.532 305.514 395.002 304.146 395.002 301.824C395.002 299.502 396.532 298.188 398.332 298.188C400.132 298.188 401.68 299.556 401.68 301.842ZM414.852 296.928H413.214V302.346C413.214 304.47 412.08 305.514 410.388 305.514C408.732 305.514 407.634 304.488 407.634 302.49V296.928H406.014V302.706C406.014 305.532 407.796 306.936 410.064 306.936C411.378 306.936 412.584 306.36 413.214 305.334V306.792H414.852V296.928ZM417.005 301.842C417.005 304.974 419.003 306.954 421.811 306.954C424.259 306.954 425.861 305.586 426.365 303.624H424.601C424.241 304.866 423.269 305.568 421.811 305.568C420.011 305.568 418.679 304.29 418.679 301.842C418.679 299.43 420.011 298.152 421.811 298.152C423.269 298.152 424.259 298.908 424.601 300.096H426.365C425.861 298.026 424.259 296.766 421.811 296.766C419.003 296.766 417.005 298.746 417.005 301.842ZM428.911 304.092C428.911 306.072 429.901 306.792 431.647 306.792H433.123V305.406H431.917C430.909 305.406 430.549 305.064 430.549 304.092V298.278H433.123V296.928H430.549V294.444H428.911V296.928H427.633V298.278H428.911V304.092ZM439.907 306.792H441.545V296.928H439.907V306.792ZM440.753 295.326C441.347 295.326 441.833 294.84 441.833 294.21C441.833 293.58 441.347 293.094 440.753 293.094C440.123 293.094 439.637 293.58 439.637 294.21C439.637 294.84 440.123 295.326 440.753 295.326ZM451.428 304.11C451.356 300.582 445.632 301.86 445.632 299.52C445.632 298.728 446.352 298.152 447.558 298.152C448.872 298.152 449.628 298.872 449.7 299.862H451.338C451.23 297.936 449.79 296.766 447.612 296.766C445.416 296.766 443.994 298.008 443.994 299.52C443.994 303.192 449.826 301.914 449.826 304.11C449.826 304.92 449.106 305.568 447.81 305.568C446.424 305.568 445.578 304.848 445.488 303.894H443.796C443.904 305.694 445.524 306.954 447.828 306.954C450.006 306.954 451.428 305.73 451.428 304.11ZM458.845 306.792H460.483V298.278H462.553V296.928H460.483V296.226C460.483 294.948 460.969 294.408 462.445 294.408V293.04C459.925 293.04 458.845 294.03 458.845 296.226V296.928H457.567V298.278H458.845V306.792ZM468.657 298.152C470.349 298.152 471.789 299.214 471.771 301.14H465.543C465.723 299.214 467.055 298.152 468.657 298.152ZM473.265 303.75H471.501C471.141 304.812 470.205 305.568 468.729 305.568C467.055 305.568 465.651 304.47 465.525 302.472H473.409C473.445 302.13 473.463 301.842 473.463 301.482C473.463 298.782 471.591 296.766 468.729 296.766C465.849 296.766 463.851 298.728 463.851 301.842C463.851 304.974 465.921 306.954 468.729 306.954C471.177 306.954 472.761 305.55 473.265 303.75ZM475.013 301.824C475.013 304.884 477.047 306.954 479.675 306.954C481.493 306.954 482.771 306.018 483.365 304.956V306.792H485.021V296.928H483.365V298.728C482.789 297.702 481.529 296.766 479.693 296.766C477.047 296.766 475.013 298.746 475.013 301.824ZM483.365 301.842C483.365 304.164 481.817 305.514 480.017 305.514C478.217 305.514 476.687 304.146 476.687 301.824C476.687 299.502 478.217 298.188 480.017 298.188C481.817 298.188 483.365 299.556 483.365 301.842ZM488.149 304.092C488.149 306.072 489.139 306.792 490.885 306.792H492.361V305.406H491.155C490.147 305.406 489.787 305.064 489.787 304.092V298.278H492.361V296.928H489.787V294.444H488.149V296.928H486.871V298.278H488.149V304.092ZM503.094 296.928H501.456V302.346C501.456 304.47 500.322 305.514 498.63 305.514C496.974 305.514 495.876 304.488 495.876 302.49V296.928H494.256V302.706C494.256 305.532 496.038 306.936 498.306 306.936C499.62 306.936 500.826 306.36 501.456 305.334V306.792H503.094V296.928ZM507.498 301.428C507.498 299.142 508.686 298.44 510.252 298.44H510.684V296.748C509.118 296.748 508.056 297.432 507.498 298.53V296.928H505.86V306.792H507.498V301.428ZM516.769 298.152C518.461 298.152 519.901 299.214 519.883 301.14H513.655C513.835 299.214 515.167 298.152 516.769 298.152ZM521.377 303.75H519.613C519.253 304.812 518.317 305.568 516.841 305.568C515.167 305.568 513.763 304.47 513.637 302.472H521.521C521.557 302.13 521.575 301.842 521.575 301.482C521.575 298.782 519.703 296.766 516.841 296.766C513.961 296.766 511.963 298.728 511.963 301.842C511.963 304.974 514.033 306.954 516.841 306.954C519.289 306.954 520.873 305.55 521.377 303.75ZM523.125 301.824C523.125 304.884 525.159 306.954 527.805 306.954C529.605 306.954 530.883 306.036 531.477 304.938V306.792H533.133V293.472H531.477V298.692C530.793 297.558 529.371 296.766 527.823 296.766C525.159 296.766 523.125 298.746 523.125 301.824ZM531.477 301.842C531.477 304.164 529.929 305.514 528.129 305.514C526.329 305.514 524.799 304.146 524.799 301.824C524.799 299.502 526.329 298.188 528.129 298.188C529.929 298.188 531.477 299.556 531.477 301.842ZM540.088 301.824C540.088 304.884 542.122 306.954 544.75 306.954C546.568 306.954 547.846 306.018 548.44 304.956V306.792H550.096V296.928H548.44V298.728C547.864 297.702 546.604 296.766 544.768 296.766C542.122 296.766 540.088 298.746 540.088 301.824ZM548.44 301.842C548.44 304.164 546.892 305.514 545.092 305.514C543.292 305.514 541.762 304.146 541.762 301.824C541.762 299.502 543.292 298.188 545.092 298.188C546.892 298.188 548.44 299.556 548.44 301.842ZM559.956 304.11C559.884 300.582 554.16 301.86 554.16 299.52C554.16 298.728 554.88 298.152 556.086 298.152C557.4 298.152 558.156 298.872 558.228 299.862H559.866C559.758 297.936 558.318 296.766 556.14 296.766C553.944 296.766 552.522 298.008 552.522 299.52C552.522 303.192 558.354 301.914 558.354 304.11C558.354 304.92 557.634 305.568 556.338 305.568C554.952 305.568 554.106 304.848 554.016 303.894H552.324C552.432 305.694 554.052 306.954 556.356 306.954C558.534 306.954 559.956 305.73 559.956 304.11ZM576.427 301.842C576.427 298.728 574.249 296.766 571.441 296.766C568.651 296.766 566.455 298.728 566.455 301.842C566.455 304.974 568.579 306.954 571.369 306.954C574.177 306.954 576.427 304.974 576.427 301.842ZM568.129 301.842C568.129 299.358 569.695 298.188 571.423 298.188C573.115 298.188 574.753 299.358 574.753 301.842C574.753 304.344 573.079 305.514 571.369 305.514C569.659 305.514 568.129 304.344 568.129 301.842ZM585.798 306.792H587.418V300.978C587.418 298.152 585.672 296.748 583.386 296.748C582.054 296.748 580.866 297.306 580.218 298.332V296.928H578.58V306.792H580.218V301.338C580.218 299.214 581.37 298.17 583.044 298.17C584.7 298.17 585.798 299.196 585.798 301.212V306.792ZM594.288 298.152C595.98 298.152 597.42 299.214 597.402 301.14H591.174C591.354 299.214 592.686 298.152 594.288 298.152ZM598.896 303.75H597.132C596.772 304.812 595.836 305.568 594.36 305.568C592.686 305.568 591.282 304.47 591.156 302.472H599.04C599.076 302.13 599.094 301.842 599.094 301.482C599.094 298.782 597.222 296.766 594.36 296.766C591.48 296.766 589.482 298.728 589.482 301.842C589.482 304.974 591.552 306.954 594.36 306.954C596.808 306.954 598.392 305.55 598.896 303.75ZM615.415 301.842C615.415 298.728 613.237 296.766 610.429 296.766C607.639 296.766 605.443 298.728 605.443 301.842C605.443 304.974 607.567 306.954 610.357 306.954C613.165 306.954 615.415 304.974 615.415 301.842ZM607.117 301.842C607.117 299.358 608.683 298.188 610.411 298.188C612.103 298.188 613.741 299.358 613.741 301.842C613.741 304.344 612.067 305.514 610.357 305.514C608.647 305.514 607.117 304.344 607.117 301.842ZM617.875 306.792H619.513V298.278H621.583V296.928H619.513V296.226C619.513 294.948 619.999 294.408 621.475 294.408V293.04C618.955 293.04 617.875 294.03 617.875 296.226V296.928H616.597V298.278H617.875V306.792ZM628.651 304.092C628.651 306.072 629.641 306.792 631.387 306.792H632.863V305.406H631.657C630.649 305.406 630.289 305.064 630.289 304.092V298.278H632.863V296.928H630.289V294.444H628.651V296.928H627.373V298.278H628.651V304.092ZM634.848 306.792H636.486V301.338C636.486 299.214 637.638 298.17 639.312 298.17C640.968 298.17 642.066 299.196 642.066 301.212V306.792H643.686V300.978C643.686 298.152 641.94 296.748 639.744 296.748C638.358 296.748 637.134 297.306 636.486 298.35V293.472H634.848V306.792ZM650.556 298.152C652.248 298.152 653.688 299.214 653.67 301.14H647.442C647.622 299.214 648.954 298.152 650.556 298.152ZM655.164 303.75H653.4C653.04 304.812 652.104 305.568 650.628 305.568C648.954 305.568 647.55 304.47 647.424 302.472H655.308C655.344 302.13 655.362 301.842 655.362 301.482C655.362 298.782 653.49 296.766 650.628 296.766C647.748 296.766 645.75 298.728 645.75 301.842C645.75 304.974 647.82 306.954 650.628 306.954C653.076 306.954 654.66 305.55 655.164 303.75ZM663.961 298.764V293.472H662.323V306.792H663.961V304.974C664.573 306.054 665.851 306.954 667.651 306.954C670.297 306.954 672.331 304.884 672.331 301.824C672.331 298.746 670.315 296.766 667.651 296.766C665.905 296.766 664.591 297.666 663.961 298.764ZM670.657 301.824C670.657 304.146 669.127 305.514 667.309 305.514C665.527 305.514 663.961 304.164 663.961 301.842C663.961 299.556 665.527 298.188 667.309 298.188C669.127 298.188 670.657 299.502 670.657 301.824ZM678.681 298.152C680.373 298.152 681.813 299.214 681.795 301.14H675.567C675.747 299.214 677.079 298.152 678.681 298.152ZM683.289 303.75H681.525C681.165 304.812 680.229 305.568 678.753 305.568C677.079 305.568 675.675 304.47 675.549 302.472H683.433C683.469 302.13 683.487 301.842 683.487 301.482C683.487 298.782 681.615 296.766 678.753 296.766C675.873 296.766 673.875 298.728 673.875 301.842C673.875 304.974 675.945 306.954 678.753 306.954C681.201 306.954 682.785 305.55 683.289 303.75ZM692.741 304.11C692.669 300.582 686.945 301.86 686.945 299.52C686.945 298.728 687.665 298.152 688.871 298.152C690.185 298.152 690.941 298.872 691.013 299.862H692.651C692.543 297.936 691.103 296.766 688.925 296.766C686.729 296.766 685.307 298.008 685.307 299.52C685.307 303.192 691.139 301.914 691.139 304.11C691.139 304.92 690.419 305.568 689.123 305.568C687.737 305.568 686.891 304.848 686.801 303.894H685.109C685.217 305.694 686.837 306.954 689.141 306.954C691.319 306.954 692.741 305.73 692.741 304.11ZM695.413 304.092C695.413 306.072 696.403 306.792 698.149 306.792H699.625V305.406H698.419C697.411 305.406 697.051 305.064 697.051 304.092V298.278H699.625V296.928H697.051V294.444H695.413V296.928H694.135V298.278H695.413V304.092ZM703.212 305.784C703.212 305.154 702.726 304.668 702.132 304.668C701.502 304.668 701.016 305.154 701.016 305.784C701.016 306.414 701.502 306.9 702.132 306.9C702.726 306.9 703.212 306.414 703.212 305.784ZM706.991 305.784C706.991 305.154 706.505 304.668 705.911 304.668C705.281 304.668 704.795 305.154 704.795 305.784C704.795 306.414 705.281 306.9 705.911 306.9C706.505 306.9 706.991 306.414 706.991 305.784ZM710.77 305.784C710.77 305.154 710.284 304.668 709.69 304.668C709.06 304.668 708.574 305.154 708.574 305.784C708.574 306.414 709.06 306.9 709.69 306.9C710.284 306.9 710.77 306.414 710.77 305.784ZM714.55 305.784C714.55 305.154 714.064 304.668 713.47 304.668C712.84 304.668 712.354 305.154 712.354 305.784C712.354 306.414 712.84 306.9 713.47 306.9C714.064 306.9 714.55 306.414 714.55 305.784ZM718.329 305.784C718.329 305.154 717.843 304.668 717.249 304.668C716.619 304.668 716.133 305.154 716.133 305.784C716.133 306.414 716.619 306.9 717.249 306.9C717.843 306.9 718.329 306.414 718.329 305.784ZM722.108 305.784C722.108 305.154 721.622 304.668 721.028 304.668C720.398 304.668 719.912 305.154 719.912 305.784C719.912 306.414 720.398 306.9 721.028 306.9C721.622 306.9 722.108 306.414 722.108 305.784ZM725.887 305.784C725.887 305.154 725.401 304.668 724.807 304.668C724.177 304.668 723.691 305.154 723.691 305.784C723.691 306.414 724.177 306.9 724.807 306.9C725.401 306.9 725.887 306.414 725.887 305.784ZM729.667 305.784C729.667 305.154 729.181 304.668 728.587 304.668C727.957 304.668 727.471 305.154 727.471 305.784C727.471 306.414 727.957 306.9 728.587 306.9C729.181 306.9 729.667 306.414 729.667 305.784ZM733.446 305.784C733.446 305.154 732.96 304.668 732.366 304.668C731.736 304.668 731.25 305.154 731.25 305.784C731.25 306.414 731.736 306.9 732.366 306.9C732.96 306.9 733.446 306.414 733.446 305.784ZM737.225 305.784C737.225 305.154 736.739 304.668 736.145 304.668C735.515 304.668 735.029 305.154 735.029 305.784C735.029 306.414 735.515 306.9 736.145 306.9C736.739 306.9 737.225 306.414 737.225 305.784Z" fill="#FAFAFA"/>
<path d="M302.199 242.813V250.157H310.839V253.505H302.199V261.173H311.919V264.521H298.095V239.465H311.919V242.813H302.199ZM325.47 254.477L331.878 264.521H327.234L322.95 257.789L318.918 264.521H314.634L321.042 254.765L314.634 244.685H319.278L323.562 251.417L327.594 244.685H331.878L325.47 254.477ZM339.042 247.601C339.738 246.689 340.686 245.921 341.886 245.297C343.086 244.673 344.442 244.361 345.954 244.361C347.682 244.361 349.254 244.793 350.67 245.657C352.11 246.497 353.238 247.685 354.054 249.221C354.87 250.757 355.278 252.521 355.278 254.513C355.278 256.505 354.87 258.293 354.054 259.877C353.238 261.437 352.11 262.661 350.67 263.549C349.254 264.413 347.682 264.845 345.954 264.845C344.442 264.845 343.098 264.545 341.922 263.945C340.746 263.321 339.786 262.553 339.042 261.641V273.953H334.938V244.685H339.042V247.601ZM351.102 254.513C351.102 253.145 350.814 251.969 350.238 250.985C349.686 249.977 348.942 249.221 348.006 248.717C347.094 248.189 346.11 247.925 345.054 247.925C344.022 247.925 343.038 248.189 342.102 248.717C341.19 249.245 340.446 250.013 339.87 251.021C339.318 252.029 339.042 253.217 339.042 254.585C339.042 255.953 339.318 257.153 339.87 258.185C340.446 259.193 341.19 259.961 342.102 260.489C343.038 261.017 344.022 261.281 345.054 261.281C346.11 261.281 347.094 261.017 348.006 260.489C348.942 259.937 349.686 259.145 350.238 258.113C350.814 257.081 351.102 255.881 351.102 254.513ZM363.441 237.881V264.521H359.337V237.881H363.441ZM367.461 254.513C367.461 252.521 367.869 250.757 368.685 249.221C369.525 247.685 370.653 246.497 372.069 245.657C373.509 244.793 375.093 244.361 376.821 244.361C378.381 244.361 379.737 244.673 380.889 245.297C382.065 245.897 383.001 246.653 383.697 247.565V244.685H387.837V264.521H383.697V261.569C383.001 262.505 382.053 263.285 380.853 263.909C379.653 264.533 378.285 264.845 376.749 264.845C375.045 264.845 373.485 264.413 372.069 263.549C370.653 262.661 369.525 261.437 368.685 259.877C367.869 258.293 367.461 256.505 367.461 254.513ZM383.697 254.585C383.697 253.217 383.409 252.029 382.833 251.021C382.281 250.013 381.549 249.245 380.637 248.717C379.725 248.189 378.741 247.925 377.685 247.925C376.629 247.925 375.645 248.189 374.733 248.717C373.821 249.221 373.077 249.977 372.501 250.985C371.949 251.969 371.673 253.145 371.673 254.513C371.673 255.881 371.949 257.081 372.501 258.113C373.077 259.145 373.821 259.937 374.733 260.489C375.669 261.017 376.653 261.281 377.685 261.281C378.741 261.281 379.725 261.017 380.637 260.489C381.549 259.961 382.281 259.193 382.833 258.185C383.409 257.153 383.697 255.953 383.697 254.585ZM395.315 242.057C394.571 242.057 393.947 241.805 393.443 241.301C392.939 240.797 392.687 240.173 392.687 239.429C392.687 238.685 392.939 238.061 393.443 237.557C393.947 237.053 394.571 236.801 395.315 236.801C396.035 236.801 396.647 237.053 397.151 237.557C397.655 238.061 397.907 238.685 397.907 239.429C397.907 240.173 397.655 240.797 397.151 241.301C396.647 241.805 396.035 242.057 395.315 242.057ZM397.331 244.685V264.521H393.227V244.685H397.331ZM412.728 244.361C414.288 244.361 415.68 244.685 416.904 245.333C418.152 245.981 419.124 246.941 419.82 248.213C420.516 249.485 420.864 251.021 420.864 252.821V264.521H416.796V253.433C416.796 251.657 416.352 250.301 415.464 249.365C414.576 248.405 413.364 247.925 411.828 247.925C410.292 247.925 409.068 248.405 408.156 249.365C407.268 250.301 406.824 251.657 406.824 253.433V264.521H402.72V244.685H406.824V246.953C407.496 246.137 408.348 245.501 409.38 245.045C410.436 244.589 411.552 244.361 412.728 244.361ZM424.731 254.513C424.731 252.521 425.139 250.757 425.955 249.221C426.795 247.685 427.923 246.497 429.339 245.657C430.779 244.793 432.363 244.361 434.091 244.361C435.651 244.361 437.007 244.673 438.159 245.297C439.335 245.897 440.271 246.653 440.967 247.565V244.685H445.107V264.521H440.967V261.569C440.271 262.505 439.323 263.285 438.123 263.909C436.923 264.533 435.555 264.845 434.019 264.845C432.315 264.845 430.755 264.413 429.339 263.549C427.923 262.661 426.795 261.437 425.955 259.877C425.139 258.293 424.731 256.505 424.731 254.513ZM440.967 254.585C440.967 253.217 440.679 252.029 440.103 251.021C439.551 250.013 438.819 249.245 437.907 248.717C436.995 248.189 436.011 247.925 434.955 247.925C433.899 247.925 432.915 248.189 432.003 248.717C431.091 249.221 430.347 249.977 429.771 250.985C429.219 251.969 428.943 253.145 428.943 254.513C428.943 255.881 429.219 257.081 429.771 258.113C430.347 259.145 431.091 259.937 432.003 260.489C432.939 261.017 433.923 261.281 434.955 261.281C436.011 261.281 436.995 261.017 437.907 260.489C438.819 259.961 439.551 259.193 440.103 258.185C440.679 257.153 440.967 255.953 440.967 254.585ZM455.285 248.033V259.013C455.285 259.757 455.453 260.297 455.789 260.633C456.149 260.945 456.749 261.101 457.589 261.101H460.109V264.521H456.869C455.021 264.521 453.605 264.089 452.621 263.225C451.637 262.361 451.145 260.957 451.145 259.013V248.033H448.805V244.685H451.145V239.753H455.285V244.685H460.109V248.033H455.285ZM472.496 264.845C470.624 264.845 468.932 264.425 467.42 263.585C465.908 262.721 464.72 261.521 463.856 259.985C462.992 258.425 462.56 256.625 462.56 254.585C462.56 252.569 463.004 250.781 463.892 249.221C464.78 247.661 465.992 246.461 467.528 245.621C469.064 244.781 470.78 244.361 472.676 244.361C474.572 244.361 476.288 244.781 477.824 245.621C479.36 246.461 480.572 247.661 481.46 249.221C482.348 250.781 482.792 252.569 482.792 254.585C482.792 256.601 482.336 258.389 481.424 259.949C480.512 261.509 479.264 262.721 477.68 263.585C476.12 264.425 474.392 264.845 472.496 264.845ZM472.496 261.281C473.552 261.281 474.536 261.029 475.448 260.525C476.384 260.021 477.14 259.265 477.716 258.257C478.292 257.249 478.58 256.025 478.58 254.585C478.58 253.145 478.304 251.933 477.752 250.949C477.2 249.941 476.468 249.185 475.556 248.681C474.644 248.177 473.66 247.925 472.604 247.925C471.548 247.925 470.564 248.177 469.652 248.681C468.764 249.185 468.056 249.941 467.528 250.949C467 251.933 466.736 253.145 466.736 254.585C466.736 256.721 467.276 258.377 468.356 259.553C469.46 260.705 470.84 261.281 472.496 261.281ZM490.953 247.565C491.553 246.557 492.345 245.777 493.329 245.225C494.337 244.649 495.525 244.361 496.893 244.361V248.609H495.849C494.241 248.609 493.017 249.017 492.177 249.833C491.361 250.649 490.953 252.065 490.953 254.081V264.521H486.849V244.685H490.953V247.565ZM518.521 244.685L506.353 273.845H502.105L506.137 264.197L498.325 244.685H502.897L508.477 259.805L514.273 244.685H518.521ZM552.534 239.501L543.138 264.521H538.386L528.954 239.501H533.346L540.762 260.309L548.214 239.501H552.534ZM558.054 242.057C557.31 242.057 556.686 241.805 556.182 241.301C555.678 240.797 555.426 240.173 555.426 239.429C555.426 238.685 555.678 238.061 556.182 237.557C556.686 237.053 557.31 236.801 558.054 236.801C558.774 236.801 559.386 237.053 559.89 237.557C560.394 238.061 560.646 238.685 560.646 239.429C560.646 240.173 560.394 240.797 559.89 241.301C559.386 241.805 558.774 242.057 558.054 242.057ZM560.07 244.685V264.521H555.966V244.685H560.07ZM564.09 254.513C564.09 252.521 564.498 250.757 565.314 249.221C566.154 247.685 567.282 246.497 568.698 245.657C570.138 244.793 571.734 244.361 573.486 244.361C574.782 244.361 576.054 244.649 577.302 245.225C578.574 245.777 579.582 246.521 580.326 247.457V237.881H584.466V264.521H580.326V261.533C579.654 262.493 578.718 263.285 577.518 263.909C576.342 264.533 574.986 264.845 573.45 264.845C571.722 264.845 570.138 264.413 568.698 263.549C567.282 262.661 566.154 261.437 565.314 259.877C564.498 258.293 564.09 256.505 564.09 254.513ZM580.326 254.585C580.326 253.217 580.038 252.029 579.462 251.021C578.91 250.013 578.178 249.245 577.266 248.717C576.354 248.189 575.37 247.925 574.314 247.925C573.258 247.925 572.274 248.189 571.362 248.717C570.45 249.221 569.706 249.977 569.13 250.985C568.578 251.969 568.302 253.145 568.302 254.513C568.302 255.881 568.578 257.081 569.13 258.113C569.706 259.145 570.45 259.937 571.362 260.489C572.298 261.017 573.282 261.281 574.314 261.281C575.37 261.281 576.354 261.017 577.266 260.489C578.178 259.961 578.91 259.193 579.462 258.185C580.038 257.153 580.326 255.953 580.326 254.585ZM608.036 254.117C608.036 254.861 607.988 255.533 607.892 256.133H592.736C592.856 257.717 593.444 258.989 594.5 259.949C595.556 260.909 596.852 261.389 598.388 261.389C600.596 261.389 602.156 260.465 603.068 258.617H607.496C606.896 260.441 605.804 261.941 604.22 263.117C602.66 264.269 600.716 264.845 598.388 264.845C596.492 264.845 594.788 264.425 593.276 263.585C591.788 262.721 590.612 261.521 589.748 259.985C588.908 258.425 588.488 256.625 588.488 254.585C588.488 252.545 588.896 250.757 589.712 249.221C590.552 247.661 591.716 246.461 593.204 245.621C594.716 244.781 596.444 244.361 598.388 244.361C600.26 244.361 601.928 244.769 603.392 245.585C604.856 246.401 605.996 247.553 606.812 249.041C607.628 250.505 608.036 252.197 608.036 254.117ZM603.752 252.821C603.728 251.309 603.188 250.097 602.132 249.185C601.076 248.273 599.768 247.817 598.208 247.817C596.792 247.817 595.58 248.273 594.572 249.185C593.564 250.073 592.964 251.285 592.772 252.821H603.752ZM620.679 264.845C618.807 264.845 617.115 264.425 615.603 263.585C614.091 262.721 612.903 261.521 612.039 259.985C611.175 258.425 610.743 256.625 610.743 254.585C610.743 252.569 611.187 250.781 612.075 249.221C612.963 247.661 614.175 246.461 615.711 245.621C617.247 244.781 618.963 244.361 620.859 244.361C622.755 244.361 624.471 244.781 626.007 245.621C627.543 246.461 628.755 247.661 629.643 249.221C630.531 250.781 630.975 252.569 630.975 254.585C630.975 256.601 630.519 258.389 629.607 259.949C628.695 261.509 627.447 262.721 625.863 263.585C624.303 264.425 622.575 264.845 620.679 264.845ZM620.679 261.281C621.735 261.281 622.719 261.029 623.631 260.525C624.567 260.021 625.323 259.265 625.899 258.257C626.475 257.249 626.763 256.025 626.763 254.585C626.763 253.145 626.487 251.933 625.935 250.949C625.383 249.941 624.651 249.185 623.739 248.681C622.827 248.177 621.843 247.925 620.787 247.925C619.731 247.925 618.747 248.177 617.835 248.681C616.947 249.185 616.239 249.941 615.711 250.949C615.183 251.933 614.919 253.145 614.919 254.585C614.919 256.721 615.459 258.377 616.539 259.553C617.643 260.705 619.023 261.281 620.679 261.281ZM664.364 239.501V264.521H660.26V253.577H648.488V264.521H644.384V239.501H648.488V250.229H660.26V239.501H664.364ZM687.947 254.117C687.947 254.861 687.899 255.533 687.803 256.133H672.647C672.767 257.717 673.355 258.989 674.411 259.949C675.467 260.909 676.763 261.389 678.299 261.389C680.507 261.389 682.067 260.465 682.979 258.617H687.407C686.807 260.441 685.715 261.941 684.131 263.117C682.571 264.269 680.627 264.845 678.299 264.845C676.403 264.845 674.699 264.425 673.187 263.585C671.699 262.721 670.523 261.521 669.659 259.985C668.819 258.425 668.399 256.625 668.399 254.585C668.399 252.545 668.807 250.757 669.623 249.221C670.463 247.661 671.627 246.461 673.115 245.621C674.627 244.781 676.355 244.361 678.299 244.361C680.171 244.361 681.839 244.769 683.303 245.585C684.767 246.401 685.907 247.553 686.723 249.041C687.539 250.505 687.947 252.197 687.947 254.117ZM683.663 252.821C683.639 251.309 683.099 250.097 682.043 249.185C680.987 248.273 679.679 247.817 678.119 247.817C676.703 247.817 675.491 248.273 674.483 249.185C673.475 250.073 672.875 251.285 672.683 252.821H683.663ZM696.089 247.565C696.689 246.557 697.481 245.777 698.465 245.225C699.473 244.649 700.661 244.361 702.029 244.361V248.609H700.985C699.377 248.609 698.153 249.017 697.313 249.833C696.497 250.649 696.089 252.065 696.089 254.081V264.521H691.985V244.685H696.089V247.565ZM723.982 254.117C723.982 254.861 723.934 255.533 723.838 256.133H708.682C708.802 257.717 709.39 258.989 710.446 259.949C711.502 260.909 712.798 261.389 714.334 261.389C716.542 261.389 718.102 260.465 719.014 258.617H723.442C722.842 260.441 721.75 261.941 720.166 263.117C718.606 264.269 716.662 264.845 714.334 264.845C712.438 264.845 710.734 264.425 709.222 263.585C707.734 262.721 706.558 261.521 705.694 259.985C704.854 258.425 704.434 256.625 704.434 254.585C704.434 252.545 704.842 250.757 705.658 249.221C706.498 247.661 707.662 246.461 709.15 245.621C710.662 244.781 712.39 244.361 714.334 244.361C716.206 244.361 717.874 244.769 719.338 245.585C720.802 246.401 721.942 247.553 722.758 249.041C723.574 250.505 723.982 252.197 723.982 254.117ZM719.698 252.821C719.674 251.309 719.134 250.097 718.078 249.185C717.022 248.273 715.714 247.817 714.154 247.817C712.738 247.817 711.526 248.273 710.518 249.185C709.51 250.073 708.91 251.285 708.718 252.821H719.698Z" fill="#FAFAFA"/>
</svg>
