<svg width="609" height="490" viewBox="0 0 609 490" fill="none" xmlns="http://www.w3.org/2000/svg">
<ellipse cx="459.445" cy="344.944" rx="89.8365" ry="24.7583" fill="#EFEFEF"/>
<path d="M443.213 330.319L438.194 328.397L439.905 325.1L442.961 327.956L443.213 330.319Z" fill="black"/>
<path d="M448.588 321.56C448.588 321.56 448.735 324.71 448.756 325.76C448.777 326.81 444.315 329.813 443.212 330.317L442.96 327.955C441.961 329.105 441.107 330.374 440.42 331.734C439.548 333.152 438.414 335.85 436.052 337.656C432.534 340.344 427.106 341.646 421.583 341.751C416.06 341.856 412.931 340.502 411.388 339.315C409.844 338.129 409.361 336.764 409.781 335.409C410.201 334.055 448.588 321.56 448.588 321.56Z" fill="#263238"/>
<path d="M434.014 310.44V308.592C432.964 308.592 432.828 311.217 431.305 313.548C429.084 317.044 426.419 320.238 423.378 323.051C417.708 327.912 412.658 330.936 410.127 333.12C406.736 336.039 412.532 340.869 421.541 340.522C426.003 340.354 433.983 338.296 436.24 335.776C438.498 333.256 439.957 329.277 441.774 327.45C443.59 325.623 447.454 323.796 448.609 321.56C449.239 320.331 448.966 317.423 448.609 314.955C448.315 312.698 448.305 309.233 446.982 309.495L446.877 310.65C446.32 311.627 445.05 313.244 441.438 313.8C439.642 314.042 434.277 314.115 434.014 310.44Z" fill="#37474F"/>
<path opacity="0.15" d="M438.55 313.823C436.839 313.655 434.991 313.067 434.298 311.555C434.377 312.192 434.308 312.838 434.095 313.443C433.881 314.048 433.53 314.595 433.069 315.041C431.431 316.847 421.047 329.563 421.047 329.563C421.047 329.563 430.686 319.063 432.534 317.12C435.264 314.201 436.125 313.865 438.582 313.823H438.55Z" fill="black"/>
<path opacity="0.15" d="M436.22 317.202C436.262 317.315 436.341 317.41 436.443 317.474C436.545 317.537 436.666 317.565 436.785 317.553C436.905 317.541 437.018 317.49 437.105 317.408C437.193 317.325 437.251 317.216 437.27 317.097C437.252 316.955 437.179 316.826 437.068 316.736C436.956 316.646 436.814 316.602 436.671 316.614C436.536 316.638 436.414 316.711 436.331 316.82C436.247 316.929 436.207 317.066 436.22 317.202Z" fill="black"/>
<path opacity="0.15" d="M433.542 320.006C433.547 320.117 433.585 320.225 433.652 320.314C433.719 320.404 433.811 320.471 433.917 320.507C434.022 320.544 434.136 320.547 434.244 320.518C434.352 320.489 434.448 320.428 434.521 320.343C434.593 320.258 434.639 320.153 434.651 320.042C434.663 319.931 434.642 319.819 434.589 319.72C434.537 319.622 434.456 319.541 434.357 319.489C434.258 319.437 434.146 319.416 434.035 319.428C433.965 319.434 433.896 319.453 433.833 319.485C433.77 319.517 433.714 319.561 433.668 319.614C433.623 319.668 433.588 319.73 433.566 319.797C433.544 319.865 433.536 319.935 433.542 320.006Z" fill="black"/>
<path opacity="0.15" d="M430.843 322.811C430.885 322.923 430.962 323.019 431.064 323.083C431.165 323.147 431.285 323.176 431.404 323.165C431.524 323.155 431.637 323.105 431.725 323.024C431.813 322.942 431.872 322.834 431.893 322.716C431.877 322.573 431.806 322.442 431.693 322.351C431.581 322.261 431.438 322.218 431.295 322.233C431.159 322.251 431.036 322.322 430.951 322.43C430.867 322.538 430.828 322.674 430.843 322.811Z" fill="black"/>
<path opacity="0.15" d="M428.134 325.623C428.142 325.694 428.164 325.762 428.198 325.824C428.233 325.886 428.279 325.941 428.335 325.985C428.391 326.029 428.454 326.061 428.523 326.08C428.591 326.099 428.662 326.105 428.733 326.096C428.804 326.092 428.873 326.074 428.937 326.042C429.001 326.011 429.057 325.967 429.103 325.913C429.149 325.859 429.184 325.796 429.205 325.728C429.226 325.66 429.234 325.589 429.226 325.518C429.184 325.406 429.106 325.31 429.003 325.247C428.901 325.183 428.781 325.155 428.661 325.167C428.541 325.179 428.429 325.231 428.341 325.313C428.254 325.395 428.196 325.505 428.176 325.623H428.134Z" fill="black"/>
<path opacity="0.15" d="M425.426 328.428C425.432 328.539 425.472 328.645 425.54 328.733C425.607 328.821 425.699 328.887 425.804 328.922C425.909 328.957 426.022 328.96 426.129 328.931C426.236 328.901 426.332 328.841 426.404 328.757C426.476 328.672 426.521 328.569 426.534 328.459C426.547 328.349 426.526 328.237 426.475 328.139C426.425 328.04 426.345 327.959 426.248 327.906C426.151 327.853 426.04 327.83 425.93 327.84C425.786 327.854 425.653 327.922 425.559 328.032C425.465 328.142 425.417 328.284 425.426 328.428Z" fill="black"/>
<path d="M436.807 317.361C436.863 317.36 436.915 317.338 436.954 317.298C436.975 317.279 436.991 317.257 437.002 317.231C437.013 317.206 437.019 317.179 437.019 317.151C437.019 317.123 437.013 317.096 437.002 317.071C436.991 317.045 436.975 317.023 436.954 317.004C435.282 315.422 433.072 314.533 430.77 314.516C430.714 314.516 430.661 314.538 430.621 314.577C430.582 314.616 430.56 314.67 430.56 314.726C430.56 314.781 430.582 314.835 430.621 314.874C430.661 314.913 430.714 314.936 430.77 314.936C432.942 314.982 435.023 315.822 436.618 317.298C436.64 317.326 436.669 317.347 436.703 317.358C436.737 317.37 436.773 317.371 436.807 317.361Z" fill="#263238"/>
<path d="M434.12 320.186C434.169 320.174 434.215 320.152 434.256 320.123C434.295 320.082 434.317 320.027 434.317 319.97C434.317 319.914 434.295 319.859 434.256 319.818C432.579 318.243 430.372 317.355 428.072 317.33C428.04 317.323 428.006 317.323 427.974 317.33C427.942 317.338 427.912 317.352 427.886 317.373C427.86 317.394 427.839 317.42 427.825 317.45C427.811 317.479 427.803 317.512 427.803 317.545C427.803 317.578 427.811 317.611 427.825 317.64C427.839 317.67 427.86 317.696 427.886 317.717C427.912 317.738 427.942 317.752 427.974 317.76C428.006 317.767 428.04 317.767 428.072 317.76C430.246 317.799 432.329 318.64 433.92 320.123C433.976 320.168 434.048 320.191 434.12 320.186Z" fill="#263238"/>
<path d="M431.4 322.976C431.456 322.976 431.509 322.953 431.547 322.913C431.586 322.872 431.608 322.818 431.608 322.761C431.608 322.704 431.586 322.65 431.547 322.609C429.867 321.039 427.662 320.151 425.363 320.12C425.314 320.131 425.27 320.159 425.239 320.198C425.207 320.237 425.19 320.285 425.19 320.336C425.19 320.386 425.207 320.434 425.239 320.474C425.27 320.513 425.314 320.54 425.363 320.551C427.535 320.598 429.615 321.439 431.211 322.913C431.237 322.937 431.266 322.954 431.299 322.965C431.332 322.976 431.366 322.98 431.4 322.976Z" fill="#263238"/>
<path d="M428.691 325.782C428.747 325.781 428.799 325.758 428.838 325.719C428.877 325.678 428.899 325.623 428.899 325.567C428.899 325.51 428.877 325.455 428.838 325.414C427.161 323.839 424.954 322.951 422.654 322.926C422.625 322.927 422.596 322.934 422.57 322.947C422.544 322.959 422.52 322.976 422.501 322.998C422.481 323.019 422.466 323.044 422.456 323.072C422.447 323.099 422.442 323.128 422.444 323.157C422.445 323.185 422.452 323.213 422.465 323.239C422.477 323.265 422.495 323.288 422.516 323.306C422.538 323.325 422.563 323.339 422.59 323.348C422.618 323.356 422.646 323.359 422.675 323.356C424.847 323.406 426.926 324.246 428.523 325.719C428.544 325.742 428.57 325.761 428.599 325.772C428.629 325.783 428.66 325.786 428.691 325.782Z" fill="#263238"/>
<path d="M425.993 328.583C426.043 328.584 426.092 328.565 426.129 328.531C426.15 328.511 426.166 328.488 426.177 328.461C426.189 328.435 426.194 328.407 426.194 328.378C426.194 328.35 426.189 328.322 426.177 328.296C426.166 328.269 426.15 328.246 426.129 328.226C424.455 326.646 422.246 325.758 419.945 325.738C419.917 325.738 419.889 325.743 419.863 325.755C419.838 325.766 419.815 325.783 419.796 325.803C419.777 325.824 419.763 325.849 419.754 325.875C419.745 325.902 419.742 325.93 419.745 325.958C419.748 326.015 419.772 326.068 419.813 326.107C419.855 326.147 419.909 326.168 419.966 326.168C422.138 326.208 424.219 327.045 425.814 328.52C425.836 328.545 425.864 328.563 425.895 328.574C425.927 328.585 425.96 328.588 425.993 328.583Z" fill="#263238"/>
<path d="M484.287 346.191C485.001 350.391 485.988 353.1 487.805 355.4C489.621 357.699 492.918 358.014 495.375 357.5C497.35 357.145 499.18 356.227 500.644 354.856C502.109 353.485 503.145 351.719 503.628 349.772C504.458 346.905 503.953 343.598 502.851 339.766L484.287 346.191Z" fill="#263238"/>
<path d="M494.252 314.242C495.48 314.242 496.457 319.817 497.78 325.403C499.208 331.398 501.486 334.59 502.568 338.612C504.059 344.198 503.933 346.791 502.253 350.435C500.573 354.078 492.057 358.467 487.941 353.92C484.571 350.204 483.962 345.773 483.605 340.071C483.409 335.229 482.968 330.4 482.282 325.602C481.568 321.403 480.812 317.276 481.81 316.699C481.967 317.318 482.135 318.095 482.282 318.704C482.429 319.313 482.775 321.455 483.458 321.413C483.453 320.874 483.4 320.336 483.3 319.807C483.234 319.572 483.215 319.327 483.246 319.085C483.277 318.843 483.356 318.61 483.479 318.4C483.817 318.026 484.266 317.772 484.76 317.675C485.922 317.308 487.104 317.003 488.298 316.762C488.896 316.643 489.498 316.556 490.104 316.499C491.148 316.352 492.201 316.285 493.254 316.3C493.404 316.326 493.547 316.385 493.672 316.472C493.797 316.559 493.902 316.672 493.979 316.804C494.056 317.009 494.102 317.225 494.115 317.444C494.158 317.839 494.249 318.227 494.388 318.599C494.451 318.757 494.598 318.956 494.766 318.893C494.934 318.83 494.945 318.673 494.924 318.526C494.85 317.843 494.714 317.36 494.588 316.562C494.535 316.195 494.42 315.701 494.367 315.334C494.315 314.966 494.325 314.599 494.252 314.242Z" fill="#37474F"/>
<path opacity="0.15" d="M498.274 340.481C498.295 340.59 498.273 340.702 498.212 340.795C498.151 340.887 498.056 340.952 497.948 340.975C497.839 340.994 497.726 340.971 497.632 340.911C497.539 340.85 497.472 340.757 497.444 340.649C497.432 340.596 497.431 340.541 497.441 340.487C497.451 340.433 497.472 340.382 497.502 340.337C497.533 340.292 497.572 340.253 497.618 340.224C497.664 340.194 497.716 340.175 497.77 340.166C497.823 340.154 497.879 340.152 497.934 340.161C497.988 340.17 498.04 340.19 498.087 340.219C498.134 340.248 498.174 340.287 498.206 340.332C498.238 340.376 498.261 340.427 498.274 340.481Z" fill="black"/>
<path opacity="0.15" d="M497.434 336.607C497.446 336.66 497.447 336.715 497.437 336.769C497.427 336.822 497.406 336.873 497.376 336.919C497.345 336.964 497.306 337.003 497.26 337.032C497.214 337.061 497.162 337.081 497.108 337.09C497.054 337.102 496.999 337.104 496.944 337.095C496.89 337.086 496.838 337.066 496.791 337.037C496.744 337.007 496.704 336.969 496.671 336.924C496.639 336.879 496.617 336.828 496.604 336.775C496.592 336.721 496.591 336.665 496.601 336.611C496.611 336.556 496.631 336.505 496.662 336.459C496.692 336.412 496.732 336.373 496.778 336.342C496.824 336.312 496.875 336.291 496.93 336.281C496.984 336.269 497.041 336.268 497.096 336.277C497.151 336.287 497.203 336.308 497.25 336.338C497.297 336.368 497.337 336.408 497.369 336.454C497.4 336.5 497.422 336.552 497.434 336.607Z" fill="black"/>
<path opacity="0.15" d="M496.646 332.941C496.668 333.049 496.646 333.162 496.585 333.254C496.524 333.347 496.429 333.411 496.321 333.434C496.21 333.454 496.096 333.431 496 333.371C495.905 333.311 495.836 333.217 495.806 333.109C495.788 332.999 495.812 332.886 495.875 332.794C495.937 332.702 496.033 332.638 496.142 332.615C496.252 332.596 496.365 332.619 496.458 332.679C496.552 332.739 496.619 332.833 496.646 332.941Z" fill="black"/>
<path opacity="0.15" d="M495.87 329.33C495.88 329.436 495.85 329.542 495.787 329.628C495.723 329.714 495.63 329.773 495.526 329.794C495.421 329.815 495.312 329.796 495.221 329.741C495.129 329.687 495.061 329.6 495.03 329.498C495.019 329.445 495.019 329.39 495.03 329.337C495.04 329.284 495.061 329.233 495.091 329.188C495.122 329.144 495.161 329.105 495.206 329.075C495.251 329.045 495.302 329.025 495.355 329.015C495.465 328.99 495.581 329.008 495.677 329.067C495.773 329.126 495.842 329.22 495.87 329.33Z" fill="black"/>
<path opacity="0.15" d="M486.335 330.905C486.347 330.959 486.348 331.014 486.338 331.069C486.328 331.123 486.308 331.175 486.277 331.221C486.247 331.267 486.207 331.307 486.161 331.337C486.115 331.367 486.064 331.388 486.009 331.398C485.955 331.411 485.9 331.412 485.845 331.403C485.791 331.394 485.739 331.374 485.692 331.345C485.645 331.316 485.605 331.278 485.573 331.233C485.54 331.188 485.518 331.137 485.505 331.083C485.493 331.029 485.492 330.974 485.502 330.919C485.512 330.865 485.532 330.813 485.563 330.767C485.593 330.721 485.633 330.682 485.679 330.651C485.725 330.621 485.776 330.6 485.831 330.59C485.885 330.577 485.94 330.576 485.995 330.585C486.049 330.594 486.101 330.614 486.148 330.643C486.195 330.672 486.235 330.71 486.267 330.755C486.299 330.8 486.322 330.851 486.335 330.905Z" fill="black"/>
<path opacity="0.15" d="M487.122 334.548C487.135 334.602 487.136 334.657 487.126 334.71C487.116 334.764 487.095 334.815 487.064 334.86C487.034 334.906 486.994 334.944 486.948 334.974C486.902 335.003 486.851 335.023 486.797 335.031C486.743 335.044 486.687 335.046 486.633 335.036C486.578 335.027 486.526 335.008 486.48 334.978C486.433 334.949 486.392 334.911 486.36 334.866C486.328 334.821 486.305 334.77 486.293 334.716C486.281 334.662 486.279 334.607 486.289 334.552C486.299 334.498 486.32 334.446 486.35 334.4C486.381 334.354 486.42 334.315 486.466 334.284C486.512 334.254 486.564 334.233 486.618 334.223C486.673 334.211 486.729 334.209 486.784 334.219C486.839 334.229 486.892 334.249 486.939 334.28C486.986 334.31 487.026 334.349 487.058 334.396C487.089 334.442 487.111 334.494 487.122 334.548Z" fill="black"/>
<path opacity="0.15" d="M487.921 338.202C487.931 338.308 487.902 338.414 487.838 338.5C487.775 338.586 487.682 338.645 487.577 338.666C487.472 338.687 487.364 338.668 487.272 338.613C487.181 338.559 487.112 338.472 487.081 338.37C487.063 338.261 487.088 338.15 487.15 338.06C487.213 337.969 487.309 337.907 487.417 337.887C487.526 337.865 487.638 337.885 487.732 337.944C487.826 338.002 487.894 338.095 487.921 338.202Z" fill="black"/>
<path opacity="0.15" d="M488.719 342.088C488.737 342.197 488.712 342.308 488.649 342.398C488.586 342.489 488.491 342.551 488.383 342.571C488.329 342.584 488.273 342.585 488.219 342.576C488.164 342.567 488.112 342.548 488.065 342.518C488.018 342.489 487.978 342.451 487.946 342.406C487.914 342.361 487.891 342.31 487.879 342.256C487.86 342.147 487.884 342.034 487.947 341.942C488.01 341.85 488.106 341.786 488.215 341.763C488.324 341.743 488.437 341.766 488.53 341.827C488.624 341.887 488.691 341.98 488.719 342.088Z" fill="black"/>
<path opacity="0.15" d="M492.53 343.568L486.251 316.541L487.805 316.342L492.53 343.568Z" fill="black"/>
<path d="M497.906 340.775H497.832C494.966 340.46 490.22 341.237 488.445 342.318C488.422 342.333 488.396 342.344 488.368 342.349C488.341 342.354 488.313 342.354 488.285 342.348C488.258 342.342 488.232 342.331 488.209 342.315C488.186 342.299 488.167 342.279 488.151 342.255C488.136 342.232 488.126 342.206 488.121 342.178C488.116 342.151 488.116 342.123 488.122 342.095C488.128 342.068 488.139 342.042 488.155 342.019C488.171 341.996 488.191 341.976 488.214 341.961C490.094 340.817 494.882 340.029 497.885 340.355C497.912 340.357 497.939 340.366 497.964 340.379C497.988 340.392 498.01 340.409 498.027 340.431C498.045 340.452 498.058 340.477 498.066 340.504C498.074 340.53 498.077 340.558 498.074 340.586C498.068 340.631 498.05 340.673 498.019 340.707C497.989 340.741 497.95 340.764 497.906 340.775Z" fill="#263238"/>
<path d="M497.118 336.892C497.1 336.899 497.08 336.903 497.061 336.903C497.041 336.903 497.021 336.899 497.003 336.892C494.756 336.136 489.653 337.217 487.658 338.456C487.61 338.485 487.553 338.494 487.499 338.482C487.444 338.471 487.396 338.439 487.364 338.393C487.335 338.345 487.326 338.288 487.338 338.234C487.349 338.179 487.381 338.131 487.427 338.099C489.527 336.808 494.777 335.695 497.139 336.503C497.166 336.51 497.191 336.523 497.213 336.54C497.235 336.558 497.253 336.579 497.266 336.604C497.279 336.629 497.286 336.656 497.288 336.684C497.29 336.712 497.286 336.74 497.276 336.766C497.264 336.799 497.243 336.829 497.215 336.851C497.187 336.874 497.154 336.888 497.118 336.892Z" fill="#263238"/>
<path d="M496.268 333.236H496.153C493.916 332.48 488.803 333.561 486.818 334.79C486.769 334.819 486.71 334.829 486.654 334.817C486.598 334.805 486.548 334.773 486.514 334.727C486.499 334.703 486.489 334.676 486.484 334.648C486.48 334.62 486.481 334.591 486.488 334.564C486.495 334.536 486.507 334.511 486.524 334.488C486.541 334.465 486.563 334.447 486.587 334.433C488.687 333.141 493.937 332.039 496.3 332.837C496.353 332.856 496.397 332.895 496.423 332.946C496.448 332.997 496.453 333.055 496.436 333.11C496.42 333.142 496.396 333.17 496.367 333.192C496.338 333.214 496.304 333.229 496.268 333.236Z" fill="#263238"/>
<path d="M495.491 329.636C495.453 329.646 495.413 329.646 495.375 329.636C493.128 328.88 488.025 329.961 486.03 331.19C486.008 331.212 485.981 331.229 485.952 331.239C485.922 331.249 485.89 331.252 485.859 331.249C485.828 331.245 485.798 331.235 485.772 331.218C485.745 331.202 485.723 331.179 485.706 331.153C485.689 331.127 485.678 331.097 485.675 331.066C485.671 331.035 485.674 331.003 485.684 330.973C485.694 330.944 485.71 330.917 485.732 330.894C485.754 330.872 485.781 330.854 485.81 330.843C487.91 329.552 493.16 328.439 495.522 329.237C495.549 329.246 495.573 329.261 495.594 329.28C495.614 329.299 495.631 329.321 495.643 329.347C495.655 329.372 495.661 329.4 495.662 329.428C495.663 329.456 495.658 329.484 495.648 329.51C495.637 329.544 495.616 329.573 495.588 329.596C495.56 329.618 495.526 329.632 495.491 329.636Z" fill="#263238"/>
<path d="M489.359 176.779C491.764 211.534 492.929 258.846 492.929 258.846C493.15 261.481 495.628 272.768 496.783 285.788C498.001 299.532 498.809 325.246 498.809 325.246C498.809 325.246 488.855 330.297 480.875 327.609C480.875 327.609 472.801 284.224 468.885 268.002C465.178 252.651 459.435 223.577 459.435 223.577L454.941 252.231C454.941 252.231 455.371 262.132 454.993 269.031C454.542 277.073 448.767 315.723 448.767 315.723C448.767 315.723 437.942 321.75 429.689 315.471C429.689 315.471 428.891 262.069 428.775 252.378C428.544 233.363 431.274 196.55 432.293 172.012L489.359 176.779Z" fill="#263238"/>
<path d="M474.324 216.573C474.975 224.91 475.71 233.236 476.529 241.552C476.928 245.71 477.344 249.868 477.778 254.026L478.429 260.262L478.776 263.412C478.881 264.462 479.08 265.512 479.238 266.562C480.55 274.815 482.535 289.798 483.983 298.062C485.432 306.325 486.955 314.515 488.614 322.715C487.599 314.42 486.475 306.143 485.243 297.883C484.015 289.62 482.094 274.626 480.76 266.384C480.603 265.334 480.393 264.284 480.277 263.286L479.931 260.136L479.196 253.91C478.699 249.766 478.191 245.622 477.673 241.478C476.637 233.155 475.521 224.854 474.324 216.573Z" fill="black"/>
<path d="M434.708 213.77C433.721 221.529 433.143 229.32 432.713 237.122C432.282 244.923 431.862 252.745 432.072 260.547C432.282 268.348 432.219 281.441 432.429 289.253C432.639 297.065 432.902 304.866 433.29 312.668C433.514 304.856 433.633 297.051 433.647 289.253C433.647 281.441 433.7 268.359 433.647 260.557L433.574 254.709V253.239V251.79L433.647 248.871L433.931 237.174L434.267 225.467C434.351 221.571 434.529 217.676 434.708 213.77Z" fill="black"/>
<path d="M459.445 223.585L456.169 204.507C456.169 204.507 446.467 203.026 441.543 198.638C441.543 198.638 444.693 204.402 453.828 206.754L457.093 223.554L454.941 252.187L459.445 223.585Z" fill="black"/>
<path d="M413.803 138.297C413.803 138.297 399.733 127.293 395.061 124.238C390.389 121.182 391.071 117.938 389.559 114.431C388.047 110.987 385.664 109.496 383.732 106.378C381.8 103.259 381.317 101.233 379.784 102.86C378.251 104.488 380.12 108.782 380.361 109.769C380.487 110.252 381.149 111.229 381.285 111.869C381.422 112.509 381.033 112.919 379.049 112.163C375.08 110.693 368.864 103.564 367.268 102.115C365.672 100.666 364.874 102.965 365.263 104.761C365.651 106.556 364.013 110.662 364.664 113.643C365.368 116.793 365.861 118.242 368.969 121.277C372.894 124.96 377.127 128.301 381.621 131.262C386.871 134.412 388.803 136.512 397.497 146.602C404.049 154.204 408.952 161.628 415.672 157.869L413.803 138.297Z" fill="#FFA8A7"/>
<path d="M447.57 106.496C444.384 106.481 441.271 107.449 438.656 109.268C436.85 110.318 435.506 111.683 431.705 115.767C427.904 119.851 412.28 138.237 412.28 138.237C412.28 138.237 413.855 145.46 414.023 159.173C417.541 159.719 420.848 156.307 425.352 152.579C433.836 145.565 444.252 134.089 452.872 124.471L447.57 106.496Z" fill="#E6E6E6"/>
<path d="M413.592 136.441C412.374 136.525 411.849 135.748 411.104 136.231C411.104 136.231 412.427 139.78 410.516 146.226C408.605 152.673 404.017 154.133 404.017 154.133L402.767 152.789C402.767 152.789 401.854 153.839 403.817 156.212C405.781 158.585 407.524 160.412 411.167 160.632C414.81 160.853 418.233 158.795 418.338 157.178C418.443 155.561 420.06 148.673 417.813 141.649C416.48 137.701 414.873 136.325 413.592 136.441Z" fill="#EBEBEB"/>
<path d="M413.036 136.722C416.239 140.995 416.186 149.091 414.496 155.034C416.722 150.624 418.507 141.856 413.036 136.722Z" fill="#E0E0E0"/>
<path d="M414.023 146.34C414.191 151.59 412.207 155.359 406.8 156.756C410.548 154.813 413.005 151.401 414.023 146.34Z" fill="#E0E0E0"/>
<path d="M491.007 111.073C491.007 111.073 497.213 116.323 494.094 129.049C492.107 137.343 490.683 145.762 489.832 154.248C489.296 160.968 489.779 183.648 489.779 183.648C479.489 195.66 437.049 192.048 431.904 180.949C431.904 180.949 431.81 137.974 435.831 122.801C438.109 114.213 441.228 109.236 444.525 106.831L458.994 103.587H472.118L491.007 111.073Z" fill="#F5F5F5"/>
<path d="M475.909 65.7554C475.909 65.7554 478.754 65.8289 480.812 69.3148C481.862 71.0683 482.692 74.3127 480.613 83.836C479.828 87.5495 478.49 91.1242 476.644 94.4408C476.1 95.5183 475.159 96.3426 474.019 96.7403L473.83 89.5059V84.466C473.83 84.466 470.375 80.2661 469.84 76.6227C469.147 71.9923 470.029 70.0393 470.029 70.0393L475.909 65.7554Z" fill="#37474F"/>
<path d="M476.896 65.9444C475.983 61.923 470.596 57.3556 460.621 57.3451C452.463 57.3451 447.854 60.39 445.271 65.2829C442.688 70.1759 444.882 76.2132 444.882 76.2132L470.355 73.1998L476.896 65.9444Z" fill="#37474F"/>
<path d="M480.581 91.2909C477.831 92.8974 475.069 90.4404 475.069 90.4404L475.29 104.468C475.29 104.468 475.143 107.356 470.701 110.117C464.401 114.023 461.64 115.031 459.046 119C456.621 112.7 454.09 109.225 457.996 104.143L457.839 101.633C456.344 101.806 454.836 101.838 453.334 101.728C449.996 101.371 447.78 98.8507 446.604 95.3228C444.872 90.0729 443.853 81.6731 445.376 72.4857C445.657 70.7154 446.544 69.0976 447.885 67.9078C454.185 62.4794 461.703 65.8079 467.352 67.6873C469.648 68.3622 472.106 68.225 474.313 67.2988C472.497 69.5353 471.667 71.6458 472.129 81.9041C472.52 82.5891 473.037 83.1946 473.652 83.689C474.922 84.676 475.752 81.9041 476.728 80.7911C477.203 80.3538 477.772 80.0319 478.392 79.8503C479.011 79.6687 479.664 79.6323 480.3 79.7441C480.936 79.8558 481.537 80.1126 482.058 80.4945C482.578 80.8764 483.004 81.3731 483.301 81.9461C483.739 82.7374 484.017 83.6077 484.117 84.5068C484.218 85.4059 484.14 86.316 483.887 87.1847C483.634 88.0533 483.212 88.8634 482.645 89.5681C482.077 90.2729 481.376 90.8584 480.581 91.2909Z" fill="#FFA8A7"/>
<path d="M461.724 75.8355L465.462 77.2425C465.637 76.7309 465.608 76.1713 465.382 75.6804C465.155 75.1894 464.747 74.8049 464.244 74.607C463.998 74.5166 463.737 74.4768 463.475 74.49C463.213 74.5033 462.957 74.5692 462.722 74.684C462.487 74.7987 462.277 74.9599 462.105 75.1578C461.934 75.3557 461.804 75.5862 461.724 75.8355Z" fill="#37474F"/>
<path d="M447.843 76.7575L451.644 75.4346C451.571 75.1834 451.447 74.9498 451.28 74.748C451.113 74.5462 450.907 74.3804 450.675 74.2606C450.442 74.1408 450.187 74.0696 449.926 74.0512C449.665 74.0328 449.403 74.0676 449.156 74.1536C448.642 74.3332 448.219 74.7049 447.974 75.1906C447.729 75.6763 447.682 76.238 447.843 76.7575Z" fill="#37474F"/>
<path d="M464.023 79.7406C464.028 80.0624 463.936 80.3783 463.761 80.6482C463.585 80.9181 463.334 81.1299 463.038 81.2569C462.742 81.3839 462.416 81.4203 462.099 81.3616C461.783 81.3029 461.491 81.1516 461.26 80.927C461.03 80.7023 460.871 80.4144 460.804 80.0995C460.737 79.7847 460.765 79.4571 460.885 79.1581C461.004 78.8592 461.209 78.6023 461.474 78.4201C461.74 78.2378 462.053 78.1383 462.375 78.1341C462.589 78.1299 462.802 78.1683 463.001 78.247C463.2 78.3258 463.382 78.4433 463.535 78.5927C463.688 78.7422 463.811 78.9206 463.894 79.1177C463.978 79.3147 464.022 79.5264 464.023 79.7406Z" fill="#263238"/>
<path d="M451.969 79.7407C451.973 80.0621 451.882 80.3775 451.707 80.6472C451.532 80.9168 451.282 81.1286 450.986 81.2559C450.691 81.3831 450.365 81.4202 450.049 81.3623C449.733 81.3044 449.441 81.1541 449.21 80.9306C448.979 80.707 448.819 80.42 448.751 80.1059C448.683 79.7917 448.71 79.4645 448.828 79.1654C448.945 78.8663 449.149 78.6088 449.413 78.4253C449.677 78.2418 449.989 78.1405 450.31 78.1343C450.53 78.1086 450.752 78.132 450.962 78.2029C451.171 78.2737 451.362 78.3903 451.521 78.544C451.68 78.6978 451.802 78.8849 451.88 79.0919C451.957 79.2989 451.988 79.5205 451.969 79.7407Z" fill="#263238"/>
<path d="M457.881 76.4108L457.083 86.8161L451.518 85.0941C452.962 81.7599 455.136 78.7925 457.881 76.4108Z" fill="#F28F8F"/>
<path d="M472.171 81.0232C471.846 88.1106 469.399 88.604 466.921 89.024C463.582 89.57 461.934 87.7746 455.97 87.7746C452.347 87.7746 451.213 88.8246 449.155 89.696C447.633 90.326 446.394 90.137 445.817 88.772C445.001 86.3033 444.597 83.7175 444.62 81.1177C444.32 84.992 444.418 88.8868 444.914 92.741C445.407 96.0694 446.625 98.9254 448.473 100.479C451.024 102.642 456.358 103.514 463.026 102.044C469.693 100.574 472.213 97.8439 473.022 95.4394C475.615 87.7851 474.597 84.1731 475.468 82.7242C476.339 81.2752 472.171 81.0232 472.171 81.0232Z" fill="#37474F"/>
<path d="M456.747 89.9029C460.149 89.8294 461.262 90.4384 461.43 92.7798C461.672 96.1188 461.504 97.2422 460.223 97.4102C458.721 97.6202 457.619 97.7147 457.566 96.7697C457.435 96.0632 457.512 95.3337 457.787 94.6698C458.312 94.0293 458.123 93.9348 456.632 93.9663C455.141 93.9978 455.151 94.2708 455.582 94.7328C456.012 95.1948 455.886 96.2133 455.876 96.8327C455.865 97.4522 455.718 97.8827 453.566 97.6202C451.686 97.4417 452.012 95.9403 452.043 93.0738C452.075 91.1418 452.883 89.9764 456.747 89.9029Z" fill="#FFA8A7"/>
<path d="M459.971 90.4191L454.416 91.1856C454.451 91.5539 454.56 91.9114 454.736 92.237C454.912 92.5625 455.151 92.8493 455.44 93.0805C455.729 93.3116 456.061 93.4823 456.418 93.5825C456.774 93.6826 457.147 93.7102 457.514 93.6635C458.264 93.5465 458.939 93.1428 459.397 92.5376C459.856 91.9324 460.061 91.1728 459.971 90.4191Z" fill="#B16668"/>
<path d="M459.246 91.2917C459.469 91.2705 459.694 91.2705 459.918 91.2917C459.811 91.8851 459.523 92.4306 459.092 92.8522C458.661 93.2737 458.109 93.5504 457.513 93.6436C457.218 93.6965 456.916 93.6965 456.621 93.6436C456.674 92.9901 456.976 92.3821 457.465 91.9445C457.953 91.507 458.59 91.2733 459.246 91.2917Z" fill="#F28F8F"/>
<path d="M456.358 118.432C456.358 118.432 453.943 113.749 453.954 111.922L456.946 108.888L457.818 116.5L456.358 118.432Z" fill="#BA68C8"/>
<path opacity="0.2" d="M456.358 118.432C456.358 118.432 453.943 113.749 453.954 111.922L456.946 108.888L457.818 116.5L456.358 118.432Z" fill="black"/>
<path d="M460.422 116.825L465.503 113.423L469.703 116.29L461.913 120.196L460.422 116.825Z" fill="#BA68C8"/>
<path opacity="0.2" d="M460.422 116.825L465.503 113.423L469.703 116.29L461.913 120.196L460.422 116.825Z" fill="black"/>
<path d="M462.605 163.737C460.054 149.29 459.75 126.652 460.075 122.694L457.314 122.41C455.361 127.145 449.586 150.256 449.649 161.511C449.481 165.438 454.468 175.991 457.114 176.096C459.76 176.201 463.025 166.1 462.605 163.737Z" fill="#BA68C8"/>
<path opacity="0.1" d="M462.605 163.737C460.054 149.29 459.75 126.652 460.075 122.694L457.314 122.41C455.361 127.145 449.586 150.256 449.649 161.511C449.481 165.438 454.468 175.991 457.114 176.096C459.76 176.201 463.025 166.1 462.605 163.737Z" fill="white"/>
<path opacity="0.5" d="M457.093 123.018C457.177 122.766 457.24 122.609 457.314 122.42L460.075 122.703C460.075 123.039 460.075 123.375 460.075 123.921C459.009 123.959 457.96 123.642 457.093 123.018Z" fill="black"/>
<path d="M460.495 116.488C459.631 116.348 458.754 116.306 457.881 116.362C457.233 116.949 456.715 117.664 456.358 118.462C456.383 119.846 456.709 121.207 457.314 122.452C457.726 122.697 458.186 122.85 458.663 122.899C459.14 122.948 459.622 122.892 460.075 122.736C460.991 122.069 461.692 121.15 462.091 120.09C462.047 118.728 461.474 117.436 460.495 116.488Z" fill="#BA68C8"/>
<path opacity="0.1" d="M460.495 116.488C459.631 116.348 458.754 116.306 457.881 116.362C457.233 116.949 456.715 117.664 456.358 118.462C456.383 119.846 456.709 121.207 457.314 122.452C457.726 122.697 458.186 122.85 458.663 122.899C459.14 122.948 459.622 122.892 460.075 122.736C460.991 122.069 461.692 121.15 462.091 120.09C462.047 118.728 461.474 117.436 460.495 116.488Z" fill="white"/>
<path d="M460.443 116.427C460.527 116.427 460.653 116.637 460.737 116.658C462.669 115.608 462.973 115.261 463.488 115.408C464.454 115.692 466.732 119.724 467.299 121.025C467.866 122.327 467.771 122.317 469.546 121.141C472.679 119.041 475.414 116.399 477.62 113.34C479.004 111.378 480.084 109.219 480.823 106.935C480.823 106.935 478.796 104.131 478.198 103.06C477.053 100.96 476.402 100.162 475.226 100.341V101.685C475.027 103.491 473.126 105.202 470.627 107.386C468.128 109.57 464.023 111.586 463.057 112.563C462.031 113.739 461.153 115.037 460.443 116.427Z" fill="#E6E6E6"/>
<path d="M451.288 117.958C451.571 118.693 453.902 112.939 455.057 113.055C455.614 113.055 456.853 114.661 457.882 116.31H458.669C458.085 114.904 457.686 113.429 457.483 111.921C457.475 109.314 457.657 106.71 458.028 104.13L457.882 102.765H456.832C456.451 103.175 456.117 103.626 455.834 104.109C454.7 105.946 451.781 109.359 451.414 111.511C451.005 113.637 450.962 115.818 451.288 117.958Z" fill="#E6E6E6"/>
<path d="M401.434 137.531L447.056 149.794L463.352 201.705L462.438 202.839L418.99 190.313L400.521 138.664L401.434 137.531Z" fill="#BA68C8"/>
<path opacity="0.35" d="M446.153 150.92L462.438 202.841L463.352 201.707L447.056 149.796L446.153 150.92Z" fill="black"/>
<path opacity="0.25" d="M400.521 138.664L446.153 150.917L462.438 202.839L418.99 190.313L400.521 138.664Z" fill="black"/>
<g opacity="0.1">
<path d="M414.737 148.463C414.737 148.463 414.517 147.686 414.233 146.72C413.95 145.754 416.606 146.069 420.144 147.423L428.355 149.229C431.894 150.583 435.212 151.539 435.495 152.505L435.999 154.248L414.737 148.463Z" fill="black"/>
</g>
<path d="M411.482 140.638C411.304 140.04 412.333 140.082 413.782 140.355L416.407 141.027C416.407 141.027 415.168 138.538 421.342 139.714C428.145 141.006 428.544 144.324 428.544 144.324C429.621 144.693 430.718 144.998 431.831 145.237C434.099 145.794 434.372 146.203 434.603 146.812L435.023 147.862L411.766 141.688C411.766 141.688 411.661 141.258 411.482 140.638Z" fill="#37474F"/>
<path d="M414.17 143.862C416.333 144.66 417.247 145.059 417.667 146.54C418.16 148.23 418.297 148.944 418.297 148.944L430.445 152.693C430.445 152.693 429.605 150.204 429.395 149.375C429.185 148.545 430.728 148.409 432.849 149.196L432.198 147.096L413.299 141.689L414.17 143.862Z" fill="#37474F"/>
<path d="M414.17 148.544C414.17 148.544 413.949 147.757 413.666 146.791C413.382 145.825 416.039 146.15 419.577 147.494L427.788 149.311C431.327 150.655 434.655 151.61 434.928 152.576L435.432 154.319L414.17 148.544Z" fill="#37474F"/>
<path d="M504.805 129.521C502.589 115.809 498.557 113.509 490.861 111.997C483.879 122.864 488.152 139.045 488.152 139.045L492.352 161.514C491.071 162.564 471.552 173.872 468.202 175.006C466.985 175.426 464.675 175.006 463.446 174.555C460.149 173.505 457.85 173.83 454.668 174.009L456.086 178.534C451.025 180.298 445.659 180.193 440.336 180.309C439.832 180.309 439.213 180.393 439.013 180.865C438.945 181.086 438.951 181.322 439.031 181.538C439.111 181.755 439.259 181.939 439.454 182.062C439.847 182.31 440.2 182.614 440.504 182.965C440.893 183.564 440.735 184.351 440.84 185.065C441.106 186.091 441.664 187.018 442.446 187.732C443.208 188.654 444.095 189.463 445.082 190.137C448.326 192.121 453.282 192.31 456.936 191.68C459.429 191.168 461.865 190.415 464.213 189.433C466.428 188.583 479.962 184.414 481.6 183.837C493.56 179.5 510.013 174.166 510.916 168.465C511.819 162.764 507.125 143.948 504.805 129.521Z" fill="#FFA8A7"/>
<path d="M491.008 111.073C500.048 114.747 501.445 115.115 503.881 122.108C506.243 128.88 511.367 159.477 511.042 167.54C505.718 163.047 498.442 161.566 492.373 161.514L487.669 139.222C486.272 133.143 482.955 120.522 491.008 111.073Z" fill="#E6E6E6"/>
<path d="M491.679 158.605C491.154 158.867 491.963 159.655 491.679 160.705C491.396 161.755 490.136 162.248 490.356 162.805C490.356 162.805 497.612 161.975 502.41 165.619C507.209 169.262 506.978 173.116 506.978 173.116L505.928 173.819C505.928 173.819 507.282 175.835 509.435 173.62C511.587 171.404 512.585 167.204 512.133 163.687C511.682 160.169 512.133 158.51 510.453 157.954C508.773 157.397 498.483 155.339 491.679 158.605Z" fill="#EBEBEB"/>
<path d="M491.543 161.019C493.444 159.759 501.571 158.761 506.128 162.31C504.028 159.612 498.494 157.585 491.69 159.948C491.747 160.211 491.747 160.483 491.69 160.746C491.648 160.84 491.599 160.932 491.543 161.019Z" fill="#E0E0E0"/>
<path d="M509.845 169.418C508.627 165.932 504.206 162.551 499.86 161.711C505.099 162.33 508.963 164.388 509.845 169.418Z" fill="#E0E0E0"/>
<path d="M302.354 182.369C302.354 196.518 292.456 209.517 276.047 219.033C259.664 228.534 236.964 234.443 211.836 234.443C186.709 234.443 164.009 228.534 147.625 219.033C131.216 209.517 121.319 196.518 121.319 182.369C121.319 168.219 131.216 155.22 147.625 145.704C164.009 136.203 186.709 130.294 211.836 130.294C236.964 130.294 259.664 136.203 276.047 145.704C292.456 155.22 302.354 168.219 302.354 182.369Z" stroke="#121212" stroke-width="2"/>
<path d="M303.354 187.981V207.437C303.354 236.749 262.38 260.512 211.836 260.512C161.293 260.512 120.319 236.749 120.319 207.437V190.365M284.197 226.012L311.631 242.139H314.968L385.036 278.1C388.867 280.015 395.157 286.441 389.671 296.822C384.184 307.202 373.667 303.124 369.095 299.788L304.773 258.822L303.354 254.187L284.197 244.141" stroke="#121212" stroke-width="2"/>
<path d="M293.644 182.368C293.644 194.475 284.752 205.649 269.906 213.854C255.095 222.039 234.567 227.134 211.836 227.134C189.106 227.134 168.577 222.039 153.766 213.854C138.92 205.649 130.029 194.475 130.029 182.368C130.029 170.261 138.92 159.087 153.766 150.883C168.577 142.697 189.106 137.603 211.836 137.603C234.567 137.603 255.095 142.697 269.906 150.883C284.752 159.087 293.644 170.261 293.644 182.368Z" stroke="#121212" stroke-width="2"/>
<path d="M62.6169 307.916C71.8708 304.096 79.6867 300.312 87.3974 294.225C88.9613 292.99 90.5133 291.873 92.1676 290.755C93.4376 289.897 95.036 290.092 96.4423 289.516C100.588 287.82 104.074 284.774 108.337 283.043C111.284 281.845 113.978 279.856 116.948 278.551C121.974 276.344 126.493 273.305 131.631 271.241C139.799 267.959 153.61 260.948 161.638 257.327" stroke="black" stroke-width="2" stroke-linecap="round"/>
<path d="M64.8469 303.456C70.2209 303.456 75.1942 309.597 79.3435 312.501C86.4415 317.47 93.3166 321.836 99.6945 327.741C105.227 332.864 111.675 336.57 117.815 340.937C127.02 347.483 135.945 354.384 145.167 360.916C151.917 365.698 159.28 369.706 166.354 373.988C176.578 380.176 186.745 385.861 197.794 390.684C203.64 393.235 209.841 397.291 216.225 398.273C219.019 398.703 224.756 398.689 226.54 400.472" stroke="black" stroke-width="2" stroke-linecap="round"/>
<path d="M343.07 319.626C339.254 319.626 335.228 323.456 332.228 325.511C325.611 330.045 318.962 335.936 312.992 341.309C299.774 353.205 281.601 358.207 267.799 369.249" stroke="black" stroke-width="2" stroke-linecap="round"/>
<path d="M266.684 369.806C248.921 378.447 230.806 386.541 212.91 394.865C204.203 398.915 197.03 404.161 189.183 409.392" stroke="black" stroke-width="2" stroke-linecap="round"/>
<path d="M242.833 263.993C245.147 265.353 246.926 267.107 248.904 268.887C251.572 271.288 254.795 272.918 257.453 275.33C262.913 280.282 268.419 284.65 274.459 288.928C286.764 297.644 299.506 305.657 311.63 314.638C316.289 318.09 321.267 320.528 326.003 323.807C329.069 325.93 332.812 329.029 336.379 330.219" stroke="black" stroke-width="2" stroke-linecap="round"/>
<path d="M67.127 308.531C67.5002 321.032 68.0979 333.585 67.1001 346.056C66.7913 349.917 66.1579 353.491 66.1579 357.443C66.1579 361.846 66.0623 366.259 66.1579 370.661C66.2143 373.254 67.127 375.759 67.127 378.306" stroke="black" stroke-width="2" stroke-linecap="round"/>
<path d="M59.8591 370.554C65.3488 370.554 69.7351 374.884 73.8033 378.091C80.1043 383.058 86.6114 388.103 94.0199 391.201C101.998 394.537 109.342 400.057 116.901 404.257C123.677 408.021 129.843 412.367 136.714 415.886C143.866 419.549 151.27 423.709 157.765 428.484C165.136 433.904 173.123 438.74 180.404 444.313C187.742 449.929 194.828 456.031 202.586 461.057C208.276 464.743 213.91 468.666 220.03 471.448C222.649 472.639 226.139 474.139 228.483 475.701" stroke="black" stroke-width="2" stroke-linecap="round"/>
<path d="M206.193 390.42C206.193 407.714 207.969 425.022 208.131 442.321C208.247 454.736 208.616 467.184 208.616 479.577" stroke="black" stroke-width="2" stroke-linecap="round"/>
<path d="M341.383 388.966C340.533 389.016 340.1 389.287 339.391 389.774C336.169 391.986 332.932 394.164 329.78 396.477C323.176 401.325 316.561 406.089 309.86 410.798C299.387 418.158 289.262 425.861 278.176 432.307C270.755 436.621 263.278 440.671 255.617 444.501C244.303 450.158 233.16 456.34 221.968 462.241C216.998 464.862 212.657 468.835 207.647 471.34" stroke="black" stroke-width="2" stroke-linecap="round"/>
<path d="M332.348 321.614C332.348 345.668 331.864 369.745 331.864 393.812" stroke="black" stroke-width="2" stroke-linecap="round"/>
<path d="M119.07 325.713C118.146 325.713 120.885 325.342 121.758 325.041C124.701 324.029 127.436 322.862 130.226 321.479C136.85 318.199 143.516 314.712 149.75 310.726C155.458 307.077 161.192 303.552 166.988 300.024C171.862 297.057 176.715 293.916 181.908 291.539C190.266 287.712 198.201 282.884 206.59 279.156C209.543 277.844 212.316 276.217 215.209 274.771C216.777 273.987 218.42 273.269 219.897 272.318C220.827 271.718 221.63 270.671 222.803 270.671" stroke="black" stroke-width="2" stroke-linecap="round"/>
<path d="M134.494 337.206C135.197 337.206 135.602 337.062 136.241 336.685C139.051 335.028 141.712 333.073 144.457 331.308C147.708 329.218 150.716 326.753 153.984 324.705C156.785 322.95 159.84 321.66 162.586 319.816C166.002 317.522 169.602 315.632 173.07 313.448C174.414 312.602 176.189 311.585 177.741 311.197" stroke="black" stroke-width="2" stroke-linecap="round"/>
<path d="M192.863 301.52C195.788 301.52 198.392 300.368 201.079 299.302C204.134 298.09 206.426 295.565 208.875 293.405C210.609 291.875 212.612 290.791 214.537 289.557C216.204 288.489 218.025 287.668 219.628 286.499C221.153 285.388 222.44 283.982 224.131 283.105C225.299 282.5 226.428 281.84 227.642 281.358C228.997 280.82 230.605 280.448 231.876 279.812C232.598 279.451 233.472 278.884 234.296 278.838C235.024 278.797 235.124 278.233 235.808 278.233" stroke="black" stroke-width="2" stroke-linecap="round"/>
<path d="M164.737 351.722C170.077 349.052 174.561 345.487 179.489 342.179C185.24 338.318 190.892 334.767 197.113 331.745C199.626 330.525 201.936 328.912 204.456 327.73C206.22 326.902 208.142 326.585 209.933 325.848C215.161 323.695 220.528 321.88 225.76 319.732C229.861 318.048 234.29 316.256 238.16 314.087C242.291 311.771 246.034 308.825 250.173 306.526C254.014 304.392 258.137 302.745 262.069 300.78C263.761 299.933 266.561 298.182 267.563 296.68" stroke="black" stroke-width="2" stroke-linecap="round"/>
<path d="M256.07 345.674C256.641 344.438 258.422 343.435 259.431 342.633C261.899 340.671 264.386 338.701 267.025 336.971C269.082 335.622 271.216 334.309 273.175 332.821C276.668 330.165 280.561 328.098 284.566 326.318C287.765 324.897 291.357 324.141 294.328 322.219C296.963 320.514 300.447 320.028 302.947 318.153" stroke="black" stroke-width="2" stroke-linecap="round"/>
<path d="M201.331 374.707C206.043 374.344 209.88 369.358 213.596 366.978C215.95 365.47 218.18 363.807 220.585 362.374C222.661 361.138 224.796 360.279 226.802 359.048C228.496 358.008 230.47 357.362 231.876 355.956" stroke="black" stroke-width="2" stroke-linecap="round"/>
<path d="M185.302 362.611C187.231 362.408 189.494 360.924 191.149 360.023C193.359 358.82 195.547 357.372 197.534 355.823C199.656 354.166 202.338 353.053 204.355 351.421C205.748 350.293 207.601 349.06 209.261 348.396C210.573 347.872 211.343 347.064 212.521 346.279" stroke="black" stroke-width="2" stroke-linecap="round"/>
<path d="M222.803 338.416C222.9 337.981 223.303 337.9 223.677 337.761C225.34 337.145 226.926 336.339 228.516 335.56C232.82 333.452 237.248 331.587 241.487 329.343C244.04 327.992 246.928 327.261 249.417 326.017" stroke="black" stroke-width="2" stroke-linecap="round"/>
<path d="M254.558 319.665C256.502 319.665 258.168 318.218 259.7 317.178C261.993 315.622 264.128 314.304 266.756 313.381C268.242 312.86 269.77 312.35 271.192 311.667C275.397 309.651 280.138 307.812 284.499 306.358" stroke="black" stroke-width="2" stroke-linecap="round"/>
<path d="M148.029 340.506H148.628" stroke="black" stroke-width="2" stroke-linecap="round"/>
<path d="M154.219 346.097H154.818" stroke="black" stroke-width="2" stroke-linecap="round"/>
<path d="M207.934 305.86H209.132" stroke="black" stroke-width="2" stroke-linecap="round"/>
<path d="M215.622 310.653H216.022" stroke="black" stroke-width="2" stroke-linecap="round"/>
<path d="M97.3959 309.618C97.521 309.868 99.2363 308.381 99.4133 308.267C100.643 307.475 101.947 306.762 103.208 306.019C104.845 305.053 106.498 304.22 108.203 303.379C110.066 302.461 112.132 301.477 114.13 300.9C117.26 299.996 120.231 298.586 123.275 297.425C126.55 296.176 129.915 295.157 133.024 293.524C134.549 292.722 136.016 291.795 137.512 290.937C138.568 290.332 139.748 289.632 140.711 288.893C144.937 285.657 149.607 283.353 154.344 280.984" stroke="black" stroke-width="2" stroke-linecap="round"/>
<path d="M281.236 39.0789C281.236 37.1527 282.2 35.1871 282.886 33.4488C284.587 29.1391 286.185 24.7899 287.892 20.4828C289.089 17.4651 290.076 13.7422 291.997 11.0668C292.651 10.1556 292.794 12.2372 292.829 12.4258C293.559 16.3526 293.62 20.3162 293.73 24.2963C293.859 28.9431 293.709 33.9438 295.464 38.3301" stroke="black" stroke-width="2" stroke-linecap="round"/>
<path d="M285.729 29.3444H295.714" stroke="black" stroke-width="2" stroke-linecap="round"/>
<path d="M302.703 26.5984C301.906 26.8971 302.551 30.7304 302.703 31.3965C303.091 33.102 303.717 35.2611 305.199 36.3194C306.598 37.3189 307.384 37.3318 309.082 37.3318C311.426 37.3318 312.374 35.6131 312.438 33.338C312.497 31.21 312.631 29.0801 312.687 26.959C312.698 26.5532 312.687 26.2145 312.687 26.9312C312.687 29.1464 312.614 31.3742 312.701 33.5876C312.743 34.665 313.455 36.2207 314.31 36.9435C315 37.528 316.089 37.3318 316.931 37.3318" stroke="black" stroke-width="2" stroke-linecap="round"/>
<path d="M330.409 28.3463C328.123 27.5547 325.652 26.4183 323.171 26.3494C322.874 26.3412 321.988 26.2014 321.812 26.5297C321.133 27.79 321.673 30.4248 321.673 31.8409C321.673 32.945 321.442 33.9442 322.477 34.5866C323.272 35.0797 324.188 35.3355 325.112 35.3355C327.147 35.3355 327.904 35.279 328.815 33.2554C331.114 28.1461 331.907 23.2247 331.907 17.6546C331.907 17.1473 331.583 14.1163 331.547 14.2016C330.67 16.2322 330.59 18.8568 330.298 21.0105C329.866 24.2013 329.678 27.3748 329.661 30.5928C329.655 31.6282 329.213 33.7315 330.16 34.4757C330.552 34.784 331.461 35.518 331.658 35.9595C331.944 36.605 333.535 36.3339 334.154 36.3339" stroke="black" stroke-width="2" stroke-linecap="round"/>
<path d="M336.65 25.6003C336.65 28.3864 335.441 36.5833 339.77 36.5833C342.565 36.5833 343.883 35.2087 345.262 32.8114C346.31 30.9881 346.927 28.6974 347.508 26.682C348.194 24.3007 349.122 21.7822 349.353 19.3045C349.439 18.3706 349.856 15.3413 349.325 14.4787C349.042 14.0187 349.135 15.5472 349.131 16.0873C349.119 17.6957 349.131 19.3047 349.131 20.9132C349.131 23.6418 348.811 26.5995 349.38 29.289C349.934 31.9018 351.576 34.3368 354.373 34.3368C355.621 34.3368 356.869 34.3368 358.117 34.3368" stroke="black" stroke-width="2" stroke-linecap="round"/>
<path d="M344.388 23.1041C344.977 22.5804 346.364 22.6382 347.106 22.494C348.16 22.2889 349.313 22.238 350.379 22.1195C351.611 21.9826 352.432 22.0038 353.624 21.6064" stroke="black" stroke-width="2" stroke-linecap="round"/>
<path d="M338.148 20.1088C337.576 20.1088 337.648 20.3543 337.648 20.8576" stroke="black" stroke-width="2" stroke-linecap="round"/>
<path d="M251.862 121.639C248.602 109.518 253.341 96.2977 258.464 85.3524C261.517 78.8297 265.11 73.1051 271.108 68.9638C275.34 66.0421 279.969 64.1404 284.784 62.4518C288.352 61.2001 294.19 60.8505 294.19 55.8674" stroke="black" stroke-width="2" stroke-linecap="round"/>
<path d="M287.154 57.5679C287.854 57.5679 288.257 57.2389 288.867 56.8362C290.119 56.0097 291.437 54.6471 292.85 54.1172C293.272 53.9589 293.598 53.292 294.122 53.5933C294.618 53.8786 295.046 54.5957 295.353 55.0402C296.026 56.0165 296.736 57.0429 297.307 58.0835C297.644 58.6969 297.799 59.2761 298.38 59.6633" stroke="black" stroke-width="2" stroke-linecap="round"/>
</svg>
