<svg width="609" height="490" viewBox="0 0 609 490" fill="none" xmlns="http://www.w3.org/2000/svg">
<path d="M42.9574 343.336V450.222" stroke="black" stroke-width="2" stroke-linecap="round"/>
<path d="M112.79 377.54V478.725" stroke="black" stroke-width="2" stroke-linecap="round"/>
<path d="M176.208 345.474V448.797" stroke="black" stroke-width="2" stroke-linecap="round"/>
<path d="M111.171 479.318C111.894 479.283 112.475 479.052 113.135 478.788C115.236 477.948 117.294 477.261 119.314 476.199C123.955 473.761 128.6 471.3 133.319 469.019C141.134 465.242 148.904 461.29 156.333 456.795C160.69 454.159 165.493 452.017 169.549 448.921C171.243 447.628 173.607 446.855 175.103 445.36" stroke="black" stroke-width="2" stroke-linecap="round"/>
<path d="M112.79 377.294C113.512 377.26 114.093 377.029 114.753 376.765C116.854 375.924 118.912 375.237 120.933 374.175C125.574 371.737 130.218 369.276 134.937 366.995C142.752 363.218 150.522 359.266 157.952 354.771C162.308 352.135 167.111 349.993 171.167 346.897C172.861 345.605 175.225 344.831 176.721 343.336" stroke="black" stroke-width="2" stroke-linecap="round"/>
<path d="M45.1033 343.336C45.8255 343.301 46.4068 343.07 47.0668 342.806C49.1679 341.966 51.2258 341.279 53.2463 340.217C57.8871 337.779 62.5318 335.318 67.2511 333.037C75.0659 329.26 82.8359 325.308 90.2652 320.813C94.6217 318.177 99.4244 316.035 103.481 312.939C105.175 311.646 107.539 310.873 109.034 309.378" stroke="black" stroke-width="2" stroke-linecap="round"/>
<path d="M114.733 479.318C113.923 479.283 113.271 479.052 112.531 478.788C110.174 477.948 107.866 477.261 105.6 476.199C100.396 473.761 95.1867 471.3 89.8941 469.019C81.1298 465.242 72.4158 461.29 64.0839 456.795C59.1981 454.159 53.8119 452.017 49.2627 448.921C47.363 447.628 44.7112 446.855 43.0342 445.36" stroke="black" stroke-width="2" stroke-linecap="round"/>
<path d="M112.918 377.294C112.108 377.26 111.456 377.029 110.716 376.765C108.36 375.924 106.052 375.237 103.786 374.175C98.5809 371.737 93.3719 369.276 88.0793 366.995C79.315 363.218 70.601 359.266 62.2691 354.771C57.3833 352.135 51.9971 349.993 47.4479 346.897C45.5483 345.605 42.8965 344.831 41.2194 343.336" stroke="black" stroke-width="2" stroke-linecap="round"/>
<path d="M178.986 343.336C178.176 343.301 177.524 343.07 176.784 342.806C174.428 341.966 172.12 341.279 169.854 340.217C164.649 337.779 159.44 335.318 154.147 333.037C145.383 329.26 136.669 325.308 128.337 320.813C123.451 318.177 118.065 316.035 113.516 312.939C111.616 311.646 108.965 310.873 107.288 309.378" stroke="black" stroke-width="2" stroke-linecap="round"/>
<path d="M431.892 343.336V450.222" stroke="black" stroke-width="2" stroke-linecap="round"/>
<path d="M501.724 377.54V478.725" stroke="black" stroke-width="2" stroke-linecap="round"/>
<path d="M565.143 345.474V448.797" stroke="black" stroke-width="2" stroke-linecap="round"/>
<path d="M500.106 479.318C500.828 479.283 501.409 479.052 502.069 478.788C504.17 477.948 506.228 477.261 508.249 476.199C512.89 473.761 517.534 471.3 522.254 469.019C530.068 465.242 537.838 461.29 545.268 456.795C549.624 454.159 554.427 452.017 558.483 448.921C560.177 447.628 562.542 446.855 564.037 445.36" stroke="black" stroke-width="2" stroke-linecap="round"/>
<path d="M501.724 377.294C502.446 377.26 503.028 377.029 503.688 376.765C505.789 375.924 507.847 375.237 509.867 374.175C514.508 371.737 519.153 369.276 523.872 366.995C531.687 363.218 539.457 359.266 546.886 354.771C551.242 352.135 556.045 349.993 560.101 346.897C561.795 345.605 564.16 344.831 565.655 343.336" stroke="black" stroke-width="2" stroke-linecap="round"/>
<path d="M434.038 343.336C434.76 343.301 435.341 343.07 436.001 342.806C438.102 341.966 440.16 341.279 442.181 340.217C446.821 337.779 451.466 335.318 456.185 333.037C464 329.26 471.77 325.308 479.199 320.813C483.556 318.177 488.359 316.035 492.415 312.939C494.109 311.646 496.473 310.873 497.969 309.378" stroke="black" stroke-width="2" stroke-linecap="round"/>
<path d="M503.667 479.318C502.857 479.283 502.205 479.052 501.465 478.788C499.109 477.948 496.801 477.261 494.535 476.199C489.33 473.761 484.121 471.3 478.828 469.019C470.064 465.242 461.35 461.29 453.018 456.795C448.132 454.159 442.746 452.017 438.197 448.921C436.297 447.628 433.646 446.855 431.968 445.36" stroke="black" stroke-width="2" stroke-linecap="round"/>
<path d="M501.852 377.294C501.042 377.26 500.39 377.029 499.65 376.765C497.294 375.924 494.986 375.237 492.72 374.175C487.515 371.737 482.306 369.276 477.014 366.995C468.249 363.218 459.535 359.266 451.203 354.771C446.318 352.135 440.931 349.993 436.382 346.897C434.483 345.605 431.831 344.831 430.154 343.336" stroke="black" stroke-width="2" stroke-linecap="round"/>
<path d="M567.921 343.336C567.111 343.301 566.459 343.07 565.719 342.806C563.363 341.966 561.055 341.279 558.789 340.217C553.584 337.779 548.375 335.318 543.082 333.037C534.318 329.26 525.604 325.308 517.272 320.813C512.386 318.177 507 316.035 502.451 312.939C500.551 311.646 497.9 310.873 496.222 309.378" stroke="black" stroke-width="2" stroke-linecap="round"/>
<path d="M209.6 227.691V372.034" stroke="black" stroke-width="2" stroke-linecap="round"/>
<path d="M308.779 273.882V410.527" stroke="black" stroke-width="2" stroke-linecap="round"/>
<path d="M398.85 230.579V370.111" stroke="black" stroke-width="2" stroke-linecap="round"/>
<path d="M306.481 411.327C307.506 411.28 308.332 410.968 309.269 410.612C312.253 409.477 315.176 408.549 318.046 407.115C324.637 403.822 331.233 400.499 337.936 397.418C349.035 392.318 360.07 386.981 370.621 380.91C376.809 377.351 383.63 374.458 389.391 370.278C391.796 368.532 395.154 367.488 397.278 365.468" stroke="black" stroke-width="2" stroke-linecap="round"/>
<path d="M308.779 273.549C309.805 273.503 310.631 273.191 311.568 272.835C314.552 271.7 317.475 270.772 320.344 269.338C326.935 266.045 333.532 262.722 340.235 259.641C351.333 254.54 362.369 249.204 372.92 243.133C379.107 239.574 385.928 236.681 391.689 232.501C394.095 230.755 397.453 229.711 399.577 227.691" stroke="black" stroke-width="2" stroke-linecap="round"/>
<path d="M212.648 227.69C213.674 227.644 214.499 227.332 215.437 226.975C218.421 225.841 221.343 224.912 224.213 223.479C230.804 220.186 234.69 220.521 241.393 217.44" stroke="black" stroke-width="2" stroke-linecap="round"/>
<path d="M308.961 273.549C307.811 273.503 306.885 273.191 305.834 272.835C302.487 271.7 299.209 270.772 295.991 269.338C288.599 266.045 281.201 262.722 273.684 259.641C261.237 254.54 248.861 249.204 237.028 243.133C230.089 239.574 222.439 236.681 215.978 232.501C213.28 230.755 209.514 229.711 207.132 227.691" stroke="black" stroke-width="2" stroke-linecap="round"/>
<path d="M402.794 227.691C402.471 227.681 402.211 227.611 401.916 227.531C400.977 227.278 400.057 227.07 399.154 226.75C397.08 226.014 395.004 225.271 392.895 224.582C389.402 223.442 385.929 222.249 382.609 220.892C380.662 220.096 378.515 219.45 376.702 218.515C375.945 218.125 374.888 217.892 374.22 217.44" stroke="black" stroke-width="2" stroke-linecap="round"/>
<path d="M311.538 411.327C310.388 411.28 309.462 410.968 308.411 410.612C305.064 409.477 301.786 408.549 298.568 407.115C291.176 403.822 283.778 400.499 276.261 397.418C263.814 392.318 251.438 386.981 239.605 380.91C232.666 377.351 225.016 374.458 218.555 370.278C215.857 368.532 212.091 367.488 209.709 365.468" stroke="black" stroke-width="2" stroke-linecap="round"/>
<path d="M308.779 247.358C309.805 247.312 310.631 247 311.568 246.644C314.552 245.509 317.475 244.581 320.344 243.147C326.935 239.854 333.532 236.53 340.235 233.45C351.333 228.349 362.369 223.012 372.92 216.942C379.107 213.383 385.928 210.49 391.689 206.31C394.095 204.564 397.453 203.52 399.577 201.5" stroke="black" stroke-width="2" stroke-linecap="round"/>
<path d="M205.987 203.527C206.387 203.512 206.709 203.412 207.074 203.299C208.238 202.937 209.377 202.641 210.496 202.184C213.067 201.135 215.639 200.075 218.253 199.094C222.581 197.468 226.884 195.767 230.998 193.832C233.411 192.698 236.071 191.776 238.317 190.443C239.255 189.887 240.565 189.554 241.393 188.91" stroke="black" stroke-width="2" stroke-linecap="round"/>
<path d="M308.961 247.358C307.811 247.312 306.885 247 305.834 246.644C302.487 245.509 299.209 244.581 295.991 243.147C288.599 239.854 281.201 236.53 273.684 233.45C261.237 228.349 248.861 223.012 237.028 216.942C230.089 213.383 222.439 210.49 215.978 206.31C213.28 204.564 209.514 203.52 207.132 201.5" stroke="black" stroke-width="2" stroke-linecap="round"/>
<path d="M402.794 201.5C402.424 201.487 402.125 201.402 401.787 201.304C400.71 200.992 399.654 200.737 398.618 200.344C396.238 199.44 393.857 198.527 391.437 197.682C387.429 196.281 383.445 194.816 379.635 193.15C377.401 192.173 374.938 191.379 372.858 190.231C371.99 189.752 370.777 189.465 370.01 188.911" stroke="black" stroke-width="2" stroke-linecap="round"/>
<path d="M308.496 220.398C309.456 220.352 310.228 220.04 311.105 219.684C313.897 218.549 316.631 217.621 319.316 216.187C325.482 212.894 331.654 209.571 337.924 206.49C348.308 201.389 358.632 196.053 368.503 189.982C374.291 186.423 380.673 183.53 386.062 179.35C388.313 177.604 391.455 176.56 393.442 174.54" stroke="black" stroke-width="2" stroke-linecap="round"/>
<path d="M212.329 176.567C212.704 176.552 213.005 176.452 213.347 176.339C214.435 175.977 215.502 175.681 216.549 175.224C218.953 174.175 221.36 173.115 223.805 172.134C227.854 170.508 231.88 168.807 235.729 166.872C237.986 165.738 240.475 164.816 242.576 163.483C243.454 162.927 244.679 162.594 245.454 161.95" stroke="black" stroke-width="2" stroke-linecap="round"/>
<path d="M308.667 220.398C307.591 220.352 306.725 220.04 305.741 219.684C302.61 218.549 299.544 217.621 296.533 216.187C289.617 212.894 282.696 209.571 275.664 206.49C264.019 201.389 252.441 196.053 241.37 189.982C234.878 186.423 227.722 183.53 221.677 179.35C219.153 177.604 215.63 176.56 213.401 174.54" stroke="black" stroke-width="2" stroke-linecap="round"/>
<path d="M396.452 174.54C396.105 174.527 395.826 174.442 395.51 174.344C394.502 174.032 393.515 173.777 392.545 173.384C390.319 172.48 388.091 171.567 385.827 170.722C382.077 169.321 378.35 167.856 374.786 166.19C372.696 165.213 370.392 164.418 368.446 163.271C367.633 162.792 366.499 162.505 365.781 161.95" stroke="black" stroke-width="2" stroke-linecap="round"/>
<path d="M308.362 191.174C309.29 191.128 310.038 190.816 310.886 190.459C313.586 189.325 316.231 188.396 318.828 186.963C324.793 183.67 330.762 180.346 336.828 177.266C346.872 172.165 356.858 166.828 366.407 160.758C372.006 157.199 378.179 154.306 383.392 150.125C385.569 148.38 388.608 147.335 390.53 145.316" stroke="black" stroke-width="2" stroke-linecap="round"/>
<path d="M215.34 147.342C215.702 147.328 215.993 147.228 216.324 147.115C217.377 146.753 218.408 146.457 219.421 146C221.747 144.951 224.075 143.891 226.44 142.91C230.357 141.284 234.251 139.583 237.974 137.648C240.158 136.514 242.565 135.592 244.598 134.259C245.446 133.703 246.632 133.37 247.381 132.726" stroke="black" stroke-width="2" stroke-linecap="round"/>
<path d="M308.527 191.174C307.486 191.128 306.648 190.816 305.697 190.459C302.668 189.325 299.702 188.396 296.79 186.963C290.1 183.67 283.406 180.346 276.603 177.266C265.339 172.165 254.139 166.828 243.431 160.758C237.151 157.199 230.228 154.306 224.382 150.125C221.94 148.38 218.532 147.335 216.376 145.316" stroke="black" stroke-width="2" stroke-linecap="round"/>
<path d="M393.441 145.316C393.106 145.303 392.836 145.217 392.53 145.12C391.555 144.808 390.6 144.553 389.662 144.16C387.509 143.256 385.353 142.343 383.163 141.498C379.537 140.097 375.931 138.632 372.484 136.966C370.462 135.988 368.233 135.194 366.351 134.047C365.565 133.567 364.468 133.281 363.774 132.726" stroke="black" stroke-width="2" stroke-linecap="round"/>
<path d="M308.361 165.645C309.289 165.599 310.036 165.287 310.885 164.93C313.585 163.795 316.23 162.867 318.827 161.434C324.791 158.141 330.761 154.817 336.826 151.737C346.87 146.636 356.857 141.299 366.405 135.229C372.005 131.669 378.177 128.777 383.391 124.596C385.568 122.851 388.607 121.806 390.529 119.787" stroke="black" stroke-width="2" stroke-linecap="round"/>
<path d="M215.861 122.999C216.841 122.954 217.63 122.688 218.525 122.384C221.373 121.415 224.164 120.621 226.902 119.402C233.19 116.604 239.484 113.78 245.879 111.159C256.471 106.819 267 102.282 277.063 97.1319C282.963 94.112 289.473 91.648 294.963 88.1096C297.256 86.632 300.463 85.7376 302.485 84.0319" stroke="black" stroke-width="2" stroke-linecap="round"/>
<path d="M308.526 165.645C307.485 165.599 306.647 165.287 305.696 164.93C302.667 163.795 299.701 162.867 296.788 161.434C290.099 158.141 283.404 154.817 276.602 151.737C265.338 146.636 254.138 141.299 243.429 135.229C237.15 131.669 230.227 128.777 224.38 124.596C221.939 122.851 218.531 121.806 216.375 119.787" stroke="black" stroke-width="2" stroke-linecap="round"/>
<path d="M393.441 119.788C392.385 119.752 391.536 119.509 390.571 119.231C387.501 118.346 384.493 117.622 381.54 116.504C374.758 113.937 367.97 111.345 361.074 108.944C349.653 104.966 338.298 100.805 327.441 96.0721C321.074 93.2967 314.055 91.0412 308.128 87.7817C305.652 86.4205 302.197 85.6063 300.011 84.0317" stroke="black" stroke-width="2" stroke-linecap="round"/>
<path d="M224.747 269.873C224.747 273.564 223.992 277.426 223.657 281.11C223.278 285.279 223.48 289.427 223.006 293.595C222.561 297.516 222.978 301.359 222.285 305.254C221.904 307.399 222.355 309.647 221.881 311.778C221.713 312.534 220.987 315.631 221.898 316.087" stroke="black" stroke-width="2" stroke-linecap="round"/>
<path d="M237.409 317.669C238.821 317.826 238.602 324.74 238.675 325.776C239.129 332.244 238.992 338.728 238.992 345.208C238.992 348.643 238.992 352.078 238.992 355.513C238.992 356.607 238.313 362.436 239.308 362.934" stroke="black" stroke-width="2" stroke-linecap="round"/>
<path d="M251.336 295.829C251.336 305.615 251.637 315.3 252.602 324.95" stroke="black" stroke-width="2" stroke-linecap="round"/>
<path d="M279.824 344.259V376.862" stroke="black" stroke-width="2" stroke-linecap="round"/>
<path d="M287.104 302.159C287.104 321.151 287.104 340.143 287.104 359.135C287.104 361.292 287.104 363.449 287.104 365.607C287.104 366.58 287.693 367.191 287.737 367.998C287.79 368.941 287.737 369.903 287.737 370.847" stroke="black" stroke-width="2" stroke-linecap="round"/>
<path d="M321.607 292.03C322.617 292.156 321.923 311.185 321.923 314.996C321.923 316.468 321.923 317.939 321.923 319.41C321.923 319.944 321.923 320.477 321.923 321.01C321.923 321.941 322.873 322.3 322.873 323.367" stroke="black" stroke-width="2" stroke-linecap="round"/>
<path d="M349.145 310.073V349.007" stroke="black" stroke-width="2" stroke-linecap="round"/>
<path d="M333.951 360.085V388.256" stroke="black" stroke-width="2" stroke-linecap="round"/>
<path d="M358.008 295.512V327.799" stroke="black" stroke-width="2" stroke-linecap="round"/>
<path d="M380.799 248.032V315.137" stroke="black" stroke-width="2" stroke-linecap="round"/>
<path d="M141.535 371.861V403.871" stroke="black" stroke-width="2" stroke-linecap="round"/>
<path d="M139.915 405.898C140.016 405.089 141.706 404.331 142.256 403.782C143.042 402.995 144.275 402.456 145.182 401.801C146.487 400.859 148.015 400.125 149.437 399.415" stroke="black" stroke-width="2" stroke-linecap="round"/>
<path d="M134.242 375.508C137.144 375.508 139.92 373.565 142.436 372.368C144.711 371.285 146.728 369.424 149.133 368.665C149.764 368.466 150.352 368.069 150.889 367.674C151.81 366.997 152.688 366.442 153.737 365.986C153.849 365.937 154.386 365.508 154.457 365.513C154.542 365.52 154.783 367.507 154.795 367.562C155.188 369.435 155.872 371.256 155.92 373.19C155.93 373.577 155.907 373.766 156.123 374.09" stroke="black" stroke-width="2" stroke-linecap="round"/>
<path d="M148.424 377.534C149.479 377.534 150.548 376.992 151.53 376.678C155.826 375.305 159.829 373.618 163.798 371.467C165.969 370.291 168.151 369.047 170.394 368.012C171.272 367.606 172.146 367.177 172.735 366.391" stroke="black" stroke-width="2" stroke-linecap="round"/>
<path d="M95.3433 391.716C95.3935 395.081 96.0737 398.386 96.1424 401.755C96.1889 404.035 96.4424 406.188 96.7164 408.441C97.0736 411.378 96.7615 414.518 96.7615 417.468C96.7615 421.791 96.5589 426.092 96.5589 430.412" stroke="black" stroke-width="2" stroke-linecap="round"/>
<path d="M94.5332 445.606V463.637" stroke="black" stroke-width="2" stroke-linecap="round"/>
<path d="M64.5489 419.269C66.7583 419.435 68.9711 420.656 70.987 421.498C73.4475 422.525 75.8062 423.7 78.213 424.841C81.1221 426.219 83.9779 427.647 87.0709 428.589C89.1494 429.221 91.2136 429.947 93.2727 430.66C93.7669 430.831 94.2584 430.993 94.7696 431.121C95.1859 431.225 95.6191 431.251 96.0415 431.324C96.8604 431.465 96.6821 431.252 96.7618 430.615" stroke="black" stroke-width="2" stroke-linecap="round"/>
<path d="M87.2393 397.186C88.6702 397.186 89.7246 397.837 90.9874 398.48C93.5631 399.792 96.0756 400.588 98.8774 401.305C101.49 401.975 104.049 403.229 106.689 403.669" stroke="black" stroke-width="2" stroke-linecap="round"/>
<path d="M92.1017 389.487C93.5634 389.56 94.7871 390.168 96.0636 390.815C97.087 391.334 98.2087 391.559 99.1926 392.121" stroke="black" stroke-width="2" stroke-linecap="round"/>
<path d="M78.9332 434.058C79.5485 435.751 79.1358 438.102 79.1358 439.889C79.1358 440.849 79.1358 441.81 79.1358 442.77" stroke="black" stroke-width="2" stroke-linecap="round"/>
<path d="M63.9411 427.372C65.0583 427.372 65.9986 427.993 66.9463 428.543C71.948 431.445 76.7634 434.542 82.096 436.838C84.7669 437.988 87.5109 438.995 90.3237 439.731C91.0686 439.926 91.8582 439.906 92.5072 440.339" stroke="black" stroke-width="2" stroke-linecap="round"/>
<path d="M78.3253 454.926C82.1454 455.073 85.8793 456.856 89.2881 458.426C90.2452 458.867 91.2729 459.44 92.3045 459.698C92.8696 459.839 93.3918 459.777 93.9253 459.991" stroke="black" stroke-width="2" stroke-linecap="round"/>
<path d="M470.222 369.087V402.19" stroke="black" stroke-width="2" stroke-linecap="round"/>
<path d="M462.296 397.994C466.955 399.574 471.192 402.28 475.817 403.822" stroke="black" stroke-width="2" stroke-linecap="round"/>
<path d="M439.217 363.958C441.824 364.298 444.277 365.31 446.651 366.392C451.152 368.445 455.593 370.626 460.25 372.311C461.972 372.935 463.697 373.47 465.508 373.749C465.911 373.811 466.318 373.866 466.492 374.215" stroke="black" stroke-width="2" stroke-linecap="round"/>
<path d="M457.168 363.491C457.168 366.301 456.701 369.069 456.701 371.884" stroke="black" stroke-width="2" stroke-linecap="round"/>
<path d="M456.701 365.357C459.02 365.357 460.679 365.887 462.737 367.092C468.061 370.21 474.04 374.193 480.247 375.148" stroke="black" stroke-width="2" stroke-linecap="round"/>
<path d="M517.313 388.202V428.067" stroke="black" stroke-width="2" stroke-linecap="round"/>
<path d="M516.847 428.533C516.847 427.774 518.261 427.582 518.764 427.393C523.885 425.47 528.979 423.386 533.839 420.866C536.128 419.679 538.522 418.395 540.651 416.929C541.216 416.539 541.576 416.135 542.205 415.893C542.539 415.764 542.832 415.435 543.138 415.245C543.703 414.894 544.404 414.864 544.951 414.494C545.288 414.266 546.087 414.113 546.22 413.846" stroke="black" stroke-width="2" stroke-linecap="round"/>
<path d="M518.246 442.054V460.937" stroke="black" stroke-width="2" stroke-linecap="round"/>
<path d="M519.178 457.44C523.53 455.756 527.52 452.806 531.34 450.175C531.886 449.798 532.702 449.048 533.399 449.048" stroke="black" stroke-width="2" stroke-linecap="round"/>
<path d="M506.123 400.791C510.353 400.453 514.617 397.823 518.22 395.831C519.903 394.901 521.946 393.106 523.84 392.632" stroke="black" stroke-width="2" stroke-linecap="round"/>
<path d="M471.142 448.405C471.142 450.346 471.019 452.265 471.019 454.2" stroke="black" stroke-width="2" stroke-linecap="round"/>
<path d="M455.852 448.898C456.097 448.898 456.352 448.892 456.592 448.953C456.958 449.045 457.465 449.259 457.784 449.391C459.846 450.244 461.893 451.134 463.949 452.001C470.03 454.565 476.067 457.29 482.24 459.626" stroke="black" stroke-width="2" stroke-linecap="round"/>
<path d="M471.019 447.171C471.044 447.4 471.135 447.546 471.32 447.692C473.507 449.413 476.256 450.615 478.732 451.816C483.667 454.209 489.149 456.851 494.694 457.406" stroke="black" stroke-width="2" stroke-linecap="round"/>
<path d="M456.401 340.192C462.998 342.483 469.445 345.381 475.831 348.2C478.473 349.366 480.998 350.788 483.707 351.799C487.43 353.19 491.365 354 495.076 355.399C498.141 356.554 501.404 357.138 504.426 358.347C505.357 358.72 506.499 359.008 507.321 359.556" stroke="black" stroke-width="2" stroke-linecap="round"/>
<path d="M503.496 360.991C505.707 359.8 507.671 358.172 509.765 356.794C513.709 354.199 517.221 351.254 520.868 348.267C524.307 345.451 528.024 343.625 531.892 341.494C533.517 340.598 535.024 339.388 536.846 338.984C537.221 338.9 538.071 338.499 538.4 338.28" stroke="black" stroke-width="2" stroke-linecap="round"/>
<path d="M454.727 340.909C457.035 340.554 459.222 338.938 461.341 338.04C465.236 336.391 468.959 334.318 472.418 331.878C476.155 329.241 480.085 326.71 484.039 324.414C485.642 323.483 487.219 322.346 488.913 321.598C489.968 321.133 491.182 320.72 492.154 320.097C493.773 319.061 495.86 318.036 497.759 317.72" stroke="black" stroke-width="2" stroke-linecap="round"/>
<path d="M497.759 317.72C502.224 319.136 506.051 322.197 509.978 324.626C513.521 326.818 517.401 328.606 521.054 330.629C523.121 331.774 525.652 333.417 528.107 333.724C529.488 333.897 530.776 334.693 532.131 334.693C533.507 334.693 534.219 334.935 535.292 335.65" stroke="black" stroke-width="2" stroke-linecap="round"/>
<path d="M62.6248 341.881C63.6906 342.662 65.6642 343.246 66.4453 343.566C83.0896 350.39 99.7706 357.126 116.434 363.903" stroke="black" stroke-width="2" stroke-linecap="round"/>
<path d="M112.279 363.903C113.183 363.326 114.197 362.989 115.188 362.587C118.345 361.307 121.448 359.946 124.468 358.363C130.277 355.315 135.81 351.762 141.596 348.667C145.41 346.627 149.072 344.081 153 342.296" stroke="black" stroke-width="2" stroke-linecap="round"/>
<path d="M62.2097 345.205C62.5517 345.395 63.289 344.999 63.4909 344.916C66.2765 343.775 68.9453 342.271 71.5588 340.796C82.6546 334.53 93.3204 327.611 104.673 321.797C107.354 320.425 110.047 318.525 112.903 317.573" stroke="black" stroke-width="2" stroke-linecap="round"/>
<path d="M107.708 320.481C117.215 323.458 125.786 329.069 135.086 332.624C137.447 333.526 139.893 334.229 142.381 334.678C143.142 334.816 143.872 334.893 144.574 335.232C147.329 336.562 149.745 338.3 152.376 339.803" stroke="black" stroke-width="2" stroke-linecap="round"/>
<path d="M481.672 242.797C479.989 245.79 469.187 255.292 468.205 256.377C467.223 257.461 466.073 258.453 465.1 259.36C463.94 260.445 463.024 261.679 461.49 262.296C461.279 262.402 461.049 262.461 460.813 262.471C460.578 262.481 460.343 262.44 460.125 262.352C459.91 262.24 459.751 262.053 459.545 261.941C459.339 261.829 458.797 261.763 458.507 261.539C458.217 261.314 458.067 260.604 457.646 260.276C457.446 260.176 457.236 260.095 457.02 260.033C456.636 259.865 456.393 259.238 456.234 258.874C456.15 258.677 456.075 258.238 455.776 258.275C454.994 258.464 454.226 258.705 453.475 258.995C451.727 259.566 450.595 259.687 450.342 258.836C449.978 257.648 451.352 257.349 453.466 256.451C455.58 255.554 460.012 253.702 459.816 253.216C459.62 252.729 458.151 251.878 457.562 250.793C456.973 249.708 457.169 248.334 457.964 248.923C458.413 249.278 460.153 250.157 460.92 250.597C461.686 251.036 463.071 251.869 464.015 251.532C464.96 251.195 474.471 239.374 474.471 239.374C474.471 239.374 482.065 223.111 483.954 219.782C485.843 216.452 487.358 214.554 490.5 214.442L490.893 220.446L490.079 227.217C490.079 227.217 483.028 240.366 481.672 242.797Z" fill="#FFA8A7"/>
<path d="M491.501 214.32C491.501 214.32 488.424 213.544 486.451 215.695C484.478 217.845 483.645 219.501 481.981 222.952C480.316 226.403 475.762 236.25 475.762 236.25C476.65 237.479 477.844 238.454 479.225 239.081C480.606 239.707 482.126 239.963 483.636 239.823L491.95 224.093L491.501 214.32Z" fill="#263238"/>
<path d="M485.478 229.442C485.977 231.843 486.168 234.297 486.049 236.746C485.834 239.963 483.543 245.864 483.543 245.864C483.543 245.864 485.348 247.501 490.248 246.734C494.241 246.108 492.829 234.071 490.538 231.771C489.209 230.379 487.4 229.547 485.478 229.442Z" fill="#37474F"/>
<path d="M513.104 332.165C513.392 333.755 513.545 335.366 513.563 336.982C513.619 339.9 514.161 340.938 514.227 343.332C514.311 346.072 513.834 347.073 512.721 348.644C511.608 350.215 508.7 351.58 507.465 348.971C506.231 346.362 506.39 344.669 506.782 341.976C507.175 339.282 507.241 337.664 507.474 335.551C507.69 333.68 507.933 332.259 507.933 332.259L513.104 332.165Z" fill="#263238"/>
<path d="M504.818 309.197L514.441 309.019C514.292 315.444 513.272 326.143 513.104 332.166C513.104 333.297 513.104 340.985 512.711 343.314C512.066 346.821 507.904 346.353 507.68 344.249C507.455 342.144 507.951 333.185 507.932 332.259C507.932 328.397 506.156 318.306 505.211 311.367C505.164 311.068 504.818 309.524 504.818 309.197Z" fill="#FFA8A7"/>
<path d="M490.669 327.172C490.669 327.172 491.165 327.172 491.249 327.602C491.333 328.032 491.361 328.846 491.557 329.641C491.886 330.881 492.003 332.168 491.903 333.447C491.735 334.382 489.687 335.682 488.293 335.916C486.607 336.425 485.069 337.336 483.814 338.572C482.053 340.027 479.875 340.882 477.595 341.013C475.257 341.013 473.629 340.236 472.853 338.983C472.077 337.73 473.555 337.58 476.229 335.85L478.305 334.504C482.533 331.698 484.085 330.258 485.282 327.49L490.669 327.172Z" fill="#263238"/>
<path d="M485.254 325.666C485.319 323.674 484.319 309.019 484.319 309.019L492.595 309.955C490.641 321.635 490.482 325.61 490.725 327.312C490.769 327.47 490.788 327.634 490.781 327.798C490.781 330.071 488.209 331.296 486.208 332.811C484.673 334.178 482.918 335.275 481.017 336.056C479.474 336.58 476.631 336.776 476.266 335.841C478.99 333.914 481.557 331.775 483.944 329.444C484.833 328.434 485.179 327.649 485.254 325.666Z" fill="#FFA8A7"/>
<path d="M507.55 239.851C510.38 243.564 512.437 247.806 513.6 252.327C516.331 263.362 512.039 286.929 512.039 286.929C512.179 288.529 514.012 291.68 514.695 298.722C515.499 307.046 513.208 329.332 513.208 329.332C512.399 329.829 511.473 330.102 510.525 330.121C509.576 330.141 508.639 329.907 507.811 329.444C507.811 329.444 501.985 296.712 500.947 288.426C500.012 281.206 498.141 266.205 498.141 266.205L493.97 288.388C493.97 288.388 494.55 292.438 494.849 295.515C495.326 300.387 490.585 324.815 490.585 324.815C489.731 325.168 488.814 325.342 487.89 325.324C486.966 325.306 486.056 325.098 485.217 324.712C485.217 324.712 483.113 293.149 482.673 287.304C482.224 281.271 483.786 267.206 484.946 256.002C485.292 252.635 487.003 242.217 487.602 239.327L507.55 239.851Z" fill="#455A64"/>
<path opacity="0.6" d="M498.178 266.242L497.187 259.406C494.33 259.231 491.563 258.336 489.144 256.806C490.82 258.878 493.233 260.219 495.878 260.547L496.504 266.663L494.531 285.741L498.178 266.242Z" fill="#263238"/>
<path d="M487.143 232.557C487.246 234.567 487.639 239.346 487.639 239.346C495.831 244.892 507.549 239.851 507.549 239.851L509.251 228.199C509.251 228.199 504.977 222.213 508.99 215.901L502.583 214.638L494.943 214.011L490.5 214.414C487.994 216.284 486.329 220.025 485.525 222.045C484.739 223.764 484.474 225.675 484.761 227.543C485.049 229.411 485.877 231.154 487.143 232.557Z" fill="#BA68C8"/>
<g opacity="0.6">
<path d="M487.143 232.557C487.246 234.567 487.639 239.346 487.639 239.346C495.831 244.892 507.549 239.851 507.549 239.851L509.251 228.199C509.251 228.199 504.977 222.213 508.99 215.901L502.583 214.638L494.943 214.011L490.5 214.414C487.994 216.284 486.329 220.025 485.525 222.045C484.739 223.764 484.474 225.675 484.761 227.543C485.049 229.411 485.877 231.154 487.143 232.557Z" fill="white"/>
</g>
<path d="M503.229 214.432C503.229 214.432 510.252 215.04 511.646 215.695C513.039 216.35 515.312 220.315 513.264 226.085C511.216 231.855 509.345 238.608 509.523 239.973C509.701 241.338 514.629 248.39 514.629 248.39C513.276 249.388 511.747 250.121 510.122 250.55L507.625 245.051L508.214 250.877C505.679 251.485 503.076 251.759 500.47 251.691C500.47 251.691 498.104 229.349 503.229 214.432Z" fill="#37474F"/>
<path d="M470.02 238.186L490.772 239.589L501.321 262.979L481.495 261.146L470.02 238.186Z" fill="#BA68C8"/>
<path opacity="0.1" d="M470.02 238.186L490.772 239.589L501.321 262.979L481.495 261.146L470.02 238.186Z" fill="black"/>
<path opacity="0.15" d="M489.229 254.375C489.529 255.16 490.034 255.849 490.693 256.371C491.351 256.892 492.137 257.227 492.97 257.34C494.826 257.491 496.69 257.142 498.366 256.33L497.477 254.375H489.229Z" fill="black"/>
<path opacity="0.15" d="M476.491 240.627L476.183 239.907C476.005 239.505 477.165 239.262 478.764 239.365L481.813 239.561C483.412 239.664 484.843 240.066 485.011 240.496L485.32 241.217L476.491 240.627Z" fill="black"/>
<path d="M474.574 238.046C474.462 237.803 474.92 237.644 475.593 237.691L476.8 237.794C476.8 237.794 476.145 236.232 478.811 236.307C479.51 236.278 480.206 236.429 480.83 236.747C481.454 237.065 481.986 237.538 482.374 238.121L483.674 238.233C484.235 238.232 484.779 238.431 485.207 238.794L485.441 239.234L474.752 238.514L474.574 238.046Z" fill="#F0F0F0"/>
<path d="M476.126 238.588C477.108 238.635 477.52 238.691 477.782 239.299C478.043 239.907 478.249 240.524 478.249 240.524L482.981 240.852C482.981 240.852 482.579 239.963 482.439 239.617C482.299 239.271 482.439 239.019 483.168 239.075V238.775L475.762 238.336L476.126 238.588Z" fill="#E0E0E0"/>
<path d="M476.379 240.721L476.07 240.001C475.902 239.599 477.052 239.356 478.652 239.458L481.71 239.655C483.3 239.758 484.73 240.16 484.908 240.59L485.207 241.31L476.379 240.721Z" fill="#F5F5F5"/>
<path d="M502.528 213.338H485.301V197.982C485.301 194.646 486.626 191.447 488.985 189.088C491.344 186.729 494.544 185.403 497.88 185.403C501.211 185.411 504.403 186.739 506.756 189.098C509.109 191.456 510.43 194.651 510.43 197.982V205.389C510.435 207.491 509.606 209.508 508.124 210.999C506.642 212.489 504.629 213.331 502.528 213.338Z" fill="#263238"/>
<path d="M488.724 192.773C487.994 193.072 486.479 194.362 486.451 201.853C486.451 208.194 488.434 209.821 489.453 210.27C490.473 210.719 492.474 210.532 494.419 210.27L494.372 213.394C492.73 216.286 492.183 219.671 492.829 222.933C496.813 219.856 502.789 214.628 502.789 214.628L502.976 205.828C502.976 205.828 504.089 206.969 506.062 205.332C507.699 203.986 508.298 201.648 507.091 200.348C506.775 200.045 506.392 199.82 505.973 199.692C505.554 199.564 505.111 199.535 504.679 199.609C504.248 199.682 503.839 199.856 503.487 200.116C503.134 200.376 502.847 200.715 502.649 201.105C498.497 201.105 496.71 196.476 496.439 193.624C494.971 194.68 490.968 195.56 488.724 192.773Z" fill="#FFA8A7"/>
<path d="M490.996 198.309C495.186 197.692 496.439 193.633 496.439 193.633C496.439 193.633 498.899 187.087 492.352 186.703C482.29 186.067 483.29 198.337 483.29 198.337L490.996 198.309Z" fill="#263238"/>
<path d="M493.652 200.254C493.645 200.409 493.684 200.561 493.764 200.694C493.843 200.826 493.96 200.932 494.099 200.999C494.239 201.065 494.395 201.089 494.547 201.067C494.7 201.046 494.844 200.979 494.959 200.877C495.074 200.774 495.157 200.64 495.197 200.49C495.236 200.341 495.231 200.183 495.181 200.037C495.131 199.891 495.04 199.763 494.918 199.668C494.795 199.574 494.648 199.517 494.494 199.506C494.39 199.5 494.285 199.514 494.186 199.548C494.087 199.583 493.996 199.636 493.918 199.705C493.84 199.775 493.776 199.859 493.73 199.953C493.685 200.048 493.658 200.15 493.652 200.254Z" fill="#263238"/>
<path d="M493.596 205.894L491.435 206.52C491.471 206.664 491.536 206.8 491.625 206.918C491.713 207.037 491.825 207.137 491.953 207.212C492.081 207.287 492.223 207.336 492.37 207.355C492.518 207.374 492.667 207.364 492.81 207.325C493.099 207.232 493.342 207.032 493.488 206.765C493.634 206.499 493.672 206.187 493.596 205.894Z" fill="#F28F8F"/>
<path d="M487.255 198.31L488.92 197.253C488.855 197.145 488.77 197.051 488.669 196.977C488.568 196.903 488.453 196.85 488.331 196.821C488.208 196.792 488.082 196.788 487.958 196.809C487.834 196.83 487.716 196.876 487.61 196.944C487.385 197.08 487.221 197.299 487.155 197.555C487.088 197.81 487.124 198.081 487.255 198.31Z" fill="#263238"/>
<path d="M494.438 197.467L496.13 198.402C496.195 198.295 496.238 198.175 496.255 198.051C496.273 197.927 496.265 197.8 496.233 197.679C496.201 197.558 496.144 197.444 496.067 197.345C495.99 197.246 495.894 197.163 495.784 197.102C495.555 196.981 495.289 196.95 495.039 197.018C494.789 197.086 494.574 197.246 494.438 197.467Z" fill="#263238"/>
<path d="M487.63 200.105C487.619 200.21 487.63 200.315 487.661 200.415C487.691 200.516 487.741 200.609 487.808 200.69C487.875 200.771 487.958 200.838 488.051 200.887C488.144 200.936 488.245 200.966 488.35 200.975C488.562 200.985 488.769 200.911 488.927 200.769C489.084 200.627 489.179 200.429 489.191 200.217C489.202 200.113 489.191 200.007 489.161 199.907C489.13 199.807 489.08 199.713 489.013 199.632C488.946 199.552 488.863 199.485 488.77 199.436C488.678 199.387 488.576 199.357 488.471 199.348C488.259 199.337 488.052 199.411 487.895 199.553C487.737 199.695 487.642 199.893 487.63 200.105Z" fill="#263238"/>
<path d="M491.501 199.665L491.407 204.781L488.938 203.948L491.501 199.665Z" fill="#F28F8F"/>
<path d="M494.456 210.505C496.467 210.299 500.629 209.223 501.311 207.605C501.03 208.426 500.505 209.14 499.806 209.654C498.552 210.673 494.438 211.758 494.438 211.758L494.456 210.505Z" fill="#F28F8F"/>
<path d="M491.576 251.148C492.967 250.976 494.321 250.581 495.588 249.979C494.815 249.866 494.058 249.662 493.334 249.371C493.002 249.248 492.729 249.004 492.57 248.689C492.41 248.373 492.376 248.009 492.473 247.669C492.586 247.388 493.268 247.725 494.503 247.669C495.932 247.458 497.385 247.458 498.814 247.669C499.441 247.8 500.292 248.23 500.843 247.912C504.981 245.354 508.98 242.579 512.824 239.598L509.176 228.694C508.313 226.6 507.954 224.334 508.126 222.076C508.298 219.818 508.997 217.633 510.168 215.694C512.646 216.124 514.563 216.629 516.415 223.176C518.36 230.096 521.091 239.074 520.941 241.936C520.791 244.798 513.338 247.734 507.736 250.521C505.37 251.7 501.461 253.944 499.927 254.739C494.624 257.498 492.053 257.236 490.21 255.441C487.264 252.588 488.387 251.55 491.576 251.148Z" fill="#FFA8A7"/>
<path d="M509.841 215.246C514.863 215.554 515.452 219.426 516.883 223.26C518.239 226.833 519.997 236.25 519.997 236.25C519.997 236.25 516.322 239.944 512.384 238.981L508.896 228.049C508.896 228.049 504.744 219.604 509.841 215.246Z" fill="#263238"/>
<path d="M131.258 247.104C133.094 247.512 136.602 247.882 136.602 247.882L139.119 242.547L133.473 239.933L131.258 247.104Z" fill="#FFA8A7"/>
<path d="M117.519 243.12C121.952 245.408 126.799 246.786 131.773 247.172L134.805 242.605L119.569 232.334L117.519 243.12Z" fill="#BA68C8"/>
<path opacity="0.3" d="M117.519 243.12C121.952 245.408 126.799 246.786 131.773 247.172L134.805 242.605L119.569 232.334L117.519 243.12Z" fill="black"/>
<path d="M130.821 247.094L133.386 247.473L135.33 241.643C135.33 241.643 132.813 240.438 132.745 240.477C132.677 240.516 130.821 247.094 130.821 247.094Z" fill="#BA68C8"/>
<path opacity="0.4" d="M130.821 247.094L133.386 247.473L135.33 241.643C135.33 241.643 132.813 240.438 132.745 240.477C132.677 240.516 130.821 247.094 130.821 247.094Z" fill="black"/>
<path d="M96.8214 210.763C95.5763 210.597 94.3103 210.817 93.1946 211.394C92.0789 211.971 91.1673 212.877 90.5832 213.989C89.6941 216.06 89.3592 218.327 89.6115 220.567C90.1945 225.708 94.0521 236.93 94.0521 236.93L96.8214 210.763Z" fill="#BA68C8"/>
<path opacity="0.4" d="M96.8214 210.763C95.5763 210.597 94.3103 210.817 93.1946 211.394C92.0789 211.971 91.1673 212.877 90.5832 213.989C89.6941 216.06 89.3592 218.327 89.6115 220.567C90.1945 225.708 94.0521 236.93 94.0521 236.93L96.8214 210.763Z" fill="black"/>
<path d="M91.2829 331.456C90.8359 331.621 90.5833 332.428 90.389 334.488C90.2724 335.751 89.8351 337.403 91.759 338.442C92.4635 338.806 93.2462 338.992 94.0388 338.983C94.8315 338.975 95.61 338.772 96.3065 338.394C97.9778 337.364 98.8135 335.479 100.767 333.914C102.486 332.574 104.653 331.582 106.023 329.134C107.393 326.685 107.189 325.062 104.342 325.062C99.7754 325.062 98.4054 327.579 96.0539 327.628C94.781 327.657 91.759 331.291 91.2829 331.456Z" fill="#263238"/>
<path d="M91.2827 330.446V332.506C91.2827 333.478 95.5581 335.003 96.7533 332.71C96.8408 332.516 97.3072 329.698 97.3072 329.698L91.2827 330.446Z" fill="#FFA8A7"/>
<path d="M111.115 343.408C111.115 343.408 110.309 343.408 109.988 346.721C109.862 347.985 109.56 350.608 109.988 351.512C110.416 352.415 112.757 352.862 115.381 353.096C117.354 353.409 119.239 354.138 120.91 355.233C122.618 356.206 124.541 356.737 126.507 356.778C128.984 356.778 131.083 356.535 132.852 355.136C133.823 354.398 134.98 352.833 134.105 351.648C133.742 351.293 133.282 351.054 132.784 350.958C131.686 350.54 130.568 350.161 129.451 349.811C127.771 349.309 126.13 348.682 124.544 347.936C122.231 346.789 119.685 345.516 117.907 343.573L111.115 343.408Z" fill="#263238"/>
<path d="M111.125 341.697C111.125 341.697 111.125 343.223 111.125 344.088C111.125 344.953 112.096 346.264 114.798 346.187C116.673 346.128 117.975 345.633 117.907 344.088V341.863L111.125 341.697Z" fill="#FFA8A7"/>
<path d="M90.1266 303.19C90.6037 299.555 91.4335 295.975 92.6044 292.501C92.6044 292.501 91.9242 283.27 91.6327 274.515C91.3637 265.549 91.6136 256.575 92.3809 247.638C92.3809 247.638 122.124 244.82 122.61 255.742C123.096 266.664 122.386 294.464 122.008 299.264C121.629 304.064 121.23 308.563 120.22 317.483C119.345 325.179 117.926 341.863 117.926 341.863C116.866 342.396 115.69 342.66 114.504 342.629C113.317 342.599 112.156 342.275 111.125 341.688C111.125 341.688 108.89 319.281 108.627 313.742C108.297 306.571 109.968 302.607 109.968 302.607C109.968 302.607 109.337 298.098 108.229 288.809C107.452 282.25 106.412 274.787 106.412 274.787C106.412 274.787 105.44 284.028 104.78 289.178C104.206 293.959 103.235 297.738 101.796 306.668C100.553 314.442 97.1616 330.746 97.1616 330.746C96.2781 331.304 95.2439 331.576 94.2004 331.523C93.1568 331.471 92.1549 331.098 91.3315 330.455C91.3315 330.455 89.1549 309.894 90.1266 303.19Z" fill="#263238"/>
<path d="M106.412 274.817L105.003 265.683C105.003 265.683 99.1732 263.846 96.2582 260.397C96.2582 260.397 97.8226 264.41 103.215 266.567L105.382 274.253L105.752 280.598L106.412 274.817Z" fill="black"/>
<path d="M111.289 208.072L109.9 217.828L101.126 217.527L101.971 206.129L111.289 208.072Z" fill="#FFA8A7"/>
<path d="M117.596 196.032C117.596 196.032 119.947 199.481 119.695 199.831C119.091 200.169 118.433 200.399 117.751 200.511L117.596 196.032Z" fill="#F28F8F"/>
<path d="M113.913 195.459C113.896 194.879 114.052 194.307 114.361 193.817C114.671 193.326 115.12 192.939 115.651 192.704C116.182 192.47 116.77 192.4 117.341 192.502C117.912 192.605 118.44 192.875 118.857 193.279C119.273 193.683 119.559 194.202 119.679 194.77C119.799 195.338 119.747 195.928 119.529 196.466C119.311 197.004 118.938 197.464 118.456 197.789C117.975 198.113 117.408 198.286 116.828 198.287C116.451 198.293 116.076 198.225 115.725 198.086C115.374 197.948 115.054 197.741 114.784 197.478C114.513 197.216 114.296 196.902 114.147 196.555C113.998 196.209 113.918 195.836 113.913 195.459ZM114.545 195.459C114.551 195.902 114.688 196.332 114.938 196.697C115.189 197.061 115.543 197.343 115.954 197.506C116.365 197.67 116.815 197.708 117.248 197.615C117.68 197.522 118.076 197.303 118.384 196.986C118.692 196.668 118.898 196.266 118.978 195.831C119.057 195.396 119.006 194.947 118.83 194.541C118.654 194.135 118.362 193.79 117.99 193.551C117.618 193.311 117.183 193.187 116.741 193.195C116.151 193.205 115.59 193.448 115.179 193.87C114.767 194.292 114.54 194.86 114.545 195.449V195.459Z" fill="#263238"/>
<path d="M111.057 186.471C115.721 187.384 117.101 189.386 117.655 196.79C118.238 204.515 117.489 206.954 116.489 208.013C115.818 208.723 112.009 208.907 110.075 208.412C107.666 207.79 102.205 205.944 99.591 202.105C96.5302 197.577 95.646 191.417 98.8136 188.803C103.264 185.15 109.152 186.102 111.057 186.471Z" fill="#FFA8A7"/>
<path d="M111.222 208.606C113.224 208.83 115.935 208.606 116.488 208.013C114.778 208.001 113.084 207.672 111.494 207.042L111.222 208.606Z" fill="#F28F8F"/>
<path d="M118.383 188.337L118.237 188.483C117.266 189.386 116.119 189.969 115.157 190.824C114.105 191.773 113.355 193.01 113 194.381C112.699 195.508 112.592 196.839 111.377 197.373C111.377 197.373 110.561 194.4 108.054 194.818C105.547 195.236 105.226 198.472 106.859 200.405C108.491 202.339 109.968 201.571 109.968 201.571C109.968 201.571 109.968 205.847 108.103 208.295C106.087 208.766 103.987 208.746 101.981 208.237C99.542 207.761 96.0536 204.768 94.5475 201.571C91.3798 194.769 91.0689 188.677 95.3929 186.763C95.8204 183.614 98.308 182.167 101.077 181.477C105.275 180.447 109.259 182.886 113.418 181.885C114.271 181.621 115.137 181.401 116.012 181.224C116.11 181.195 116.215 181.195 116.313 181.224C116.537 181.331 116.527 181.632 116.469 181.865C116.255 182.707 115.845 183.486 115.274 184.139C116.873 184.206 118.471 183.975 119.986 183.459C120.091 184.34 120.002 185.233 119.725 186.076C119.448 186.918 118.99 187.69 118.383 188.337Z" fill="#263238"/>
<path d="M96.0151 188.337L93.2264 186.685C93.3317 186.501 93.4722 186.339 93.6401 186.209C93.8079 186.079 93.9997 185.983 94.2045 185.927C94.4093 185.871 94.6231 185.856 94.8338 185.883C95.0444 185.909 95.2477 185.977 95.4321 186.083C95.6165 186.188 95.7784 186.328 95.9084 186.496C96.0385 186.664 96.1342 186.856 96.1902 187.061C96.2461 187.266 96.2612 187.479 96.2345 187.69C96.2078 187.901 96.1398 188.104 96.0346 188.288L96.0151 188.337Z" fill="#263238"/>
<path d="M111.426 199.025L111.29 195.799C111.502 195.79 111.713 195.823 111.913 195.896C112.112 195.968 112.295 196.08 112.451 196.223C112.607 196.367 112.733 196.539 112.822 196.732C112.912 196.924 112.962 197.132 112.971 197.344C112.98 197.556 112.947 197.767 112.874 197.966C112.802 198.165 112.69 198.348 112.547 198.504C112.403 198.66 112.231 198.787 112.038 198.876C111.846 198.965 111.638 199.016 111.426 199.025Z" fill="#263238"/>
<path d="M119.365 194.779L110.726 196.032L111.086 196.635L119.374 195.43L119.365 194.779Z" fill="#263238"/>
<path d="M91.4383 216.137C92.4586 212.134 93.9064 210.832 97.3947 210.734C99.191 210.857 100.979 211.084 102.749 211.415C103.118 213.115 107.491 214.262 111.912 213.358C113.233 213.737 116.77 214.689 117.81 215.088C120.948 216.225 122.464 219.48 122.668 229.799C122.668 229.799 123.271 254.285 122.668 258.512C116.108 261.058 108.969 261.731 102.049 260.456C92.6335 258.347 91.516 254.431 91.516 254.431C91.516 254.431 92.0116 244.607 92.3322 237.135C91.8561 232.374 91.1468 228.798 90.8942 224.999C90.659 222.034 90.8422 219.051 91.4383 216.137Z" fill="#BA68C8"/>
<g opacity="0.6">
<path d="M91.4383 216.137C92.4586 212.134 93.9064 210.832 97.3947 210.734C99.191 210.857 100.979 211.084 102.749 211.415C103.118 213.115 107.491 214.262 111.912 213.358C113.233 213.737 116.77 214.689 117.81 215.088C120.948 216.225 122.464 219.48 122.668 229.799C122.668 229.799 123.271 254.285 122.668 258.512C116.108 261.058 108.969 261.731 102.049 260.456C92.6335 258.347 91.516 254.431 91.516 254.431C91.516 254.431 92.0116 244.607 92.3322 237.135C91.8561 232.374 91.1468 228.798 90.8942 224.999C90.659 222.034 90.8422 219.051 91.4383 216.137Z" fill="white"/>
</g>
<path d="M101.767 208.888L101.699 209.859C101.699 209.859 102.156 211.19 104.818 211.686C109.298 212.512 110.862 211.122 110.862 211.122L110.979 210.316C110.979 210.316 111.406 210.141 112.135 210.705C113.242 211.847 114.278 213.058 115.235 214.329C115.235 214.329 114.38 214.076 111.581 215.301C108.786 216.391 105.705 216.507 102.836 215.631C102.037 215.365 101.322 214.894 100.762 214.265C100.203 213.636 99.8189 212.87 99.6488 212.045C99.5419 211.161 100.999 208.547 101.767 208.888Z" fill="#BA68C8"/>
<path opacity="0.25" d="M101.767 208.888L101.699 209.859C101.699 209.859 102.156 211.19 104.818 211.686C109.298 212.512 110.862 211.122 110.862 211.122L110.979 210.316C110.979 210.316 111.406 210.141 112.135 210.705C113.242 211.847 114.278 213.058 115.235 214.329C115.235 214.329 114.38 214.076 111.581 215.301C108.786 216.391 105.705 216.507 102.836 215.631C102.037 215.365 101.322 214.894 100.762 214.265C100.203 213.636 99.8189 212.87 99.6488 212.045C99.5419 211.161 100.999 208.547 101.767 208.888Z" fill="black"/>
<path d="M117.46 214.884C121.444 215.379 124.592 216.215 126.331 220.014C129.246 226.447 132.463 231.733 134.785 234.22C137.263 236.873 147.417 241.537 149.71 241.168C152.003 240.798 154.277 238.165 155.462 238.845C156.648 239.525 154.491 242.081 154.598 242.654C154.704 243.228 158.892 242.926 160.855 241.537C162.818 240.147 163.547 243.014 161.001 245.987C158.455 248.96 153.694 249.194 148.515 248.154C143.336 247.114 132.793 244.646 128.819 241.352C123.96 237.378 123.144 234.113 121.094 230.557C113.631 222.939 117.46 214.884 117.46 214.884Z" fill="#FFA8A7"/>
<path d="M116.877 214.776C116.877 214.776 121.143 214.776 123.378 216.136C125.613 217.497 127.021 220.422 128.868 224.444C130.548 227.829 132.581 231.027 134.931 233.986C135.903 235.191 142.996 239.136 142.996 239.136C142.614 241.667 141.912 244.138 140.907 246.492C140.907 246.492 133.775 244.704 129.48 242.401C125.185 240.098 118.655 230.877 118.655 230.877C118.655 230.877 114.059 224.775 116.877 214.776Z" fill="#BA68C8"/>
<path opacity="0.15" d="M116.877 214.776C116.877 214.776 121.143 214.776 123.378 216.136C125.613 217.497 127.021 220.422 128.868 224.444C130.548 227.829 132.581 231.027 134.931 233.986C135.903 235.191 142.996 239.136 142.996 239.136C142.614 241.667 141.912 244.138 140.907 246.492C140.907 246.492 133.775 244.704 129.48 242.401C125.185 240.098 118.655 230.877 118.655 230.877C118.655 230.877 114.059 224.775 116.877 214.776Z" fill="black"/>
<path d="M142.559 238.864C142.412 241.489 141.65 244.042 140.334 246.317C141.591 246.658 142.866 246.934 144.152 247.143C144.152 247.143 146.387 244.898 146.261 240.419L142.559 238.864Z" fill="#BA68C8"/>
<path opacity="0.3" d="M142.559 238.864C142.412 241.489 141.65 244.042 140.334 246.317C141.591 246.658 142.866 246.934 144.152 247.143C144.152 247.143 146.387 244.898 146.261 240.419L142.559 238.864Z" fill="black"/>
<path d="M144.726 240.934C144.723 241.052 144.675 241.164 144.592 241.247C144.509 241.331 144.397 241.379 144.279 241.381C144.17 241.365 144.071 241.311 144 241.228C143.928 241.145 143.889 241.039 143.889 240.929C143.889 240.82 143.928 240.714 144 240.631C144.071 240.548 144.17 240.493 144.279 240.477C144.398 240.48 144.512 240.529 144.595 240.615C144.679 240.7 144.726 240.815 144.726 240.934Z" fill="#455A64"/>
<circle cx="310.975" cy="119.788" r="3.33345" fill="#14213D"/>
<circle cx="268.327" cy="108.693" r="3.33345" fill="#14213D"/>
<circle cx="251.759" cy="126.454" r="3.33345" fill="#14213D"/>
<circle cx="296.678" cy="227.763" r="3.33345" fill="#14213D"/>
<circle cx="366.677" cy="199.552" r="3.33345" fill="#14213D"/>
<circle cx="386.402" cy="164.912" r="3.33345" fill="#14213D"/>
<circle cx="215.981" cy="168.246" r="3.33345" fill="#14213D"/>
<circle cx="347.635" cy="150.677" r="3.33345" fill="#14213D"/>
<circle cx="340.968" cy="164.912" r="3.33345" fill="#14213D"/>
<circle cx="268.327" cy="157.344" r="3.33345" fill="#14213D"/>
<circle cx="350.969" cy="121.123" r="3.33345" fill="#14213D"/>
<circle cx="301.796" cy="57.9678" r="46.3907" stroke="black" stroke-width="2"/>
<path d="M328.27 57.9678C328.27 70.9102 325.226 82.5783 320.358 90.9765C315.474 99.4004 308.876 104.358 301.796 104.358C294.715 104.358 288.117 99.4004 283.233 90.9765C278.365 82.5783 275.321 70.9102 275.321 57.9678C275.321 45.0254 278.365 33.3573 283.233 24.9591C288.117 16.5353 294.715 11.5771 301.796 11.5771C308.876 11.5771 315.474 16.5353 320.358 24.9591C325.226 33.3573 328.27 45.0254 328.27 57.9678Z" stroke="black" stroke-width="2"/>
<path d="M267.691 31.1081C280.11 38.5053 311.36 48.5877 337.002 29.7391" stroke="black" stroke-width="2"/>
<path d="M267.691 84.3553C280.11 76.958 311.36 66.8757 337.002 85.7242" stroke="black" stroke-width="2"/>
<path d="M301.251 14.1239V99.8721M257.966 60.0114H271.938M306.594 60.0114H345.906" stroke="black" stroke-width="2"/>
<path d="M258.435 29.9091C256.328 29.1387 254.411 28.4284 252.233 28.1562C251.614 28.0788 250.948 28.1504 250.325 28.1504C249.541 28.1504 248.664 28.2885 248.13 28.8229C246.909 30.0435 246.013 31.7603 245.733 33.4955C245.542 34.6818 245.345 35.9415 245.526 37.1508C245.766 38.7518 246.907 39.9386 247.906 41.128C248.345 41.6519 248.804 42.1429 249.354 42.5534C249.788 42.8772 250.179 43.0135 250.63 43.2661C251.203 43.5873 251.766 43.9302 252.331 44.2661C253.056 44.6971 253.872 44.9223 254.601 45.3639C255.663 46.0068 257.096 46.1877 258.245 46.68C259.658 47.2853 261.13 47.7934 262.619 48.1743C264.326 48.6112 265.943 49.397 267.642 49.8756C268.412 50.0926 269.11 50.59 269.849 50.9043C270.439 51.1555 271.021 51.4247 271.619 51.6573C272.556 52.0214 273.569 52.367 274.47 52.7722C275.399 53.1905 276.407 53.2796 277.367 53.5194C277.667 53.5944 277.939 53.7545 278.24 53.8298C278.618 53.9243 278.989 53.8936 279.344 54.0712C279.785 54.2919 280.208 54.2627 280.654 54.4275C281.053 54.5749 281.395 54.7109 281.821 54.7436C282.297 54.7802 282.695 55.08 283.16 55.1747C283.595 55.2632 284.031 55.4789 284.447 55.6287C285.468 55.9961 286.48 56.4896 287.459 56.9678C288.29 57.3739 289.284 57.4608 290.091 57.8644" stroke="black" stroke-width="2" stroke-linecap="round"/>
<path d="M317.196 67.4634C318.749 67.6852 320.32 68.709 321.737 69.3715C322.778 69.8586 323.71 70.2116 324.806 70.544C325.664 70.8043 326.481 71.1442 327.346 71.4003C328.594 71.7701 329.87 72.0751 331.105 72.4866C334.362 73.5722 337.599 74.6884 340.87 75.7396C342.747 76.343 344.508 77.1115 346.496 77.3144C347.573 77.4243 348.587 77.6018 349.675 77.6018C350.642 77.6018 351.61 77.6018 352.577 77.6018C353.333 77.6018 354.196 77.7232 354.91 77.4408C355.752 77.1082 356.664 76.7899 357.434 76.3144C359.8 74.8524 361.681 72.7964 361.681 69.8428" stroke="black" stroke-width="2" stroke-linecap="round"/>
<path d="M361.578 68.8065C361.431 67.8902 361.259 67.4791 360.394 67.0133C359.468 66.5144 358.472 66.2094 357.543 65.7029" stroke="black" stroke-width="2" stroke-linecap="round"/>
<path d="M357.129 65.5999C356.944 65.4649 356.604 65.3918 356.382 65.3125C356.058 65.1967 355.77 64.902 355.428 64.8757C354.735 64.8224 354.123 64.4619 353.405 64.4619" stroke="black" stroke-width="2" stroke-linecap="round"/>
<path d="M291.817 49.7958C292.298 49.9709 292.66 50.7903 292.918 51.184C293.558 52.1613 294.202 53.1461 294.789 54.1566C295.348 55.1194 295.899 56.159 296.253 57.2197C296.378 57.595 296.467 57.9496 296.641 58.3137C296.716 58.4693 296.811 58.6105 296.838 58.7852C296.877 59.0429 296.042 59.2703 295.891 59.3473C293.605 60.5122 291.758 62.1528 289.727 63.7006C289.185 64.1135 288.645 64.5564 288.078 64.9341C287.831 65.0992 287.547 65.2008 287.335 65.4132" stroke="black" stroke-width="2" stroke-linecap="round"/>
<path d="M228.595 378.558C224.494 378.873 220.218 381.395 216.664 383.248C212.894 385.214 209.283 387.381 205.35 389.008C200.449 391.036 195.095 386.058 190.086 385.223" stroke="black" stroke-width="2" stroke-linecap="round"/>
<path d="M243.407 385.964C238.865 386.652 233.999 390.1 230.076 392.279C224.109 395.594 218.07 398.805 212.179 402.256C207.019 405.28 202.214 409.137 196.669 411.472C195.92 411.787 192.349 413.18 192.966 413.55C195.806 415.254 199.497 416.137 202.511 417.643C205.129 418.953 207.431 420.428 209.711 422.251" stroke="black" stroke-width="2" stroke-linecap="round"/>
<path d="M263.032 393.368C263.248 393.455 262.743 393.752 262.538 393.862C260.918 394.731 259.199 395.425 257.519 396.166C254.159 397.648 250.881 399.295 247.521 400.774C244.073 402.291 240.73 404.34 237.482 406.246C235.205 407.582 232.514 408.035 230.282 409.455C229.44 409.991 228.086 411.142 227.114 411.142" stroke="black" stroke-width="2" stroke-linecap="round"/>
<path d="M224.522 412.993C228.218 413.083 231.524 413.857 234.808 415.585C237.205 416.847 239.27 418.949 241.699 420.029C243.721 420.927 238.121 422.706 236.083 423.567C225.553 428.015 215.606 433.091 206.008 439.283" stroke="black" stroke-width="2" stroke-linecap="round"/>
<path d="M282.783 401.383C278.928 401.383 274.983 403.828 271.614 405.372C266.783 407.585 262.421 410.468 257.903 413.232C256.359 414.177 254.883 415.073 253.53 416.275" stroke="black" stroke-width="2" stroke-linecap="round"/>
<path d="M321.775 407.654C332.777 408.61 342.628 414.923 352.842 418.637" stroke="black" stroke-width="2" stroke-linecap="round"/>
<path d="M339.034 398.24C343.113 398.24 346.217 399.208 349.843 401.099C356.873 404.766 363.486 409.14 370.414 412.989C373.29 414.586 376.273 416.132 379.444 417.068C380.666 417.428 381.462 417.931 379.654 418.654C376.615 419.87 373.656 420.853 370.745 422.385C368.756 423.432 367.061 424.879 365.079 425.924C364.502 426.228 363.856 426.576 363.336 426.97C363.143 427.117 363.142 427.226 363.371 427.389C364.941 428.503 367.067 429.228 368.81 429.934C373.132 431.684 377.775 433.627 382.338 434.641" stroke="black" stroke-width="2" stroke-linecap="round"/>
<path d="M359.745 390.709C360.498 390.709 361.203 390.806 361.941 390.988C367.584 392.381 373.015 394.627 378.346 396.898C385.566 399.973 392.907 403.55 400.539 405.458" stroke="black" stroke-width="2" stroke-linecap="round"/>
<path d="M371.356 383.177C372 383.177 372.641 383.258 373.273 383.386C379.359 384.618 385.13 387.188 391.02 389.087C398.464 391.487 406.245 393.175 413.405 396.357" stroke="black" stroke-width="2" stroke-linecap="round"/>
<path d="M401.167 407.026C400.189 407.134 398.902 408.17 398.029 408.595C396.886 409.15 395.079 409.331 394.246 410.303C393.99 410.601 393.353 410.609 393.008 410.791C391.429 411.627 395.302 413.122 395.501 413.232C404.29 418.108 412.678 423.66 421.564 428.364" stroke="black" stroke-width="2" stroke-linecap="round"/>
<path d="M392.067 423.972C393.492 424.191 394.959 425.076 396.234 425.663C400.319 427.543 404.324 429.545 408.245 431.747C410.57 433.053 412.931 434.205 415.323 435.373C415.855 435.633 416.268 435.896 416.857 435.896" stroke="black" stroke-width="2" stroke-linecap="round"/>
<path d="M390.497 373.45C397.168 374.006 404.286 375.695 410.371 378.54C412.469 379.521 414.311 381.678 416.543 382.236" stroke="black" stroke-width="2" stroke-linecap="round"/>
</svg>
