<svg width="272" height="192" viewBox="0 0 272 192" fill="none" xmlns="http://www.w3.org/2000/svg">
<g clip-path="url(#clip0_130_724)">
<path d="M0 184.28V146.98H23.51V152.77H5.89V162.39H20.2V168.05H5.89V178.5H23.51V184.29H0V184.28Z" fill="#122548"/>
<path d="M63.8601 180.86L71.4501 191.42H66.8401C65.9401 191.42 64.4901 191.42 64.4901 191.42C64.4901 191.42 63.5201 190.15 63.1401 189.63L54.4301 177.48L54.0901 177.04C55.3901 176.35 56.5801 175.43 57.6501 174.29C58.7201 173.15 59.5701 171.84 60.2001 170.35C60.8301 168.86 61.1501 167.3 61.1501 165.65C61.1501 163.15 60.5601 160.88 59.3801 158.85C58.2001 156.82 56.5901 155.22 54.5601 154.05C52.5301 152.89 50.2801 152.3 47.8101 152.3C45.3401 152.3 43.0901 152.88 41.0501 154.05C39.0101 155.21 37.4001 156.81 36.2301 158.85C35.0601 160.88 34.4701 163.15 34.4701 165.65C34.4701 168.15 35.0501 170.39 36.2201 172.43C37.3801 174.46 38.9601 176.06 40.9601 177.23C42.9601 178.39 45.1701 178.98 47.5801 178.98C49.0901 178.98 50.5201 178.66 51.8601 178.02L55.2701 183.26C54.2101 183.75 53.0201 184.12 51.7001 184.38C50.3801 184.64 49.0801 184.77 47.7901 184.77C44.2101 184.77 40.9601 183.93 38.0301 182.26C35.1001 180.58 32.7901 178.29 31.1101 175.38C29.4301 172.47 28.5801 169.23 28.5801 165.67C28.5801 162.11 29.4201 158.87 31.1101 155.95C32.8001 153.03 35.1001 150.73 38.0301 149.06C40.9601 147.38 44.2101 146.54 47.7901 146.54C51.3701 146.54 54.6301 147.38 57.5801 149.06C60.5201 150.74 62.8401 153.04 64.5301 155.95C66.2101 158.87 67.0601 162.11 67.0601 165.67C67.0601 167.77 66.7401 169.76 66.1101 171.64C65.4801 173.52 64.5701 175.22 63.3901 176.75C63.0301 177.31 62.5601 177.8 62.0101 178.22L63.8901 180.89L63.8601 180.86Z" fill="#122548"/>
<path d="M80.1799 174.49C80.9399 175.87 82.0199 176.94 83.4099 177.71C84.7999 178.47 86.4099 178.86 88.2299 178.86C90.0499 178.86 91.6899 178.48 93.0899 177.71C94.4899 176.95 95.5699 175.87 96.3399 174.49C97.1099 173.11 97.4899 171.51 97.4899 169.71V146.98H103.38V169.71C103.38 172.66 102.75 175.28 101.49 177.56C100.23 179.84 98.4499 181.61 96.1599 182.87C93.8699 184.13 91.2299 184.76 88.2399 184.76C85.2499 184.76 82.6399 184.13 80.3599 182.87C78.0699 181.61 76.2999 179.84 75.0399 177.56C73.7799 175.28 73.1499 172.67 73.1499 169.71V146.98H79.0399V169.71C79.0399 171.52 79.4199 173.11 80.1899 174.49H80.1799Z" fill="#122548"/>
<path d="M112.11 184.28V147.01H118V184.28H112.11Z" fill="#122548"/>
<path d="M127.98 146.98H142.53C144.89 146.98 147.01 147.48 148.89 148.48C150.77 149.48 152.24 150.87 153.3 152.65C154.36 154.43 154.89 156.44 154.89 158.68C154.89 160.92 154.36 162.93 153.3 164.71C152.24 166.49 150.77 167.88 148.89 168.88C147.01 169.88 144.89 170.38 142.53 170.38H133.88V184.27H127.99V146.97L127.98 146.98ZM142.53 164.68C143.76 164.68 144.88 164.42 145.87 163.91C146.86 163.4 147.63 162.68 148.18 161.77C148.73 160.86 149 159.83 149 158.68C149 157.53 148.73 156.51 148.18 155.6C147.63 154.7 146.87 153.99 145.89 153.48C144.91 152.97 143.79 152.71 142.54 152.71H133.89V164.67H142.54L142.53 164.68Z" fill="#122548"/>
<path d="M160.14 146.98H174.69C177.05 146.98 179.17 147.48 181.05 148.48C182.93 149.48 184.4 150.87 185.46 152.65C186.52 154.43 187.05 156.44 187.05 158.68C187.05 160.92 186.52 162.93 185.46 164.71C184.4 166.49 182.93 167.88 181.05 168.88C179.17 169.88 177.05 170.38 174.69 170.38H166.04V184.27H160.15V146.97L160.14 146.98ZM174.69 164.68C175.92 164.68 177.04 164.42 178.03 163.91C179.02 163.4 179.79 162.68 180.34 161.77C180.89 160.86 181.16 159.83 181.16 158.68C181.16 157.53 180.89 156.51 180.34 155.6C179.79 154.7 179.03 153.99 178.05 153.48C177.07 152.97 175.95 152.71 174.7 152.71H166.05V164.67H174.7L174.69 164.68Z" fill="#122548"/>
<path d="M192.31 146.98H206.86C209.22 146.98 211.34 147.48 213.22 148.48C215.1 149.48 216.57 150.87 217.63 152.65C218.69 154.43 219.22 156.44 219.22 158.68C219.22 160.92 218.69 162.93 217.63 164.71C216.57 166.49 215.1 167.88 213.22 168.88C211.34 169.88 209.22 170.38 206.86 170.38H198.21V184.27H192.32V146.97L192.31 146.98ZM206.86 164.68C208.09 164.68 209.21 164.42 210.2 163.91C211.19 163.4 211.96 162.68 212.51 161.77C213.06 160.86 213.33 159.83 213.33 158.68C213.33 157.53 213.06 156.51 212.51 155.6C211.96 154.7 211.2 153.99 210.22 153.48C209.24 152.97 208.12 152.71 206.87 152.71H198.22V164.67H206.87L206.86 164.68Z" fill="#122548"/>
<path opacity="0.38" d="M136.99 47.6798C136.77 47.4498 136.54 47.2198 136.31 46.9898H136.32C136.32 46.9898 136.33 46.9798 136.33 46.9898C136.56 47.2198 136.78 47.4498 136.99 47.6798Z" fill="#285953"/>
<path d="M133.27 60.75C134.18 59.95 135.1 59.14 136.14 58.24C132.11 57.58 128.25 56.94 124.32 56.29C124.45 60.31 124.58 64.22 124.72 68.26C125.77 67.34 126.68 66.54 127.56 65.77L133.28 60.75H133.27Z" fill="#122548"/>
<path d="M183.13 23.1299C183.13 23.1299 184.49 24.7499 186.03 27.0399C186.83 28.1199 188.67 31.3099 188.67 31.3099L136.42 77.2899L129.94 69.9299L183.13 23.1299Z" fill="#122548"/>
<path d="M136.421 77.2993L143.755 70.8291L134.162 59.9558L126.828 66.426L136.421 77.2993Z" fill="#122548"/>
<path d="M184.01 64.6501C183.97 65.0601 183.93 65.4701 183.88 65.8801C183.79 66.6301 183.69 67.3701 183.57 68.1201C183.24 70.0501 182.79 71.9601 182.24 73.8501C182.14 74.1701 182.04 74.5001 181.94 74.8201C181.93 74.8301 181.92 74.8401 181.92 74.8601C181.81 75.2101 181.69 75.5801 181.56 75.9301C181.44 76.2901 181.31 76.6601 181.17 77.0201C181.04 77.3801 180.9 77.7401 180.75 78.1001C180.53 78.6501 180.29 79.2201 180.03 79.7701C179.9 80.0601 179.77 80.3401 179.64 80.6301C179.51 80.8901 179.38 81.1601 179.26 81.4301C179.1 81.7301 178.95 82.0201 178.8 82.3201C177.88 84.0601 176.85 85.7701 175.7 87.4101C175.54 87.6301 175.39 87.8501 175.23 88.0801C173.77 90.1001 172.12 92.0201 170.31 93.8401C169.49 94.6601 168.66 95.4301 167.8 96.1701C167.56 96.3901 167.3 96.6001 167.04 96.8301C166.39 97.3601 165.73 97.8901 165.06 98.3801C164.78 98.5901 164.49 98.7901 164.2 99.0101C163.89 99.2201 163.57 99.4401 163.26 99.6601C162.98 99.8501 162.69 100.04 162.4 100.22C162.05 100.46 161.68 100.68 161.32 100.9C161 101.1 160.66 101.29 160.33 101.48C159.61 101.9 158.88 102.3 158.14 102.66C157.86 102.81 157.57 102.95 157.27 103.09C156.93 103.25 156.57 103.41 156.23 103.57C155.88 103.73 155.52 103.88 155.16 104.03C154.81 104.18 154.45 104.33 154.09 104.47C153.74 104.61 153.38 104.74 153.02 104.87C153.01 104.88 152.99 104.88 152.98 104.89C152.63 105.01 152.26 105.14 151.9 105.26C149.47 106.08 146.99 106.7 144.49 107.12C144.15 107.17 143.81 107.23 143.48 107.27C143.1 107.33 142.72 107.38 142.34 107.42C141.97 107.47 141.58 107.51 141.2 107.54C140.44 107.62 139.69 107.67 138.92 107.71C138.16 107.74 137.41 107.76 136.64 107.76C135.87 107.76 135.12 107.74 134.36 107.71C133.6 107.67 132.84 107.62 132.08 107.54C131.7 107.51 131.32 107.47 130.94 107.42C130.21 107.34 129.48 107.23 128.75 107.11C128.52 107.07 128.28 107.03 128.04 106.99C127.74 106.94 127.45 106.88 127.15 106.82C124.45 106.28 121.79 105.49 119.2 104.47C118.84 104.33 118.47 104.18 118.12 104.03C117.77 103.89 117.41 103.73 117.06 103.57C116.78 103.44 116.49 103.31 116.2 103.18C115.42 102.82 114.66 102.42 113.9 102.01C113.58 101.83 113.26 101.66 112.95 101.48C112.62 101.29 112.29 101.1 111.96 100.9C111.64 100.7 111.31 100.5 110.99 100.3C110.34 99.8901 109.71 99.4501 109.09 99.0201C108.78 98.8001 108.46 98.5701 108.16 98.3401C107.24 97.6601 106.36 96.9401 105.49 96.1801C105.21 95.9401 104.93 95.6901 104.64 95.4201C104.08 94.9101 103.52 94.3801 102.99 93.8501C102.46 93.3201 101.93 92.7601 101.42 92.2001C100.91 91.6401 100.41 91.0601 99.9201 90.4801C99.6801 90.1901 99.4501 89.9001 99.2001 89.5901C98.9601 89.2901 98.7301 88.9901 98.5001 88.6801C98.2701 88.3701 98.0501 88.0601 97.8201 87.7601C97.6101 87.4501 97.3901 87.1301 97.1701 86.8101C96.9601 86.5001 96.7501 86.1701 96.5301 85.8501C96.3301 85.5401 96.1301 85.2001 95.9201 84.8801C95.7101 84.5601 95.5301 84.2201 95.3401 83.8901C95.1501 83.5601 94.9701 83.2201 94.7801 82.8801C94.6001 82.5501 94.4301 82.2001 94.2501 81.8701C94.0801 81.5301 93.9101 81.1801 93.7401 80.8301C93.4101 80.1301 93.0901 79.4401 92.7901 78.7201C92.3301 77.6401 91.9101 76.5601 91.5501 75.4601C91.4301 75.1001 91.3101 74.7201 91.1901 74.3501C91.0801 73.9801 90.9701 73.6001 90.8601 73.2301C90.6501 72.4701 90.4501 71.7201 90.2801 70.9401C90.1901 70.5601 90.1101 70.1701 90.0301 69.7901C89.8801 69.0701 89.7501 68.3601 89.6401 67.6301C89.5701 67.1801 89.5101 66.7101 89.4501 66.2601C89.4101 65.9501 89.3701 65.6301 89.3401 65.3201C89.3201 65.1401 89.3001 64.9501 89.2801 64.7501C89.1401 63.2601 89.0701 61.7401 89.0701 60.2001C89.0701 58.5701 89.1501 56.9601 89.3101 55.3801C89.3101 55.3501 89.3101 55.3101 89.3201 55.2701C89.3601 54.8901 89.4001 54.5101 89.4501 54.1401C89.5001 53.7101 89.5601 53.2701 89.6301 52.8401C89.8101 51.7001 90.0201 50.5701 90.2901 49.4501C90.5501 48.3001 90.8601 47.1701 91.2101 46.0501C91.3301 45.6801 91.4501 45.3001 91.5701 44.9401C91.6901 44.5801 91.8201 44.2101 91.9401 43.8601C91.9401 43.8501 91.9501 43.8401 91.9601 43.8301C92.0901 43.4701 92.2201 43.1001 92.3601 42.7501C92.5001 42.3901 92.6501 42.0301 92.8001 41.6701C93.1001 40.9601 93.4201 40.2601 93.7501 39.5601C93.9201 39.2201 94.0901 38.8701 94.2601 38.5301C94.4401 38.1901 94.6101 37.8401 94.7901 37.5101C95.1601 36.8301 95.5501 36.1701 95.9401 35.5101L96.5501 34.5401C96.7601 34.2201 96.9701 33.8901 97.1901 33.5801C97.4101 33.2701 97.6201 32.9401 97.8401 32.6401C98.0601 32.3301 98.2901 32.0101 98.5201 31.7101C98.7501 31.4101 98.9701 31.1101 99.2201 30.8001C99.4601 30.5001 99.6901 30.2101 99.9401 29.9101C100.43 29.3301 100.93 28.7501 101.44 28.1901C101.95 27.6301 102.48 27.0701 103.01 26.5401C103.54 26.0101 104.1 25.4801 104.66 24.9701C104.94 24.7101 105.22 24.4601 105.51 24.2101C105.8 23.9601 106.09 23.7101 106.39 23.4601C106.68 23.2201 106.97 22.9901 107.28 22.7401C107.57 22.5001 107.89 22.2701 108.19 22.0401C108.49 21.8201 108.8 21.5901 109.12 21.3601C109.42 21.1501 109.74 20.9301 110.06 20.7101C112.81 18.8401 115.72 17.3001 118.72 16.0801C119.05 15.9501 119.38 15.8201 119.71 15.7001C124.97 13.6901 130.68 12.5801 136.65 12.5801C143.59 12.5801 150.16 14.0601 156.1 16.7301L153.37 22.8101C148.27 20.5201 142.61 19.2401 136.65 19.2401C131.52 19.2401 126.61 20.1901 122.08 21.9101C121.75 22.0301 121.42 22.1601 121.1 22.3001C120.78 22.4301 120.45 22.5601 120.13 22.7101C119.84 22.8301 119.56 22.9601 119.27 23.0901C115.9 24.6701 112.71 26.7401 109.78 29.2901C109.57 29.4701 109.36 29.6601 109.14 29.8501C108.66 30.2801 108.18 30.7401 107.72 31.2001C107.26 31.6601 106.8 32.1401 106.37 32.6201C106.16 32.8501 105.95 33.0801 105.75 33.3201C104.86 34.3401 104.04 35.3801 103.27 36.4601C103.09 36.7201 102.9 36.9901 102.73 37.2601C102.54 37.5301 102.36 37.8101 102.19 38.0901C101.92 38.5001 101.66 38.9301 101.41 39.3501C101.27 39.5901 101.13 39.8301 100.99 40.0901C100.88 40.2701 100.78 40.4601 100.69 40.6401C100.53 40.9301 100.37 41.2201 100.23 41.5201C99.6801 42.5901 99.1701 43.6901 98.7301 44.8001C98.6201 45.0701 98.5101 45.3501 98.4001 45.6401C98.1701 46.2801 97.9401 46.9201 97.7201 47.5701C97.6301 47.8501 97.5401 48.1401 97.4601 48.4301C97.1701 49.4101 96.9201 50.3901 96.7001 51.3701C96.6301 51.6801 96.5601 52.0001 96.5001 52.3201V52.3501C96.4401 52.6601 96.3801 52.9801 96.3301 53.3001C96.2001 54.0601 96.1001 54.8101 96.0201 55.5701C95.9901 55.7801 95.9701 56.0001 95.9501 56.2301C95.9201 56.5001 95.9001 56.7601 95.8801 57.0201C95.8601 57.2301 95.8501 57.4401 95.8401 57.6501C95.8201 57.8301 95.8201 58.0101 95.8101 58.1901C95.7601 59.2101 95.7501 60.2201 95.7701 61.2201C95.7901 61.7201 95.8101 62.2401 95.8401 62.7401C95.8501 62.9301 95.8701 63.1101 95.8801 63.3001C95.9001 63.5601 95.9201 63.8101 95.9501 64.0701C95.9701 64.3401 96.0001 64.6101 96.0301 64.8901C96.0801 65.2701 96.1201 65.6601 96.1801 66.0401C96.2201 66.3601 96.2701 66.6801 96.3301 67.0001C96.3801 67.3201 96.4401 67.6501 96.5001 67.9701C96.5601 68.2901 96.6301 68.6201 96.7001 68.9401C96.7701 69.2601 96.8401 69.5901 96.9201 69.9001C97.0801 70.5701 97.2601 71.2201 97.4501 71.8801C97.5301 72.1701 97.6201 72.4601 97.7201 72.7601C97.9201 73.4001 98.1401 74.0201 98.3801 74.6401C98.4901 74.9301 98.6001 75.2201 98.7201 75.5201C99.1601 76.6301 99.6701 77.7301 100.22 78.8001C100.36 79.0901 100.52 79.3801 100.68 79.6801C100.77 79.8601 100.87 80.0501 100.98 80.2301C101.12 80.4801 101.26 80.7201 101.4 80.9701C101.64 81.3901 101.9 81.8201 102.18 82.2301C102.35 82.5001 102.53 82.7801 102.72 83.0601C102.89 83.3201 103.08 83.5901 103.26 83.8601C104.03 84.9401 104.85 85.9801 105.74 87.0001C105.93 87.2301 106.14 87.4601 106.36 87.7001C106.79 88.1801 107.25 88.6601 107.71 89.1201C108.17 89.5801 108.65 90.0401 109.13 90.4701C109.36 90.6801 109.59 90.8901 109.83 91.0901C110.85 91.9801 111.89 92.8001 112.97 93.5701C113.23 93.7501 113.5 93.9401 113.77 94.1101C114.04 94.3001 114.32 94.4801 114.6 94.6501C115.01 94.9201 115.44 95.1801 115.86 95.4301C116.1 95.5701 116.34 95.7101 116.6 95.8501C116.78 95.9601 116.96 96.0601 117.15 96.1501C117.44 96.3101 117.73 96.4701 118.03 96.6101C119.1 97.1601 120.2 97.6701 121.31 98.1101C121.6 98.2301 121.89 98.3401 122.19 98.4501C122.82 98.6801 123.44 98.9001 124.08 99.1201C124.36 99.2101 124.64 99.3001 124.94 99.3801C125.92 99.6701 126.9 99.9201 127.88 100.14C128.19 100.21 128.52 100.28 128.84 100.34C129.16 100.4 129.49 100.46 129.81 100.51C130.55 100.63 131.27 100.74 132 100.82C132.24 100.85 132.49 100.87 132.74 100.89C133 100.92 133.26 100.94 133.52 100.96C133.72 100.98 133.92 100.99 134.11 101C134.6 101.03 135.11 101.05 135.6 101.07C136.31 101.08 137.01 101.08 137.72 101.07C138.21 101.05 138.72 101.03 139.21 101C139.4 100.99 139.6 100.98 139.8 100.96C140.06 100.94 140.31 100.92 140.58 100.89C140.82 100.87 141.07 100.85 141.32 100.82C142.05 100.74 142.78 100.63 143.51 100.51C143.83 100.46 144.16 100.4 144.48 100.34C144.8 100.28 145.12 100.21 145.44 100.14C146.41 99.9301 147.37 99.6901 148.31 99.4001C148.62 99.3101 148.94 99.2201 149.24 99.1201C149.88 98.9101 150.51 98.6901 151.13 98.4501C151.44 98.3401 151.76 98.2201 152.06 98.0901C153.6 97.4601 155.11 96.7501 156.58 95.9201C156.87 95.7601 157.16 95.6001 157.46 95.4201C157.75 95.2501 158.04 95.0801 158.33 94.9001C160.12 93.7801 161.85 92.5101 163.49 91.0801C163.72 90.8901 163.95 90.6801 164.19 90.4601C164.67 90.0301 165.15 89.5701 165.61 89.1101C166.07 88.6501 166.53 88.1701 166.96 87.6901C167.17 87.4601 167.38 87.2301 167.57 86.9901C168.46 85.9701 169.28 84.9301 170.05 83.8501C170.23 83.5901 170.42 83.3201 170.59 83.0501C170.78 82.7801 170.96 82.5001 171.13 82.2201C171.4 81.8101 171.66 81.3801 171.91 80.9601C172.05 80.7201 172.19 80.4801 172.33 80.2201C172.44 80.0401 172.54 79.8501 172.63 79.6701C172.79 79.3801 172.95 79.0901 173.09 78.7901C173.64 77.7201 174.15 76.6201 174.59 75.5101C174.71 75.2201 174.82 74.9301 174.93 74.6301C175.16 74.0101 175.38 73.3901 175.59 72.7501C175.69 72.4601 175.78 72.1701 175.86 71.8701C176.05 71.2101 176.23 70.5601 176.39 69.8901C176.47 69.5801 176.54 69.2501 176.61 68.9301C176.68 68.6101 176.75 68.2801 176.81 67.9601C176.87 67.6401 176.93 67.3101 176.98 66.9901C177.04 66.6701 177.09 66.3501 177.13 66.0301C177.19 65.6501 177.23 65.2601 177.28 64.8801C177.31 64.6101 177.34 64.3401 177.36 64.0601L184.01 64.6101V64.6501Z" fill="url(#paint0_linear_130_724)"/>
<path d="M160.35 88.22C159.54 88.91 158.71 89.55 157.85 90.15C157.63 90.31 157.41 90.46 157.17 90.62C156.93 90.78 156.68 90.94 156.43 91.1C155.95 91.41 155.45 91.7 154.96 92C154.67 92.17 154.38 92.33 154.08 92.48C153.84 92.61 153.6 92.74 153.35 92.86C153.09 92.99 152.82 93.12 152.55 93.25C151.47 93.77 150.37 94.24 149.25 94.64C148.97 94.74 148.69 94.84 148.4 94.94C147.84 95.13 147.26 95.31 146.68 95.47C146.11 95.63 145.51 95.78 144.93 95.92C144.63 95.99 144.34 96.05 144.03 96.11C143.73 96.17 143.44 96.23 143.13 96.28C142.83 96.34 142.52 96.38 142.22 96.43C141.92 96.48 141.62 96.52 141.3 96.56C139.77 96.75 138.2 96.85 136.62 96.85C135.04 96.85 133.47 96.75 131.94 96.56C131.64 96.52 131.33 96.48 131.02 96.43C130.72 96.38 130.41 96.34 130.11 96.28C129.81 96.23 129.52 96.17 129.21 96.11C128.9 96.05 128.62 95.99 128.31 95.92C128.02 95.85 127.73 95.78 127.43 95.7C127.14 95.63 126.85 95.55 126.55 95.47C126.26 95.39 125.97 95.3 125.68 95.21C125.39 95.13 125.11 95.03 124.82 94.94C124.54 94.84 124.26 94.74 123.97 94.64C122.85 94.24 121.75 93.77 120.67 93.25C120.42 93.13 120.16 93 119.9 92.88C119.1 92.47 118.32 92.03 117.55 91.56C117.32 91.42 117.09 91.28 116.86 91.14C116.43 90.87 116 90.58 115.58 90.29L114.88 89.78C114.63 89.6 114.39 89.42 114.14 89.23C113.89 89.05 113.65 88.85 113.41 88.66C113.17 88.47 112.93 88.27 112.69 88.07C112.24 87.68 111.79 87.27 111.35 86.87C111.11 86.63 110.86 86.39 110.61 86.14C110.41 85.94 110.22 85.75 110.02 85.55C109.99 85.5 109.95 85.46 109.91 85.42C109.49 84.98 109.08 84.53 108.69 84.07C108.49 83.84 108.29 83.6 108.1 83.35C107.31 82.39 106.59 81.4 105.91 80.39C105.75 80.14 105.59 79.88 105.43 79.62C104.95 78.84 104.49 78.06 104.07 77.26C103.93 76.99 103.8 76.73 103.67 76.45C101.54 72.14 100.31 67.51 99.9701 62.82C99.8601 61.36 99.8501 59.89 99.9201 58.41C99.9401 58.12 99.9501 57.83 99.9701 57.53C100.04 56.65 100.13 55.78 100.25 54.91C100.63 52.29 101.29 49.7 102.24 47.2C102.35 46.92 102.45 46.65 102.56 46.36C102.79 45.82 103.02 45.26 103.28 44.72C103.41 44.46 103.53 44.19 103.67 43.91C103.8 43.64 103.93 43.38 104.07 43.1C104.21 42.84 104.35 42.58 104.5 42.31C104.65 42.04 104.79 41.78 104.95 41.52C105.1 41.26 105.26 41 105.42 40.73C105.58 40.48 105.74 40.22 105.9 39.96C106.58 38.94 107.3 37.95 108.09 37C108.28 36.76 108.48 36.52 108.68 36.28C109.07 35.82 109.48 35.37 109.9 34.93C109.94 34.89 109.98 34.85 110.01 34.8L110.6 34.21C117.24 27.58 126.41 23.46 136.55 23.46V28.6C127.84 28.6 119.94 32.13 114.23 37.85C112.67 39.41 111.31 41.1 110.14 42.87C109.96 43.16 109.78 43.45 109.6 43.75C109.58 43.77 109.57 43.79 109.57 43.81C109.46 43.98 109.36 44.14 109.27 44.31C109.23 44.36 109.2 44.41 109.18 44.46C109 44.77 108.82 45.1 108.65 45.43C108.58 45.55 108.52 45.68 108.46 45.8C108.29 46.13 108.12 46.48 107.96 46.82C107.95 46.85 107.93 46.88 107.93 46.9C107.71 47.35 107.52 47.82 107.33 48.28C107.14 48.75 106.96 49.24 106.79 49.72C106.62 50.19 106.46 50.68 106.33 51.17C106.18 51.65 106.05 52.15 105.93 52.64C105.81 53.12 105.7 53.62 105.61 54.12C105.23 56.08 105.03 58.09 105.03 60.16C105.03 62.75 105.34 65.26 105.94 67.67C106.17 68.67 106.46 69.64 106.81 70.59C107.14 71.57 107.54 72.52 107.97 73.44C108.18 73.91 108.41 74.37 108.66 74.82C108.89 75.27 109.13 75.71 109.4 76.14C109.47 76.27 109.54 76.39 109.62 76.51C109.8 76.82 110 77.14 110.19 77.44C110.5 77.91 110.83 78.37 111.17 78.83C111.36 79.1 111.56 79.36 111.77 79.63C112.54 80.62 113.37 81.56 114.28 82.46C114.63 82.81 115.01 83.17 115.38 83.51C115.4 83.53 115.43 83.56 115.46 83.58C115.8 83.89 116.17 84.21 116.52 84.5C117.04 84.93 117.58 85.35 118.12 85.74C118.35 85.9 118.58 86.07 118.83 86.22C118.87 86.26 118.92 86.29 118.96 86.31C119.14 86.44 119.31 86.56 119.49 86.67C119.74 86.84 120 87 120.27 87.15C120.48 87.28 120.68 87.4 120.9 87.51C121.72 87.98 122.55 88.42 123.4 88.81C123.7 88.95 124.02 89.08 124.33 89.21C124.96 89.47 125.58 89.72 126.23 89.94C126.67 90.1 127.13 90.25 127.58 90.37C127.61 90.39 127.64 90.4 127.68 90.4C128.13 90.54 128.6 90.67 129.06 90.78C129.09 90.78 129.12 90.79 129.15 90.8C129.51 90.89 129.89 90.97 130.25 91.04C130.43 91.08 130.61 91.12 130.79 91.15C131.21 91.23 131.64 91.3 132.06 91.36H132.11C132.53 91.42 132.96 91.48 133.38 91.52C133.48 91.53 133.58 91.54 133.68 91.55C134.14 91.59 134.62 91.62 135.09 91.64C135.59 91.67 136.1 91.68 136.6 91.68C137.1 91.68 137.61 91.67 138.11 91.64C138.58 91.62 139.06 91.59 139.52 91.55C139.62 91.54 139.72 91.53 139.82 91.52C140.24 91.48 140.67 91.42 141.09 91.36H141.14C141.56 91.3 141.99 91.23 142.41 91.15C142.59 91.12 142.77 91.08 142.95 91.04C143.31 90.97 143.69 90.89 144.05 90.8C144.08 90.79 144.11 90.78 144.14 90.78C144.6 90.67 145.07 90.54 145.52 90.4C145.56 90.4 145.59 90.39 145.62 90.37C146.07 90.25 146.53 90.1 146.97 89.94C147.62 89.73 148.24 89.48 148.87 89.21C149.18 89.08 149.5 88.95 149.8 88.81C150.65 88.42 151.48 87.98 152.3 87.51C152.51 87.4 152.71 87.28 152.93 87.15C153.19 87 153.45 86.84 153.71 86.67C153.89 86.56 154.06 86.44 154.24 86.31C154.28 86.29 154.33 86.26 154.37 86.22C154.61 86.07 154.84 85.9 155.08 85.74C155.62 85.35 156.16 84.93 156.68 84.5C156.78 84.41 156.89 84.33 156.99 84.24L160.3 88.19L160.35 88.22Z" fill="url(#paint1_linear_130_724)"/>
<path d="M135.24 87.5802C134.78 87.5602 134.32 87.5302 133.87 87.4802C133.49 87.4402 133.1 87.4002 132.72 87.3402C132.28 87.2802 131.84 87.2102 131.42 87.1202C131.04 87.0502 130.66 86.9702 130.29 86.8702C130.21 86.8602 130.13 86.8402 130.05 86.8202C129.71 86.7402 129.37 86.6502 129.05 86.5502C128.96 86.5302 128.87 86.5102 128.79 86.4802C128.53 86.4102 128.28 86.3302 128.02 86.2402C127.78 86.1702 127.55 86.0802 127.31 86.0002C127.18 85.9602 127.05 85.9102 126.93 85.8602C126.66 85.7602 126.4 85.6502 126.13 85.5402C125.98 85.4902 125.84 85.4302 125.7 85.3602C125.39 85.2302 125.08 85.0802 124.76 84.9302C123.96 84.5502 123.19 84.1202 122.43 83.6702C122.08 83.4602 121.72 83.2402 121.38 83.0002C121.29 82.9402 121.2 82.8802 121.11 82.8102C120.82 82.6102 120.53 82.4002 120.24 82.1802C119.2 81.4002 118.2 80.5502 117.26 79.6002C116.93 79.2702 116.6 78.9202 116.29 78.5802C115.97 78.2302 115.66 77.8702 115.37 77.5102C115.03 77.1002 114.7 76.6702 114.39 76.2402C114.18 75.9502 113.97 75.6502 113.75 75.3302C113.3 74.6302 112.86 73.9102 112.47 73.1802C112.34 72.9402 112.21 72.6902 112.09 72.4302C111.81 71.8702 111.55 71.2902 111.31 70.7202C111.22 70.5302 111.15 70.3402 111.08 70.1502C110.97 69.8702 110.86 69.5902 110.77 69.3002C110.76 69.2802 110.75 69.2602 110.75 69.2502C110.61 68.8602 110.48 68.4502 110.37 68.0602C110.34 67.9802 110.32 67.8902 110.3 67.8102C110.2 67.4802 110.11 67.1402 110.03 66.8102C110.01 66.7302 109.99 66.6502 109.98 66.5702C109.88 66.2002 109.8 65.8202 109.73 65.4402C109.65 65.0102 109.57 64.5702 109.51 64.1402C109.45 63.7502 109.41 63.3602 109.37 62.9702C109.32 62.5302 109.29 62.0702 109.27 61.6202C109.24 61.1702 109.23 60.7102 109.23 60.2502C109.23 59.5002 109.26 58.7602 109.32 58.0002C109.33 57.8302 109.34 57.6702 109.37 57.5002C109.39 57.1702 109.43 56.8302 109.48 56.5002C109.53 56.1402 109.58 55.7702 109.65 55.4202C109.72 54.9702 109.82 54.5102 109.92 54.0602C110.01 53.6602 110.11 53.2502 110.22 52.8502C110.33 52.4602 110.45 52.0502 110.58 51.6602C110.71 51.2702 110.84 50.8702 110.99 50.4802C113.57 43.6702 118.78 38.1702 125.38 35.1802L127.02 38.6602C121.34 41.2002 116.85 45.9202 114.61 51.7702C114.4 52.3202 114.21 52.8902 114.05 53.4502C113.99 53.6302 113.94 53.8202 113.88 54.0002C113.72 54.6502 113.57 55.2902 113.45 55.9502C113.39 56.2902 113.33 56.6402 113.29 56.9902C113.24 57.2902 113.21 57.5902 113.19 57.9102C113.16 58.1302 113.14 58.3502 113.13 58.5802C113.11 58.8202 113.1 59.0702 113.09 59.3202C113.06 60.0002 113.07 60.6702 113.1 61.3402C113.11 61.7202 113.14 62.1002 113.18 62.4702C113.2 62.7702 113.24 63.0602 113.28 63.3502C113.29 63.4602 113.31 63.5702 113.32 63.6702C113.35 63.8902 113.39 64.1102 113.43 64.3402C113.52 64.8702 113.63 65.4102 113.77 65.9302C113.82 66.1702 113.88 66.4202 113.96 66.6702C113.99 66.7902 114.02 66.9002 114.05 67.0102C114.13 67.2802 114.22 67.5502 114.31 67.8202C114.41 68.1002 114.51 68.3802 114.61 68.6602C114.69 68.8702 114.77 69.0702 114.86 69.2902C114.92 69.4402 114.98 69.5902 115.06 69.7402C115.14 69.9602 115.24 70.1702 115.35 70.4002C115.38 70.4702 115.42 70.5402 115.45 70.6102C115.57 70.8602 115.69 71.1002 115.82 71.3502C115.93 71.5502 116.04 71.7502 116.16 71.9402C116.28 72.1702 116.42 72.4002 116.56 72.6302C116.72 72.9002 116.89 73.1602 117.07 73.4302C117.27 73.7302 117.48 74.0502 117.71 74.3402C118.39 75.2402 119.13 76.1002 119.95 76.9202C120.77 77.7402 121.63 78.4802 122.53 79.1602C122.82 79.3802 123.13 79.5902 123.44 79.8002C123.7 79.9802 123.96 80.1502 124.24 80.3102C124.63 80.5602 125.04 80.7902 125.45 81.0202C125.75 81.1802 126.07 81.3402 126.37 81.4802C126.39 81.5002 126.42 81.5102 126.44 81.5102C126.67 81.6302 126.89 81.7302 127.13 81.8202C127.28 81.8902 127.43 81.9602 127.58 82.0202C127.79 82.1102 128 82.1902 128.22 82.2702C128.5 82.3802 128.79 82.4802 129.1 82.5802C129.33 82.6602 129.56 82.7402 129.8 82.8102C131.06 83.1802 132.33 83.4602 133.62 83.6202C133.87 83.6602 134.12 83.6902 134.39 83.7102C134.76 83.7502 135.14 83.7802 135.52 83.7902L135.24 87.6202V87.5802Z" fill="url(#paint2_linear_130_724)"/>
<path d="M192.82 38.57C192.3 37.22 191.72 35.89 191.1 34.58L184.47 40.4C187.08 46.72 188.4 53.44 188.4 60.18V60.2C188.4 61.03 188.38 61.85 188.34 62.68C188.32 63.21 188.28 63.75 188.24 64.28C188.21 64.68 188.17 65.09 188.13 65.49C188.1 65.78 188.07 66.08 188.03 66.39C187.99 66.8 187.93 67.22 187.87 67.63C187.82 68.04 187.75 68.46 187.68 68.86C187.62 69.27 187.54 69.68 187.46 70.08C187.39 70.49 187.3 70.9 187.21 71.3C186.97 72.41 186.7 73.51 186.37 74.6C186.29 74.87 186.21 75.15 186.13 75.43C185.87 76.3 185.58 77.15 185.26 77.99C185.15 78.3 185.03 78.63 184.91 78.94C184.72 79.44 184.52 79.95 184.3 80.44C184.16 80.79 184.01 81.15 183.84 81.5C183.5 82.27 183.13 83.01 182.75 83.76C182.48 84.31 182.18 84.87 181.87 85.41C181.57 85.95 181.24 86.5 180.92 87.03C180.28 88.09 179.6 89.14 178.86 90.16C178.63 90.49 178.39 90.84 178.12 91.17C177.64 91.83 177.12 92.48 176.59 93.12C174.48 95.68 172.13 98.03 169.57 100.14C168.93 100.67 168.28 101.19 167.62 101.67C167.29 101.93 166.94 102.17 166.61 102.41C165.59 103.15 164.54 103.83 163.48 104.47C162.41 105.14 161.31 105.74 160.2 106.29C159.81 106.49 159.41 106.69 159.02 106.88C158.3 107.22 157.59 107.56 156.85 107.86C156.8 107.88 156.76 107.9 156.71 107.92C156.35 108.07 155.98 108.22 155.62 108.36C155.23 108.52 154.83 108.67 154.43 108.8C154.04 108.95 153.64 109.09 153.24 109.22C152.84 109.36 152.43 109.49 152.03 109.61C151.66 109.73 151.27 109.84 150.9 109.94C150.83 109.96 150.77 109.98 150.72 109.99C150.34 110.11 149.95 110.21 149.57 110.3C149.16 110.41 148.74 110.51 148.33 110.6C147.94 110.7 147.55 110.78 147.16 110.86C147.09 110.87 147.03 110.88 146.97 110.9C146.59 110.98 146.2 111.05 145.82 111.12H145.79C145.37 111.2 144.95 111.27 144.53 111.33H144.51C144.13 111.39 143.73 111.45 143.35 111.49C143.29 111.5 143.23 111.51 143.18 111.52C142.77 111.57 142.34 111.62 141.93 111.65C141.46 111.7 140.99 111.74 140.52 111.78C137.94 111.98 135.34 111.98 132.76 111.78C132.29 111.74 131.82 111.7 131.35 111.65C130.94 111.62 130.51 111.57 130.1 111.52C130.05 111.51 129.99 111.5 129.93 111.49C129.55 111.45 129.15 111.39 128.77 111.33H128.75C128.35 111.27 127.94 111.2 127.54 111.13C127.05 111.04 126.56 110.95 126.07 110.85C125.7 110.77 125.32 110.69 124.95 110.6C124.54 110.51 124.12 110.41 123.71 110.3C123.35 110.21 122.98 110.12 122.63 110.01C122.18 109.89 121.71 109.75 121.25 109.61C120.85 109.49 120.44 109.36 120.04 109.22C119.64 109.09 119.24 108.95 118.85 108.8C118.44 108.65 118.02 108.5 117.6 108.33C117.26 108.2 116.91 108.06 116.57 107.92C116.52 107.9 116.48 107.88 116.43 107.86C116.07 107.71 115.7 107.55 115.34 107.38C115.01 107.24 114.68 107.09 114.36 106.93C113.94 106.73 113.5 106.52 113.08 106.29C112.71 106.11 112.33 105.92 111.97 105.71C111.61 105.52 111.24 105.32 110.88 105.11C110.52 104.91 110.15 104.7 109.8 104.47C109.45 104.26 109.09 104.04 108.74 103.8C108.39 103.59 108.04 103.36 107.7 103.11C107.36 102.89 107.01 102.65 106.67 102.4C106.34 102.17 106 101.93 105.67 101.67L105.65 101.65C105.33 101.41 105 101.17 104.68 100.9C104.1 100.45 103.53 99.98 102.97 99.5C102.64 99.22 102.3 98.93 101.97 98.62C101.31 98.04 100.67 97.42 100.04 96.78C99.75 96.49 99.46 96.2 99.16 95.89C99.14 95.87 99.12 95.84 99.1 95.82C98.79 95.5 98.49 95.17 98.2 94.85C97.9 94.52 97.61 94.18 97.32 93.85C97.1 93.6 96.9 93.35 96.68 93.09C96.42 92.77 96.16 92.44 95.9 92.12C95.36 91.43 94.84 90.74 94.34 90.03C94.12 89.73 93.91 89.41 93.7 89.1C93.46 88.76 93.24 88.41 93.01 88.06C92.55 87.34 92.11 86.62 91.69 85.88C91.48 85.53 91.29 85.18 91.11 84.83C90.9 84.46 90.71 84.09 90.53 83.72C90.15 82.97 89.78 82.23 89.44 81.46C89.28 81.11 89.12 80.75 88.98 80.4C88.76 79.91 88.56 79.4 88.36 78.9C88.24 78.59 88.12 78.26 88.01 77.95C87.7 77.11 87.41 76.26 87.14 75.39C87.06 75.12 86.98 74.84 86.9 74.56C86.58 73.47 86.31 72.37 86.06 71.26C85.97 70.86 85.88 70.45 85.81 70.04C85.73 69.64 85.65 69.23 85.59 68.82C85.52 68.42 85.45 68 85.4 67.59C85.34 67.18 85.28 66.76 85.24 66.35C85.2 66.05 85.17 65.75 85.14 65.45C85.1 65.05 85.06 64.64 85.03 64.24C84.99 63.71 84.95 63.17 84.93 62.64C84.89 61.81 84.87 60.99 84.87 60.16C84.87 59.33 84.89 58.51 84.93 57.68C84.95 57.15 84.99 56.61 85.03 56.08C85.06 55.68 85.1 55.27 85.14 54.87C85.17 54.57 85.2 54.27 85.24 53.96C85.28 53.55 85.34 53.14 85.4 52.73C85.45 52.32 85.52 51.9 85.59 51.5C85.65 51.09 85.73 50.68 85.81 50.28C85.88 49.91 85.95 49.53 86.04 49.17C86.14 48.67 86.25 48.17 86.38 47.69C86.46 47.34 86.55 46.98 86.65 46.63C86.71 46.37 86.78 46.11 86.86 45.85C86.96 45.51 87.06 45.15 87.17 44.81C87.42 43.97 87.7 43.15 88.01 42.33C88.12 42.01 88.24 41.69 88.36 41.38C88.56 40.86 88.77 40.34 89 39.83C89.14 39.51 89.28 39.18 89.43 38.86C89.61 38.44 89.81 38.01 90.01 37.6C90.17 37.26 90.33 36.92 90.51 36.59C90.69 36.22 90.89 35.84 91.09 35.48C91.89 34.02 92.74 32.6 93.68 31.22C93.87 30.93 94.07 30.65 94.27 30.35C94.82 29.56 95.41 28.79 96.01 28.02C96.22 27.76 96.43 27.5 96.65 27.23C96.86 26.98 97.06 26.73 97.29 26.47C97.86 25.8 98.45 25.15 99.06 24.5C99.08 24.48 99.1 24.45 99.12 24.43C99.41 24.13 99.7 23.84 100 23.54C100.63 22.9 101.27 22.29 101.93 21.7C102.26 21.4 102.6 21.11 102.93 20.82C103.61 20.25 104.28 19.69 104.98 19.16C105.28 18.92 105.59 18.69 105.9 18.45C106.64 17.93 107.37 17.4 108.13 16.91C108.47 16.68 108.83 16.45 109.19 16.22C109.93 15.77 110.66 15.33 111.42 14.91C111.73 14.73 112.06 14.56 112.38 14.39C113.18 13.97 113.99 13.56 114.81 13.18C115.19 13 115.58 12.83 115.97 12.67C116.35 12.5 116.74 12.34 117.12 12.19C117.13 12.18 117.14 12.18 117.14 12.18C117.52 12.02 117.91 11.87 118.3 11.73C118.68 11.58 119.07 11.44 119.45 11.31C119.48 11.3 119.5 11.29 119.52 11.29C119.9 11.15 120.29 11.02 120.67 10.91C121.07 10.77 121.47 10.65 121.87 10.54C122.27 10.41 122.67 10.3 123.07 10.2C123.98 9.96 124.88 9.74 125.81 9.54C126.92 9.3 128.04 9.1 129.17 8.95C129.98 8.82 130.8 8.73 131.62 8.65C132.04 8.61 132.46 8.58 132.88 8.55C133.68 8.49 134.47 8.45 135.27 8.43H135.36C135.77 8.41 136.2 8.41 136.61 8.41C137.22 8.41 137.84 8.42 138.46 8.45C152.67 8.94 165.43 15.18 174.48 24.9L180.78 19.3C180.69 19.2 180.6 19.11 180.51 19.02C180.29 18.78 180.07 18.54 179.83 18.3C179.61 18.07 179.38 17.84 179.14 17.6C168.3 6.75 153.26 0 136.65 0C129.16 0 121.98 1.37 115.37 3.88C114 4.4 112.65 4.97 111.32 5.58C110.89 5.78 110.45 5.98 110.03 6.2C110.01 6.21 109.98 6.22 109.96 6.24C109.54 6.45 109.11 6.66 108.69 6.89C107.51 7.51 106.35 8.17 105.21 8.87C104.88 9.07 104.54 9.28 104.22 9.5C103.14 10.19 102.1 10.9 101.07 11.66C100.78 11.87 100.49 12.08 100.2 12.32C99.96 12.49 99.73 12.67 99.49 12.86C99.13 13.13 98.77 13.42 98.42 13.71C96.11 15.62 93.95 17.68 91.95 19.9C91.61 20.28 91.27 20.67 90.94 21.05C90.69 21.34 90.45 21.62 90.2 21.93C89.98 22.19 89.76 22.46 89.54 22.74C89.36 22.96 89.18 23.19 89.01 23.43C87.87 24.89 86.81 26.4 85.81 27.97C85.62 28.27 85.43 28.59 85.24 28.89C85.2 28.97 85.15 29.05 85.1 29.12C84.9 29.46 84.7 29.81 84.51 30.15C84.33 30.45 84.16 30.75 84 31.06C83.81 31.38 83.63 31.72 83.46 32.05C83.29 32.37 83.13 32.69 82.97 33.01C82.78 33.38 82.6 33.76 82.42 34.14C82.23 34.53 82.04 34.93 81.86 35.33C81.81 35.44 81.76 35.54 81.72 35.65C81.57 35.97 81.43 36.31 81.29 36.63C80.96 37.43 80.63 38.22 80.33 39.03C80.17 39.45 80.02 39.89 79.87 40.32C79.71 40.78 79.55 41.24 79.41 41.7C79.26 42.16 79.12 42.63 78.98 43.09C78.71 44.02 78.46 44.96 78.22 45.89C78.12 46.31 78.02 46.73 77.93 47.15C77.9 47.26 77.88 47.37 77.86 47.47C77.77 47.86 77.69 48.26 77.61 48.65C77.6 48.7 77.59 48.74 77.59 48.79C77.5 49.24 77.42 49.7 77.35 50.15C77.28 50.49 77.23 50.85 77.18 51.2C77.13 51.5 77.09 51.8 77.05 52.12C77.01 52.42 76.97 52.71 76.94 53.02C76.65 55.38 76.51 57.79 76.51 60.23C76.51 61.7 76.56 63.17 76.67 64.62C76.69 64.93 76.72 65.25 76.74 65.55C76.79 66.19 76.86 66.81 76.94 67.44C76.98 67.79 77.02 68.15 77.07 68.5C77.1 68.71 77.13 68.91 77.16 69.13C77.22 69.52 77.28 69.92 77.35 70.31C77.43 70.78 77.51 71.26 77.6 71.73C77.69 72.2 77.79 72.68 77.89 73.15C78 73.62 78.1 74.1 78.22 74.56C78.45 75.51 78.7 76.45 78.98 77.37C79.12 77.83 79.26 78.3 79.41 78.76C79.55 79.22 79.71 79.69 79.87 80.14C80.02 80.57 80.17 81.01 80.33 81.43C80.62 82.22 80.94 82.99 81.26 83.76C81.41 84.11 81.56 84.47 81.72 84.81C81.77 84.93 81.82 85.04 81.87 85.15C82.05 85.54 82.23 85.94 82.42 86.33C82.61 86.74 82.82 87.16 83.04 87.57C83.32 88.12 83.6 88.67 83.91 89.2C84.09 89.53 84.27 89.86 84.46 90.19C84.7 90.61 84.94 91.03 85.2 91.44C85.44 91.83 85.67 92.22 85.93 92.6C85.96 92.65 85.99 92.69 86.01 92.74C86.24 93.09 86.47 93.45 86.72 93.8C87.03 94.27 87.36 94.74 87.69 95.19C87.94 95.54 88.19 95.9 88.46 96.24C89.27 97.32 90.1 98.37 90.98 99.39C91.59 100.1 92.2 100.78 92.85 101.47C93.26 101.91 93.69 102.36 94.13 102.79C94.47 103.13 94.82 103.47 95.16 103.81C95.19 103.84 95.22 103.86 95.24 103.88C96.27 104.86 97.32 105.79 98.41 106.68C99.33 107.44 100.25 108.16 101.21 108.86C101.58 109.13 101.96 109.39 102.33 109.66C102.69 109.91 103.07 110.16 103.44 110.42C104.15 110.89 104.87 111.35 105.61 111.79C105.96 112.01 106.33 112.22 106.7 112.44C106.98 112.6 107.26 112.76 107.55 112.91C107.93 113.12 108.32 113.33 108.71 113.54C109.06 113.73 109.42 113.91 109.78 114.09C110.3 114.35 110.83 114.6 111.35 114.85C111.79 115.05 112.25 115.25 112.69 115.45C113.14 115.64 113.59 115.83 114.04 116.01C114.49 116.19 114.95 116.37 115.41 116.54C115.96 116.75 116.52 116.94 117.07 117.13C119.66 118.03 122.31 118.74 124.99 119.28C125.46 119.37 125.94 119.46 126.41 119.54C126.94 119.63 127.5 119.71 128.04 119.79C129 119.92 129.96 120.04 130.91 120.13C131.38 120.18 131.87 120.22 132.35 120.25C135.22 120.45 138.13 120.45 141 120.25C141.48 120.22 141.97 120.18 142.44 120.13C143.4 120.04 144.36 119.92 145.31 119.79C145.85 119.71 146.41 119.63 146.94 119.54C147.41 119.46 147.89 119.37 148.36 119.28C151.04 118.75 153.69 118.03 156.28 117.13C156.83 116.94 157.39 116.75 157.94 116.54C158.4 116.37 158.86 116.19 159.31 116.01C159.76 115.83 160.21 115.64 160.66 115.45C161.1 115.25 161.56 115.05 162 114.85C162.52 114.61 163.05 114.36 163.57 114.09C163.93 113.91 164.29 113.73 164.64 113.54C165.03 113.34 165.42 113.13 165.8 112.91C166.08 112.76 166.36 112.6 166.65 112.44C167.02 112.23 167.39 112.02 167.74 111.79C168.48 111.35 169.2 110.89 169.91 110.42C170.28 110.17 170.66 109.92 171.02 109.66C171.39 109.4 171.77 109.14 172.14 108.86C173.1 108.16 174.03 107.44 174.94 106.68C176.03 105.78 177.08 104.86 178.11 103.88C178.13 103.86 178.16 103.84 178.19 103.81C178.53 103.47 178.88 103.13 179.22 102.79C179.66 102.36 180.09 101.91 180.5 101.47C181.15 100.78 181.76 100.1 182.37 99.39C183.25 98.37 184.08 97.32 184.89 96.24C185.15 95.9 185.4 95.54 185.66 95.19C185.99 94.74 186.32 94.27 186.63 93.8C186.87 93.45 187.1 93.09 187.34 92.74C187.36 92.69 187.39 92.65 187.42 92.6C187.67 92.22 187.9 91.83 188.15 91.44C188.4 91.03 188.64 90.61 188.89 90.19C189.08 89.86 189.26 89.53 189.44 89.2C189.74 88.67 190.02 88.12 190.31 87.57C190.52 87.16 190.73 86.74 190.93 86.33C191.12 85.94 191.3 85.54 191.48 85.15C191.53 85.04 191.58 84.93 191.63 84.81C191.79 84.47 191.94 84.11 192.09 83.76C192.41 82.99 192.73 82.22 193.02 81.43C193.18 81.01 193.33 80.57 193.48 80.14C193.64 79.69 193.8 79.22 193.94 78.76C194.09 78.3 194.23 77.83 194.37 77.37C194.64 76.44 194.89 75.5 195.13 74.56C195.25 74.1 195.35 73.62 195.46 73.15C195.56 72.68 195.66 72.2 195.75 71.73C195.84 71.26 195.92 70.78 196 70.31C196.07 69.92 196.13 69.52 196.19 69.13C196.22 68.92 196.25 68.72 196.28 68.5C196.33 68.15 196.37 67.79 196.41 67.44C196.49 66.81 196.56 66.19 196.61 65.55C196.63 65.25 196.66 64.93 196.68 64.62C196.79 63.18 196.84 61.71 196.84 60.23V60.21C196.84 52.88 195.5 45.54 192.83 38.6L192.82 38.57Z" fill="url(#paint3_linear_130_724)"/>
<path d="M244.12 157.48H251.19L271.22 184.01H264.31L244.12 157.48Z" fill="#44BEAA"/>
<path d="M271.22 157.48H264.16L244.12 184.01H251.03L271.22 157.48Z" fill="#44BEAA"/>
<path d="M234.61 147.82C234.95 147.23 235.42 146.76 236.01 146.41C236.6 146.07 237.25 145.89 237.94 145.89C238.63 145.89 239.25 146.06 239.83 146.41C240.41 146.76 240.88 147.23 241.22 147.82C241.56 148.41 241.73 149.05 241.73 149.73C241.73 150.41 241.56 151.04 241.22 151.63C240.88 152.22 240.42 152.69 239.83 153.04C239.25 153.39 238.62 153.56 237.94 153.56C237.26 153.56 236.6 153.39 236.01 153.04C235.42 152.69 234.95 152.22 234.61 151.63C234.27 151.04 234.1 150.41 234.1 149.73C234.1 149.05 234.27 148.42 234.61 147.82ZM240.76 184.03H235.07V157.35H240.76V184.03Z" fill="#44BEAA"/>
</g>
<defs>
<linearGradient id="paint0_linear_130_724" x1="168.08" y1="28.7601" x2="103.02" y2="93.8201" gradientUnits="userSpaceOnUse">
<stop stop-color="#69C4A4"/>
<stop offset="0.56" stop-color="#E87036"/>
<stop offset="1" stop-color="#EA2664"/>
</linearGradient>
<linearGradient id="paint1_linear_130_724" x1="154.96" y1="41.79" x2="110.65" y2="86.1" gradientUnits="userSpaceOnUse">
<stop stop-color="#69C4A4"/>
<stop offset="0.56" stop-color="#E87036"/>
<stop offset="1" stop-color="#EA2664"/>
</linearGradient>
<linearGradient id="paint2_linear_130_724" x1="140.33" y1="50.1102" x2="114.06" y2="76.3802" gradientUnits="userSpaceOnUse">
<stop stop-color="#69C4A4"/>
<stop offset="0.56" stop-color="#E87036"/>
<stop offset="1" stop-color="#EA2664"/>
</linearGradient>
<linearGradient id="paint3_linear_130_724" x1="179.19" y1="17.64" x2="94.09" y2="102.74" gradientUnits="userSpaceOnUse">
<stop stop-color="#69C4A4"/>
<stop offset="0.56" stop-color="#E87036"/>
<stop offset="1" stop-color="#EA2664"/>
</linearGradient>
<clipPath id="clip0_130_724">
<rect width="271.22" height="191.42" fill="white"/>
</clipPath>
</defs>
</svg>
