<svg width="609" height="489" viewBox="0 0 609 489" fill="none" xmlns="http://www.w3.org/2000/svg">
<ellipse cx="418.083" cy="447.168" rx="114.915" ry="31.6696" fill="#EFEFEF"/>
<path d="M143.975 140.11C143.354 138.414 137.721 143.921 137.44 144.371C135.642 147.247 137.278 152.959 140.171 154.671C142.312 155.938 146.79 153.106 148.349 152.041C151.526 149.871 152.059 146.527 150.435 143.215C149.177 140.649 148.487 140.285 145.974 140.865" stroke="black" stroke-width="2" stroke-linecap="round"/>
<path d="M157.05 206.023C153.405 206.863 152.185 209.024 151.867 212.557C151.637 215.116 152.633 217.386 154.806 218.704C156.711 219.859 160.067 221.514 162.375 221.198C168.965 220.296 167.786 214.335 166.626 209.304C166.424 208.429 166.385 207.218 165.649 206.607C164.595 205.732 163.139 205.204 161.912 204.614C160.445 203.909 159.688 203.911 158.094 203.957" stroke="black" stroke-width="2" stroke-linecap="round"/>
<path d="M148.112 171.229C145.437 172.085 142.975 174.513 143.486 177.466C144.226 181.745 147.237 186.925 151.908 187.686C156.986 188.514 161.568 184.817 161.413 179.53C161.243 173.725 153.747 172.89 150 170.185" stroke="black" stroke-width="2" stroke-linecap="round"/>
<path d="M182.042 305.14C181.421 303.444 175.788 308.951 175.507 309.401C173.709 312.277 175.345 317.989 178.238 319.701C180.379 320.968 184.857 318.136 186.416 317.071C189.593 314.901 190.127 311.557 188.502 308.245C187.244 305.679 186.554 305.315 184.041 305.895" stroke="black" stroke-width="2" stroke-linecap="round"/>
<path d="M172.587 273.38C168.942 274.22 167.722 276.381 167.405 279.914C167.175 282.473 168.17 284.743 170.343 286.061C172.248 287.216 175.604 288.871 177.912 288.555C184.502 287.653 183.323 281.691 182.163 276.661C181.961 275.786 181.922 274.575 181.186 273.964C180.132 273.089 178.676 272.561 177.449 271.971C175.982 271.266 175.225 271.267 173.631 271.314" stroke="black" stroke-width="2" stroke-linecap="round"/>
<path d="M197.469 368.81C196.848 367.115 191.215 372.622 190.934 373.071C189.136 375.948 190.772 381.66 193.664 383.372C195.805 384.639 200.284 381.807 201.843 380.742C205.019 378.572 205.553 375.228 203.929 371.915C202.671 369.35 201.981 368.986 199.467 369.566" stroke="black" stroke-width="2" stroke-linecap="round"/>
<path d="M187.312 337.213C183.667 338.054 182.446 340.215 182.129 343.747C181.899 346.307 182.894 348.577 185.068 349.895C186.973 351.05 190.328 352.705 192.637 352.389C199.227 351.487 198.048 345.525 196.888 340.495C196.686 339.62 196.647 338.409 195.911 337.798C194.857 336.923 193.401 336.394 192.173 335.805C190.707 335.1 189.949 335.101 188.356 335.148" stroke="black" stroke-width="2" stroke-linecap="round"/>
<path d="M163.65 238.586C160.974 239.442 158.513 241.869 159.023 244.822C159.763 249.102 162.775 254.282 167.446 255.043C172.523 255.871 177.106 252.174 176.951 246.887C176.781 241.082 169.285 240.247 165.538 237.542" stroke="black" stroke-width="2" stroke-linecap="round"/>
<path d="M164.343 143.954C182.772 139.703 200.95 134.533 219.381 130.282C229.079 128.045 238.777 125.808 248.475 123.571" stroke="black" stroke-width="2" stroke-linecap="round"/>
<path d="M258.667 121.221C279.523 116.41 300.479 112.065 321.338 107.253" stroke="black" stroke-width="2" stroke-linecap="round"/>
<path d="M173.323 176.537C209.417 168.211 245.582 160.357 281.664 152.034C290.95 149.892 299.974 147.73 308.974 144.65C313.405 143.133 317.646 141.782 322.223 140.726" stroke="black" stroke-width="2" stroke-linecap="round"/>
<path d="M181.376 209.332C205.86 203.685 230.344 198.037 254.828 192.389C270.814 188.702 286.184 183.204 302.158 179.519C314.731 176.619 327.203 173.254 339.794 170.35" stroke="black" stroke-width="2" stroke-linecap="round"/>
<path d="M192.459 240.453L249.925 227.197" stroke="black" stroke-width="2" stroke-linecap="round"/>
<path d="M256.411 225.702C263.079 224.164 269.229 222.017 275.757 219.993C281.884 218.092 288.256 216.892 294.504 215.451C298.982 214.418 303.422 214.588 307.872 213.805C317.668 212.082 327.354 209.338 337.049 207.102" stroke="black" stroke-width="2" stroke-linecap="round"/>
<path d="M201.082 273.605C238.489 264.977 276.023 256.807 313.44 248.176C322.605 246.062 331.771 243.948 340.936 241.834C342.667 241.434 344.57 241.196 346.161 240.384C347.307 239.8 347.894 238.764 349.163 238.472" stroke="black" stroke-width="2" stroke-linecap="round"/>
<path d="M205.571 305.761C230.534 300.003 255.617 292.861 281.297 291.493C286.174 291.233 291.26 290.312 295.763 288.373" stroke="black" stroke-width="2" stroke-linecap="round"/>
<path d="M301.819 285.022C318.215 281.241 334.765 278.399 351.157 274.618" stroke="black" stroke-width="2" stroke-linecap="round"/>
<path d="M215.87 335.597C217.12 337.482 232.288 331.174 233.778 330.707C245.162 327.142 256.599 323.917 268.061 320.63" stroke="black" stroke-width="2" stroke-linecap="round"/>
<path d="M280.571 317.743C293.044 314.866 305.338 312.68 318.007 310.762C333.391 308.433 348.495 304.516 363.645 301.021C367.027 300.241 370.408 299.461 373.789 298.681" stroke="black" stroke-width="2" stroke-linecap="round"/>
<path d="M221.819 369.855C238.285 366.058 254.537 361.613 270.899 357.396C293.846 351.481 316.98 346.527 340.222 341.947C346.34 340.742 352.453 339.722 358.529 338.321C362.092 337.499 365.04 336.712 368.304 335.09C369.035 334.727 370.537 334.374 371.16 333.835C371.749 333.325 371.498 332.688 372.253 332.227" stroke="black" stroke-width="2" stroke-linecap="round"/>
<path d="M90.8855 87.4792C93.9342 100.696 98.4387 114.094 102.339 127.104C108.383 147.266 116.565 166.663 121.446 187.147C124.485 199.903 128.612 212.272 130.964 225.22C134.786 246.262 135.206 267.315 140.038 288.261C150.251 332.535 160.463 376.809 170.676 421.083" stroke="black" stroke-width="2" stroke-linecap="round"/>
<path d="M83.5583 96.7398C108.706 90.9391 134.147 87.8908 159.419 82.8159C189.924 76.6903 219.852 68.3511 250.087 61.1657C266.154 57.3476 281.437 50.1492 297.455 46.4544C308.061 44.008 319.285 42.4156 329.316 38.1588" stroke="black" stroke-width="2" stroke-linecap="round"/>
<path d="M326.413 36.0576C329.659 38.4076 329.786 42.9596 330.62 46.5755C333.794 60.3362 337.329 74.2901 341.232 87.864C344.096 97.8208 347.96 107.437 351.274 117.242C355.147 128.697 358.284 140.232 362.828 151.46C370.528 170.483 374.666 189.921 380.663 209.474C391.609 245.16 400.036 281.877 408.427 318.256C410.311 326.426 411.725 335.787 415.956 343.174C418.617 347.821 420.524 351.395 421.792 356.894" stroke="black" stroke-width="2" stroke-linecap="round"/>
<path d="M156.369 420.598C156.895 418.306 168.326 415.985 170.603 415.422C178.251 413.53 185.967 411.878 193.643 410.107C218.85 404.293 244.057 398.478 269.264 392.664C276.635 390.964 284.027 389.333 291.382 387.562C298.084 385.948 304.249 382.559 310.745 380.257C315.749 378.484 320.628 376.085 325.803 374.891C332.914 373.251 340.288 372.083 347.033 369.258C354.086 366.305 361.835 364.687 369.286 362.968C375.191 361.606 381.448 359.305 387.474 358.983C400.66 358.28 413.609 354.637 426.452 351.674" stroke="black" stroke-width="2" stroke-linecap="round"/>
<path d="M94.481 76.8221C119.562 71.0368 144.912 67.8921 170.11 62.8027C200.526 56.6595 230.387 48.3956 260.544 41.2372C276.569 37.4333 291.844 30.3901 307.819 26.7051C318.397 24.2651 329.582 22.6401 339.604 18.4665" stroke="black" stroke-width="2" stroke-linecap="round"/>
<path d="M337.141 18.6389C340.473 20.9852 340.577 25.5661 341.415 29.2006C344.606 43.0321 348.167 57.0561 352.11 70.6954C355.002 80.7001 358.928 90.3562 362.286 100.205C366.21 111.713 369.375 123.304 373.992 134.578C381.816 153.68 385.966 173.22 392.032 192.865C403.102 228.719 411.572 265.626 420.006 302.192C421.901 310.404 423.303 319.818 427.619 327.228C430.334 331.89 432.278 335.476 433.553 341.003" stroke="black" stroke-width="2" stroke-linecap="round"/>
<path d="M91.0414 97.7216C93.5659 92.8549 95.6004 87.3125 98.7145 82.7747C100.264 80.5168 101.817 78.2536 103.375 76.0031C104.775 73.9823 105.975 71.963 108.007 70.5407" stroke="black" stroke-width="2" stroke-linecap="round"/>
<path d="M418.154 357.15C419.388 355.252 420.331 353.236 421.706 351.428C423.453 349.134 425.609 347.237 427.374 344.962C429.541 342.169 431.863 339.773 433.789 336.791" stroke="black" stroke-width="2" stroke-linecap="round"/>
<path d="M340.11 16.4673C340.178 17.4368 339.843 17.9397 339.36 18.8039C338.361 20.5951 337.565 22.4988 336.55 24.3053C335.672 25.867 334.883 27.4686 333.961 29.0044C333.381 29.9721 333.146 31.1526 332.528 32.0743C331.64 33.3982 331.152 35.0406 330.303 36.3545C329.841 37.0713 329.295 38.0696 329.355 38.9208" stroke="black" stroke-width="2" stroke-linecap="round"/>
<path d="M343.652 50.8208C344.715 65.9362 350.989 80.1424 352.054 95.2993C352.706 104.58 353.359 113.861 354.011 123.141" stroke="black" stroke-width="2" stroke-linecap="round"/>
<path d="M372.772 136.022C373.101 138.752 374.211 141.362 374.533 144.082C375.247 150.116 375.412 156.26 375.838 162.32C376.369 169.888 376.901 177.456 377.433 185.024C377.873 191.276 378.312 197.528 378.751 203.78" stroke="black" stroke-width="2" stroke-linecap="round"/>
<path d="M397.995 223.529C398.515 213.951 400.147 242.598 400.819 252.167C401.112 256.332 401.405 260.497 401.698 264.663C401.94 268.104 403.016 271.277 403.595 274.653C404.005 277.047 405.17 279.418 405.34 281.835C405.532 284.579 405.725 287.324 405.918 290.068C406.005 291.298 405.879 292.594 405.571 293.79C405.192 295.263 405.808 296.792 405.481 298.283C405.031 300.336 406.842 303.662 404.019 303.459" stroke="black" stroke-width="2" stroke-linecap="round"/>
<path d="M123.465 102.355C124.442 103.424 124.882 104.857 125.327 106.202C126.275 109.068 126.602 112.025 127.081 114.988C127.332 116.539 127.777 118.196 128.465 119.615C128.728 120.158 128.592 120.732 128.803 121.254C129.302 122.491 132.35 121.869 133.314 121.802C135.129 121.676 137.082 120.958 138.833 120.448" stroke="black" stroke-width="2" stroke-linecap="round"/>
<path d="M141.89 105.653C143.043 109.669 143.291 113.892 144.265 117.952" stroke="black" stroke-width="2" stroke-linecap="round"/>
<path d="M153.627 103.492C152.285 103.247 148.529 102.156 147.897 104.325C147.521 105.614 147.282 107.767 148.313 108.841C149.309 109.879 150.879 110.459 152.291 110.405C153.449 110.36 154.59 110.112 155.481 111.003C156.234 111.757 155.916 113.542 155.955 114.554C155.998 115.679 154.046 116.785 153.035 116.857C152.136 116.921 151.229 116.926 150.328 116.96" stroke="black" stroke-width="2" stroke-linecap="round"/>
<path d="M157.207 102.402C159.694 101.531 162.648 101.401 165.24 101.163C167.246 100.98 169.553 100.974 171.418 100.144" stroke="black" stroke-width="2" stroke-linecap="round"/>
<path d="M163.502 102.543C163.739 104.316 164.652 106.055 165.027 107.822C165.602 110.532 166.008 113.265 166.682 115.955" stroke="black" stroke-width="2" stroke-linecap="round"/>
<path d="M178.263 91.147C181.591 89.8722 185.404 89.8024 188.85 88.8371C190.718 88.3139 192.719 88.0374 194.51 87.287" stroke="black" stroke-width="2" stroke-linecap="round"/>
<path d="M185.883 91.0447C186.242 94.0695 186.84 97.0529 187.486 100.027C188.079 102.753 188.605 105.631 189.59 108.249" stroke="black" stroke-width="2" stroke-linecap="round"/>
<path d="M191.819 96.7273C193.052 100.071 194.045 103.408 194.917 106.86C195.288 108.329 195.943 109.901 196.002 111.435" stroke="black" stroke-width="2" stroke-linecap="round"/>
<path d="M195.381 105.168C197.175 104.208 199.435 103.881 201.432 103.614C202.026 103.534 202.443 103.432 202.93 103.165" stroke="black" stroke-width="2" stroke-linecap="round"/>
<path d="M198.876 96.8391C200.139 99.2032 200.887 101.686 201.605 104.264C201.958 105.527 202.093 106.929 202.547 108.135" stroke="black" stroke-width="2" stroke-linecap="round"/>
<path d="M203.76 94.9377C204.506 96.1263 204.61 97.6349 204.962 98.9688C205.281 100.178 205.743 101.484 206.256 102.626C206.618 103.433 207.094 104.697 207.591 105.423C208.16 106.256 210.405 105.767 211.127 105.68C212.584 105.504 214.341 104.693 215.536 103.828" stroke="black" stroke-width="2" stroke-linecap="round"/>
<path d="M206.606 99.5948C206.701 99.1415 209.933 98.4023 210.5 98.1331C211.162 97.8191 211.786 97.4335 212.42 97.0857" stroke="black" stroke-width="2" stroke-linecap="round"/>
<path d="M204.148 95.112C207.111 94.52 210.173 94.2276 213.036 93.2481" stroke="black" stroke-width="2" stroke-linecap="round"/>
<path d="M222.388 80.8174C222.77 81.953 223.627 82.9342 224.182 83.9893C225.517 86.5271 226.151 89.4887 226.512 92.3083C226.909 95.418 226.411 99.3077 227.967 102.143" stroke="black" stroke-width="2" stroke-linecap="round"/>
<path d="M222.805 81.7547C222.731 79.8021 225.683 79.754 227.026 79.6877C229.83 79.5492 232.16 81.5264 232.585 84.3891C233.258 88.9079 228.307 90.3034 224.896 91.5866" stroke="black" stroke-width="2" stroke-linecap="round"/>
<path d="M235.241 87.9514C235.35 90.7983 236.273 93.5161 236.893 96.2751" stroke="black" stroke-width="2" stroke-linecap="round"/>
<path d="M236.617 89.042C236.575 87.9185 236.369 86.6727 236.612 85.5689C236.958 83.9986 238.694 82.2915 240.35 82.2283C243.189 82.1201 243.399 86.2222 242.063 87.9765C241.274 89.0118 240.299 89.4773 239.354 90.2718C239.152 90.4421 238.104 90.882 238.072 91.0832C238.004 91.5049 239.23 91.9865 239.402 92.0702C241.507 93.0976 243.633 94.023 245.683 95.1662C247.688 96.284 250.02 97.3367 251.491 99.1487" stroke="black" stroke-width="2" stroke-linecap="round"/>
<path d="M249.343 82.8381C248.647 82.8647 247.733 82.7089 247.265 83.3409C246.322 84.617 245.871 85.7581 245.897 87.4594C245.916 88.614 245.987 89.502 246.502 90.5284C247.129 91.7799 248.577 92.442 249.614 93.2688C250.112 93.6659 251.61 93.597 252.179 93.3193C253.27 92.7864 253.23 90.0547 253.204 89.108C253.165 87.6996 252.952 86.1947 252.095 85.0204C251.631 84.3848 250.929 84.085 250.407 83.5176C249.984 83.0583 249.761 82.4361 249.497 81.8792" stroke="black" stroke-width="2" stroke-linecap="round"/>
<path d="M254.966 80.3372C255.864 84.985 257.414 89.5528 257.597 94.3417" stroke="black" stroke-width="2" stroke-linecap="round"/>
<path d="M255.749 80.8781C255.801 79.9028 257.906 78.6991 258.821 78.6642C259.902 78.623 260.34 79.1116 260.479 80.2211C260.546 80.7547 260.516 82.6137 260.023 82.96C258.406 84.0954 260.429 83.9399 261.435 83.9015C262.857 83.8473 264.285 83.7006 265.337 84.8434C266.42 86.0203 266.994 88.5722 266.384 90.0981C265.201 93.059 262.615 93.3869 259.852 93.4922" stroke="black" stroke-width="2" stroke-linecap="round"/>
<path d="M266.82 76.2622C267.947 78.9701 268.996 81.6747 269.698 84.5286C269.893 85.3216 269.776 86.4619 270.327 87.1413C271.455 88.5308 274.304 87.8962 275.624 87.1722" stroke="black" stroke-width="2" stroke-linecap="round"/>
<path d="M275.093 73.2783C277.059 77.0718 277.276 81.5864 279.011 85.4866C279.359 86.2674 281.317 86.6967 282.101 86.523C282.997 86.3244 283.927 85.3599 284.292 84.5545" stroke="black" stroke-width="2" stroke-linecap="round"/>
<path d="M277.573 78.3318C278.406 78.2303 281.628 77.767 281.901 76.8325" stroke="black" stroke-width="2" stroke-linecap="round"/>
<path d="M275.334 74.6031C277.874 73.5385 280.685 73.4043 283.222 72.3221C283.623 72.1507 284.187 71.9934 284.37 71.59" stroke="black" stroke-width="2" stroke-linecap="round"/>
<path d="M286.456 71.3215C287.241 71.6318 287.363 72.3665 287.594 73.1312C288.369 75.6927 288.758 78.3401 289.417 80.9296C289.895 82.8073 290.563 84.6433 290.808 86.5735C290.822 86.6917 290.925 88.5308 290.887 87.5447" stroke="black" stroke-width="2" stroke-linecap="round"/>
<path d="M287.67 73.1805C289.989 73.7483 292.429 75.8682 293.818 77.7642C294.463 78.6449 294.049 78.7918 293.656 77.9504C292.553 75.5932 293.773 72.4976 294.893 70.3954C295.081 70.0425 296.901 66.2457 297.827 67.3714C299.686 69.6312 300.101 73.3737 300.745 76.1128C301.258 78.2967 301.865 80.4858 301.951 82.738" stroke="black" stroke-width="2" stroke-linecap="round"/>
<path d="M308.442 68.0044C308.392 66.6882 306.226 65.4204 304.914 65.4704C303.305 65.5318 302.722 67.9909 302.518 69.2998C302.268 70.9092 301.532 74.4896 303.76 74.9283C305.467 75.2644 308.805 73.7406 309.615 75.9863C310.28 77.8292 309.891 80.3913 308.547 81.8723C307.092 83.4753 304.722 82.6846 303.064 81.9332" stroke="black" stroke-width="2" stroke-linecap="round"/>
<path d="M401.01 135.639C391.917 136.069 388.809 137.801 384.041 143.415C379.272 149.028 356.961 190.456 356.961 190.456C356.961 190.456 361.171 202.256 370.379 201.254L387.563 173.487L401.01 135.639Z" fill="#FFA8A7"/>
<path d="M402.226 135.653C402.226 135.653 395.682 134.808 391.028 136.498C386.374 138.188 384.04 141.553 380.832 146.45C378.355 150.245 369.648 165.983 369.648 165.983C369.648 165.983 373.944 177.768 385.93 177.768L402.226 135.653Z" fill="#E0E0E0"/>
<path d="M433.385 431.281V429.305C432.597 431.625 429.003 441.577 423.533 446.561C419.237 450.527 413.251 455.153 411.747 459.52C410.244 463.888 419.996 465.664 424.063 464.948C428.774 464.117 434.889 461.439 438.211 457.358C440.545 454.494 442.034 451.086 443.696 448.766C445.357 446.446 449.209 443.983 450.111 441.377C450.612 439.945 450.025 436.794 449.323 434.131C448.693 431.696 447.992 429.019 447.161 429.248V430.751C445.197 432.289 442.768 433.112 440.273 433.085C438.254 433.214 433.385 432.842 433.385 431.281Z" fill="#263238"/>
<path d="M419.595 450.027C420.941 448.81 422.301 447.636 423.533 446.519C427.356 443.039 430.263 437.125 431.939 433.086C432.884 430.787 433.37 428.326 433.371 425.84V417.979H447.147V430.766V431.11H447.075C446.417 433.974 440.087 441.592 436.493 446.547C434.087 449.884 429.519 454.123 424.049 454.853C418.879 455.612 416.201 453.979 419.595 450.027Z" fill="#FFA8A7"/>
<path d="M384.699 417.692V415.659C383.925 417.979 380.317 427.931 374.846 432.843C370.55 436.81 364.579 441.435 363.061 445.817C361.543 450.199 371.324 451.96 375.376 451.23C380.102 450.399 386.202 447.722 389.525 443.64C391.859 440.776 393.348 437.368 395.024 435.048C396.699 432.728 400.537 430.265 401.439 427.659C401.94 426.227 401.339 423.077 400.651 420.427C399.964 417.778 399.32 415.301 398.489 415.53V416.962C396.531 418.512 394.098 419.337 391.601 419.296C389.611 419.625 384.699 419.224 384.699 417.692Z" fill="#263238"/>
<path d="M370.951 436.465C372.297 435.263 373.643 434.088 374.875 432.957C378.698 429.477 381.62 423.563 383.281 419.525C384.234 417.228 384.721 414.765 384.713 412.279V404.417H398.503V417.205V417.549C397.844 420.413 391.515 428.031 387.92 433C385.515 436.322 380.932 440.561 375.462 441.291C370.221 442.022 367.514 440.389 370.951 436.465Z" fill="#FFA8A7"/>
<path d="M444.425 217.089C455.107 240.43 444.038 322.625 444.038 322.625C444.353 326.419 448.692 333.866 450.296 350.534C452.201 370.237 447.303 419.683 447.303 419.683C445.204 420.901 442.839 421.589 440.413 421.686C437.988 421.783 435.575 421.288 433.385 420.241C433.385 420.241 420.239 345.779 417.776 326.176C415.614 309.093 411.476 271.518 411.476 271.518L404.831 326.09C406.551 331.592 407.797 337.23 408.554 342.944C409.671 354.4 398.531 408.098 398.531 408.098C398.531 408.098 393.777 409.845 384.741 408.514C384.741 408.514 380.803 337.345 379.758 323.469C378.011 300.171 379.085 227.528 383.366 213.667L444.425 217.089Z" fill="#455A64"/>
<path d="M411.477 271.517L408.011 249.837C408.011 249.837 393.333 246.801 386.674 240.543C386.674 240.543 393.663 249.221 404.03 251.999L407.94 268.682L405.276 322.383L411.477 271.517Z" fill="#37474F"/>
<path d="M425.567 136.009C429.634 136.281 430.995 136.195 433.945 136.496C439.83 137.097 441.248 145.718 443.668 150.816C446.174 156.393 446.406 162.728 444.312 168.472L434.818 196.067C434.818 196.067 439.286 206.879 444.484 217.089C420.527 230.45 390.612 223.433 383.409 213.667C383.094 211.605 384.955 195.423 386.087 184.855C381.876 174.272 380.76 167.556 382.535 160.51C385.843 147.522 397.686 135.565 401.065 135.579L425.567 136.009Z" fill="#F0F0F0"/>
<path d="M446.045 83.5866L441.09 83.157C441.687 82.8165 442.182 82.3219 442.522 81.725C443.021 80.758 443.134 79.6379 442.839 78.5907C442.544 77.5435 441.863 76.6472 440.933 76.0828L437.739 81.8968C435.068 77.3008 431.179 73.5317 426.502 71.0049C421.825 68.4781 416.541 67.2917 411.233 67.5767L408.67 67.7055C404.877 67.907 401.162 68.8537 397.735 70.4914C394.309 72.1291 391.239 74.4259 388.7 77.2504C386.161 80.0749 384.204 83.3719 382.94 86.953C381.676 90.5342 381.13 94.3293 381.332 98.1215C382.206 114.59 383.18 133.02 383.18 133.02L412.937 131.43C416.964 131.231 420.911 130.237 424.553 128.507C428.195 126.777 431.459 124.344 434.157 121.349C436.856 118.354 438.936 114.855 440.278 111.053C441.621 107.251 442.198 103.221 441.978 99.1955L441.749 94.8995C441.604 92.1936 441.074 89.5222 440.174 86.9661C440.621 87.1926 441.107 87.3334 441.606 87.3814C442.693 87.4458 443.763 87.0865 444.59 86.3789C445.418 85.6713 445.94 84.6704 446.045 83.5866Z" fill="#455A64"/>
<path d="M386.717 100C386.546 103.157 386.627 106.322 386.961 109.466C388.092 124.301 393.104 127.71 395.553 128.64C398.002 129.571 402.713 128.64 407.138 127.681V136.431C407.138 136.431 401.739 144.178 402.355 148.23C402.971 152.283 411.663 152.798 417.305 148.502C420.963 145.43 423.707 141.413 425.239 136.889V116.382C425.239 116.382 428.518 120.306 433.344 116.712C438.17 113.117 437.912 104.898 434.776 102.105C431.64 99.3127 425.382 100.487 424.437 104.625C424.437 104.625 413.983 103.752 412.665 86.5535C403.042 99.1982 387.333 90.1049 386.717 100Z" fill="#FFA8A7"/>
<path d="M424.449 103.492L424.85 110.838C423.523 110.909 422.222 110.449 421.234 109.56C420.246 108.671 419.651 107.426 419.581 106.098L419.151 97.9072L424.449 103.492Z" fill="#455A64"/>
<path d="M405.289 104.394C405.303 104.762 405.425 105.118 405.641 105.417C405.856 105.717 406.154 105.946 406.499 106.076C406.843 106.207 407.219 106.233 407.578 106.152C407.938 106.07 408.265 105.885 408.52 105.618C408.774 105.352 408.945 105.017 409.01 104.654C409.075 104.291 409.032 103.917 408.886 103.579C408.74 103.241 408.498 102.953 408.189 102.751C407.88 102.55 407.519 102.444 407.151 102.446C406.647 102.461 406.169 102.674 405.821 103.038C405.472 103.403 405.281 103.89 405.289 104.394Z" fill="#263238"/>
<path d="M405.161 117.554L400.163 119.444C400.272 119.78 400.448 120.091 400.681 120.358C400.913 120.624 401.197 120.841 401.515 120.995C401.834 121.149 402.18 121.237 402.533 121.253C402.887 121.27 403.24 121.214 403.571 121.091C404.231 120.808 404.761 120.287 405.056 119.632C405.35 118.977 405.387 118.235 405.161 117.554Z" fill="#F28F8F"/>
<path d="M407.337 96.0168L411.705 97.4488C411.805 97.167 411.848 96.8679 411.829 96.5694C411.811 96.2709 411.733 95.9791 411.599 95.7116C411.465 95.4441 411.279 95.2064 411.051 95.0128C410.823 94.8191 410.558 94.6735 410.273 94.5847C409.693 94.4137 409.07 94.4658 408.527 94.7308C407.984 94.9958 407.559 95.4546 407.337 96.0168Z" fill="#455A64"/>
<path d="M389.251 105.209C389.246 105.459 389.289 105.707 389.38 105.939C389.471 106.172 389.606 106.384 389.78 106.564C389.953 106.743 390.16 106.887 390.388 106.986C390.617 107.086 390.864 107.139 391.113 107.142C391.621 107.127 392.102 106.913 392.453 106.546C392.804 106.179 392.997 105.688 392.989 105.181C393.012 104.921 392.98 104.66 392.897 104.414C392.813 104.168 392.679 103.941 392.503 103.75C392.328 103.558 392.114 103.405 391.876 103.3C391.638 103.195 391.38 103.141 391.12 103.141C390.86 103.141 390.603 103.195 390.365 103.3C390.126 103.405 389.913 103.558 389.737 103.75C389.561 103.941 389.427 104.168 389.344 104.414C389.26 104.66 389.229 104.921 389.251 105.181V105.209Z" fill="#263238"/>
<path d="M400.149 103.618L400.45 114.874L394.435 113.356L400.149 103.618Z" fill="#F28F8F"/>
<path d="M407.151 127.676C411.891 126.788 421.572 123.38 422.904 119.485C422.398 121.485 421.288 123.28 419.724 124.626C416.932 127.289 407.166 130.64 407.166 130.64L407.151 127.676Z" fill="#F28F8F"/>
<path d="M419.452 219.684C427.314 217.822 428.818 214.858 426.727 207.039C426.667 206.78 426.586 206.526 426.483 206.28C424.951 202.585 418.794 204.776 418.794 204.776C418.794 204.776 421.314 201.64 424.135 197.616C426.956 193.592 428.231 187.019 428.603 182.38C428.975 177.74 429.734 168.446 429.734 168.446C429.734 168.446 435.863 164.78 433.472 158.078L442.923 152.35L444.699 153.582C446.154 158.471 446.019 163.696 444.312 168.503L434.818 196.07C438.553 202.829 441.784 209.856 444.484 217.092C426.827 226.944 405.948 225.684 393.289 220.486C401.983 221.866 410.859 221.594 419.452 219.684Z" fill="#E6E6E6"/>
<path d="M426.141 102.058L415.315 102.63C414.955 101.293 414.148 100.119 413.027 99.306C411.906 98.4926 410.54 98.089 409.157 98.1626H408.226C407.031 98.2268 405.883 98.6452 404.926 99.3643C403.97 100.083 403.249 101.071 402.856 102.201C401.88 101.3 400.59 100.817 399.262 100.855C398.109 100.837 396.995 101.268 396.154 102.058C395.589 101.138 394.787 100.387 393.832 99.8834C392.877 99.3797 391.805 99.1414 390.727 99.1937H389.796C389.003 99.236 388.227 99.434 387.511 99.7764C386.795 100.119 386.153 100.599 385.622 101.189C385.092 101.78 384.683 102.469 384.418 103.217C384.154 103.966 384.04 104.759 384.082 105.552C384.125 106.344 384.323 107.121 384.665 107.837C385.007 108.553 385.488 109.195 386.078 109.725C386.668 110.256 387.358 110.665 388.106 110.929C388.855 111.194 389.648 111.308 390.44 111.266H391.371C392.164 111.225 392.941 111.029 393.658 110.688C394.375 110.348 395.017 109.869 395.549 109.28C396.081 108.691 396.492 108.003 396.758 107.255C397.024 106.507 397.14 105.714 397.099 104.922C397.048 104.268 396.899 103.626 396.655 103.017C396.985 102.67 397.386 102.397 397.831 102.219C398.276 102.041 398.754 101.962 399.233 101.986C399.851 101.953 400.469 102.066 401.035 102.315C401.602 102.563 402.103 102.941 402.498 103.418C402.455 103.827 402.455 104.24 402.498 104.65C402.538 105.442 402.734 106.219 403.075 106.936C403.416 107.653 403.894 108.296 404.483 108.828C405.072 109.36 405.761 109.77 406.508 110.036C407.256 110.302 408.049 110.418 408.842 110.378H409.773C410.567 110.339 411.346 110.144 412.065 109.803C412.784 109.462 413.428 108.982 413.96 108.391C414.493 107.8 414.903 107.11 415.167 106.359C415.432 105.609 415.545 104.814 415.501 104.02C415.501 104.02 415.501 103.876 415.501 103.805L425.181 103.289C425.436 102.832 425.759 102.416 426.141 102.058ZM391.357 110.177H390.426C389.747 110.25 389.06 110.184 388.408 109.982C387.755 109.781 387.151 109.449 386.631 109.006C386.111 108.563 385.687 108.019 385.384 107.406C385.082 106.794 384.907 106.127 384.871 105.445C384.835 104.763 384.938 104.081 385.175 103.44C385.411 102.799 385.775 102.213 386.246 101.718C386.716 101.223 387.282 100.829 387.91 100.56C388.537 100.291 389.213 100.152 389.896 100.153H390.827C391.485 100.118 392.144 100.213 392.765 100.433C393.387 100.653 393.959 100.993 394.449 101.434C394.939 101.875 395.337 102.408 395.621 103.002C395.905 103.597 396.069 104.242 396.104 104.9C396.139 105.558 396.044 106.217 395.824 106.838C395.604 107.46 395.264 108.032 394.823 108.522C394.383 109.012 393.85 109.41 393.255 109.694C392.66 109.978 392.015 110.142 391.357 110.177ZM409.758 109.218H408.813C407.527 109.216 406.29 108.722 405.358 107.836C404.425 106.95 403.868 105.741 403.8 104.457C403.732 103.172 404.159 101.911 404.993 100.932C405.827 99.9528 407.005 99.3307 408.283 99.1937H409.214C410.501 99.1915 411.741 99.6834 412.676 100.568C413.611 101.452 414.172 102.662 414.242 103.948C414.311 105.233 413.885 106.496 413.051 107.477C412.217 108.457 411.038 109.081 409.758 109.218Z" fill="#263238"/>
<path d="M337.129 181.676L385.502 194.42L398.82 249.152L352.824 235.791L337.129 181.676Z" fill="#BA68C8"/>
<path opacity="0.25" d="M337.129 181.676L385.502 194.42L398.82 249.152L352.824 235.791L337.129 181.676Z" fill="black"/>
<path opacity="0.2" d="M369.72 226.883C370.035 229.847 372.111 233.27 378.155 236.163C384.198 239.055 395.969 237.437 395.969 237.437L394.336 230.692L369.72 226.883Z" fill="black"/>
<g opacity="0.2">
<path d="M358.924 220.44C358.48 221.657 356.317 225.81 350.016 226.311L349.53 224.636L358.924 220.44Z" fill="black"/>
</g>
<g opacity="0.1">
<path d="M351.763 190.369L351.377 188.522C351.148 187.505 353.997 187.462 357.706 188.421L364.866 190.269C368.59 191.242 371.783 192.846 372.026 193.863L372.427 195.71L351.763 190.369Z" fill="black"/>
</g>
<path d="M347.983 183.425C347.839 182.795 348.999 182.623 350.546 183.052L353.41 183.84C353.41 183.84 352.565 179.845 358.823 181.248C365.081 182.651 366.456 187.162 366.456 187.162L369.477 188.021C371.138 188.494 372.642 189.453 372.842 190.026L373.2 191.172L348.283 184.613C348.283 184.613 348.126 184.069 347.983 183.425Z" fill="#37474F"/>
<path d="M351.42 185.399C353.696 185.944 354.642 186.259 354.985 187.82C355.372 189.624 355.544 190.927 355.544 190.927L366.57 193.791C366.57 193.791 366.04 191.514 365.869 190.641C365.697 189.767 366.069 189.209 367.83 189.681L367.974 188.979L350.689 184.569L351.42 185.399Z" fill="#37474F"/>
<path d="M351.033 190.54C351.033 190.54 350.862 189.709 350.632 188.692C350.403 187.676 353.253 187.633 356.976 188.592L364.136 190.439C367.86 191.413 371.053 193.017 371.296 194.034L371.683 195.881L351.033 190.54Z" fill="#37474F"/>
<path d="M342.227 199.245C342.227 199.245 344.031 205.432 344.446 206.907C344.862 208.382 350.275 211.031 353.84 212.005C357.406 212.978 361.287 214.153 359.568 219.165C358.022 223.747 352.165 224.792 349.186 224.664C346.208 224.535 342.126 221.685 340.523 217.103C338.475 211.246 339.577 204.988 338.761 201.565C337.945 198.143 340.437 197.198 342.227 199.245Z" fill="#FFA8A7"/>
<path d="M432.841 136.426C439.113 136.812 445.6 140.22 446.588 147.753C447.576 155.285 453.676 195.007 451.285 199.418C445.743 209.742 409.228 229.374 405.591 231.05C400.37 233.755 394.625 235.299 388.751 235.575C383.023 235.575 375.477 235.446 371.639 230.305C368.245 225.737 366.326 217.303 374.002 218.749C379.824 219.627 385.723 219.886 391.6 219.522L390.713 215.842C392.705 215.833 394.684 216.157 396.569 216.802C400.407 217.947 403.887 214.654 410.66 210.472C419.38 205.074 432.655 193.676 432.655 193.676L427.242 160.569C427.242 160.569 427.07 146.22 432.841 136.426Z" fill="#FFA8A7"/>
<path d="M431.709 136.425C434.072 135.997 436.506 136.215 438.755 137.055C442.435 138.487 445.714 140.32 447.247 147.752C448.779 155.184 451.8 182.249 451.8 182.249C451.8 182.249 443.767 188.063 430.693 185.299L425.981 160.769C425.981 160.769 422.33 143.47 431.709 136.425Z" fill="#E0E0E0"/>
</svg>
