<svg width="609" height="490" viewBox="0 0 609 490" fill="none" xmlns="http://www.w3.org/2000/svg">
<path d="M470.395 445.04L463.854 461.356L454.407 458.972L459.13 440.793L470.395 445.04Z" fill="#CE7A63"/>
<path d="M533.053 442.06L530.296 459.434L520.566 459.195L521.132 440.435L533.053 442.06Z" fill="#CE7A63"/>
<path d="M443.291 468.212C451.948 468.331 453.095 468.212 457.953 468.123C462.125 468.033 463.109 468.57 466.461 468.555C469.248 468.555 469.188 465.858 468.369 462.758C467.951 461.268 467.34 457.93 466.789 455.427L455.539 451.315C453.706 454.697 448.193 462.505 443.305 463.086C438.418 463.667 439.848 468.167 443.291 468.212Z" fill="#C177CD"/>
<path d="M483.255 226.386C483.255 226.386 477.071 317.281 473.226 351.881C469.658 385.692 463.313 419.153 454.258 451.924C455.986 453.504 463.347 454.279 467.504 453.906C467.504 453.906 497.559 402.484 494.728 357.424C523.77 278.062 515.008 229.605 515.008 229.605L483.255 226.386Z" fill="#263238"/>
<path opacity="0.5" d="M500.689 330.886C504.295 305.182 499.467 260.941 499.467 260.941L501.896 246.488L507.23 250.883L516.439 259.824C515.202 276.215 511.164 299.669 500.689 330.886Z" fill="black"/>
<path d="M509.003 467.436C517.661 467.257 518.793 467.093 523.651 466.825C527.808 466.586 528.821 467.093 532.159 466.944C534.961 466.825 534.797 464.158 533.873 461.103C533.411 459.613 532.681 456.305 532.025 453.816L519.33 453.161C517.616 456.603 513.697 461.55 508.899 462.31C504.101 463.07 505.561 467.51 509.003 467.436Z" fill="#C177CD"/>
<path d="M494.862 230.783C494.862 230.783 508.392 315.419 514.412 349.75C520.73 385.81 519.881 430.602 518.987 454.294C521.043 455.427 528.359 454.458 532.323 453.117C532.323 453.117 547.075 388.656 539.103 352.805C548.758 268.854 529.045 235.462 529.045 235.462L494.862 230.783Z" fill="#263238"/>
<path d="M490.273 167.767C487.785 176.007 478.859 192.353 463.78 196.078C463.78 196.078 465.732 203.886 459.131 203.156C459.131 203.156 474.449 208.297 484.894 198.79C500.793 184.337 504.265 164.623 497.247 161.732C492.657 159.899 490.988 165.353 490.273 167.767Z" fill="#8B4E96"/>
<path d="M482.688 177.869C481.6 182.339 483.12 190.579 483.224 201.71C483.135 211.068 484.222 217.401 481.928 234.73L531.071 236.548C530.773 223.212 531.994 208.386 542.023 179.836C542.565 178.244 542.764 176.554 542.607 174.88C542.45 173.205 541.94 171.582 541.111 170.118C540.282 168.655 539.153 167.383 537.797 166.387C536.442 165.391 534.891 164.693 533.246 164.339C531.369 163.892 529.372 163.475 527.286 163.102C520.157 161.609 512.932 160.613 505.665 160.122C503.31 160.018 500.852 160.212 498.512 159.988C494.862 159.705 484.878 169.018 482.688 177.869Z" fill="#263238"/>
<path d="M506.991 113.305C506.991 113.305 498.453 113.498 503.34 128.205L508.853 118.58L506.991 113.305Z" fill="#263238"/>
<path d="M526.035 140.929C523.845 147.426 520.954 159.481 525.186 164.592C525.186 164.592 518.734 162.759 504.534 169.3C500.823 163.117 503.878 161.716 503.878 161.716C511.746 160.971 512.252 155.413 511.582 150.049L526.035 140.929Z" fill="#CE7A63"/>
<path opacity="0.2" d="M520.149 144.655L511.582 150.049C511.756 151.298 511.821 152.559 511.775 153.819C514.755 153.819 519.151 151.211 519.837 148.276C520.158 147.098 520.264 145.871 520.149 144.655Z" fill="black"/>
<path d="M533.143 125.21C531.653 136.311 531.251 141.034 525.231 146.637C516.201 155.071 502.999 151.539 501.181 140.379C499.542 130.336 502.284 113.855 513.429 109.638C515.794 108.65 518.381 108.313 520.92 108.662C523.459 109.01 525.859 110.032 527.87 111.62C529.882 113.209 531.431 115.307 532.359 117.697C533.286 120.086 533.557 122.68 533.143 125.21Z" fill="#CE7A63"/>
<path d="M515.797 129.887C515.723 130.782 515.201 131.482 514.635 131.467C514.069 131.452 513.682 130.737 513.756 129.843C513.831 128.949 514.367 128.248 514.933 128.263C515.499 128.278 515.887 129.008 515.797 129.887Z" fill="#263238"/>
<path d="M504.801 129.308C504.726 130.202 504.205 130.902 503.638 130.887C503.072 130.873 502.685 130.142 502.759 129.263C502.834 128.384 503.37 127.669 503.922 127.684C504.473 127.699 504.89 128.429 504.801 129.308Z" fill="#263238"/>
<path d="M504.25 127.743L502.223 127.073C502.223 127.073 503.073 128.697 504.25 127.743Z" fill="#263238"/>
<path d="M507.99 131.334C507.028 133.341 505.816 135.219 504.384 136.922C504.8 137.246 505.284 137.473 505.8 137.586C506.315 137.7 506.85 137.697 507.364 137.577L507.99 131.334Z" fill="#BA4D3C"/>
<path d="M517.929 124.375C517.863 124.381 517.797 124.372 517.735 124.348C517.673 124.325 517.617 124.289 517.571 124.241C517.137 123.781 516.594 123.438 515.993 123.242C515.391 123.047 514.75 123.006 514.129 123.124C514.065 123.139 513.999 123.141 513.935 123.129C513.87 123.118 513.809 123.093 513.754 123.057C513.7 123.02 513.653 122.973 513.618 122.918C513.582 122.863 513.558 122.801 513.548 122.736C513.525 122.6 513.553 122.461 513.628 122.345C513.702 122.229 513.817 122.146 513.95 122.11C514.733 121.95 515.544 121.99 516.308 122.227C517.071 122.464 517.762 122.89 518.316 123.466C518.413 123.566 518.467 123.7 518.467 123.839C518.467 123.978 518.413 124.111 518.316 124.211C518.213 124.314 518.074 124.372 517.929 124.375Z" fill="#263238"/>
<path d="M500.822 123.379C500.761 123.392 500.697 123.393 500.636 123.38C500.574 123.367 500.516 123.341 500.465 123.304C500.409 123.266 500.361 123.216 500.325 123.159C500.289 123.101 500.266 123.037 500.256 122.969C500.246 122.902 500.25 122.834 500.268 122.768C500.286 122.703 500.318 122.642 500.361 122.589C500.81 121.885 501.417 121.296 502.133 120.866C502.849 120.437 503.656 120.18 504.488 120.115C504.553 120.115 504.618 120.129 504.678 120.154C504.738 120.18 504.791 120.218 504.836 120.265C504.881 120.313 504.915 120.369 504.938 120.43C504.96 120.492 504.969 120.557 504.965 120.622C504.958 120.762 504.899 120.894 504.8 120.993C504.701 121.093 504.568 121.151 504.428 121.159C503.768 121.22 503.13 121.431 502.565 121.778C501.999 122.124 501.52 122.595 501.165 123.155C501.085 123.272 500.962 123.352 500.822 123.379Z" fill="#263238"/>
<path d="M515.172 128.325L513.191 127.654C513.191 127.654 514.07 129.338 515.172 128.325Z" fill="#263238"/>
<path d="M506.097 140.782C509.311 140.29 512.565 140.111 515.813 140.245C515.34 141.501 514.466 142.566 513.327 143.275C512.187 143.983 510.845 144.296 509.51 144.164C509.055 144.202 508.597 144.141 508.168 143.985C507.738 143.829 507.348 143.581 507.024 143.26C506.699 142.938 506.449 142.55 506.289 142.122C506.129 141.695 506.064 141.237 506.097 140.782Z" fill="#263238"/>
<path d="M511.313 142.449C509.888 142.364 508.472 142.724 507.26 143.477C507.914 143.947 508.705 144.188 509.51 144.163C510.932 144.25 512.346 143.885 513.548 143.12C512.898 142.654 512.112 142.418 511.313 142.449Z" fill="#FF5652"/>
<path d="M506.426 140.721C506.475 140.986 506.6 141.231 506.785 141.426C506.97 141.622 507.207 141.76 507.469 141.824C509.6 141.829 511.728 141.66 513.831 141.317C514.176 141.287 514.507 141.174 514.798 140.987C515.089 140.8 515.33 140.545 515.5 140.245C512.467 140.166 509.433 140.325 506.426 140.721Z" fill="white"/>
<path d="M530.371 133.168C530.371 133.168 522.92 130.634 519.597 116.181C519.597 116.181 517.615 120.532 521.519 128.533C521.519 128.533 512.475 125.449 513.115 116.315C513.115 116.315 505.993 120.785 511.104 127.356C511.104 127.356 499.451 120.696 506.961 111.964C506.961 111.964 506.604 95.0216 523.084 105.288C523.084 105.288 563.406 118.043 529.223 141.84L530.371 133.168Z" fill="#263238"/>
<path d="M536.123 134.449C535.497 135.449 534.68 136.315 533.719 136.998C532.757 137.681 531.67 138.167 530.52 138.428C527.54 139.039 526.407 136.073 527.54 133.153C528.553 130.53 531.339 127.058 534.186 127.759C537.032 128.459 537.747 131.886 536.123 134.449Z" fill="#CE7A63"/>
<path d="M512.922 107.315C512.922 107.315 498.021 108.73 501.001 119.235C501.001 119.235 502.67 113.275 511.655 113.797L512.922 107.315Z" fill="#263238"/>
<path d="M512.922 107.313C512.094 107.487 511.239 107.487 510.411 107.315C509.583 107.142 508.799 106.8 508.109 106.311C507.419 105.821 506.838 105.194 506.402 104.469C505.966 103.744 505.685 102.937 505.575 102.098C505.575 102.098 500.315 112.424 510.239 110.16L512.922 107.313Z" fill="#263238"/>
<path d="M526.6 164.875C526.6 164.875 523.501 162.788 523.442 156.903C523.446 156.679 523.4 156.458 523.307 156.254C523.215 156.051 523.077 155.871 522.906 155.728C522.734 155.585 522.532 155.482 522.315 155.427C522.099 155.373 521.872 155.368 521.653 155.413C518.451 156.007 515.153 155.839 512.028 154.921C511.827 154.858 511.615 154.839 511.406 154.864C511.198 154.889 510.997 154.958 510.817 155.067C510.636 155.175 510.481 155.32 510.361 155.493C510.241 155.666 510.159 155.862 510.12 156.068C509.733 158.05 508.511 161.03 504.741 161.045L498.781 162.937L501.523 171.073L509.122 171.938L524.172 170.135L527.763 165.873L526.6 164.875Z" fill="#263238"/>
<path d="M525.423 161.255C524.933 161.136 524.421 161.133 523.93 161.247C523.438 161.361 522.98 161.588 522.592 161.911C519.12 164.727 510.016 174.189 506.842 197.673C502.893 226.938 516.408 259.854 516.408 259.854L541.501 253.7C541.501 253.7 531.071 238.486 532.471 222.974C533.872 207.463 546.657 177.095 543.513 170.702C540.92 165.472 529.58 162.269 525.423 161.255Z" fill="#C177CD"/>
<path d="M525.781 163.402C525.781 163.402 524.589 174.22 522.533 177.066C521.743 178.154 517.69 178.556 517.973 179.882C518.316 181.447 523.74 179.182 524.366 180.657C526.944 186.617 507.513 201.607 507.513 201.607C507.513 201.607 523.233 187.556 520.924 182.415C520.045 180.478 512.982 183.086 512.564 180.925C512.102 178.541 519.27 177.662 520.819 175.814C522.965 173.311 525.781 163.402 525.781 163.402Z" fill="#8B4E96"/>
<path d="M506.425 159.676C506.932 159.781 506.962 159.87 506.53 160.153C503.192 162.299 495.622 171.09 492.821 206.673C489.185 252.866 482.778 257.336 482.778 257.336L476.385 255.235C476.385 255.235 478.904 246.906 480.334 227.654C480.886 220.203 480.081 206.644 480.14 193.933C480.245 174.503 490.139 156.383 506.425 159.676Z" fill="#C177CD"/>
<path d="M501.27 162.208C501.27 162.208 491.152 170.552 491.227 174.531C491.227 175.872 495.25 177.332 494.788 178.614C494.162 180.312 488.634 178.256 487.606 179.761C485.058 183.486 491.48 198.894 491.48 198.894C491.48 198.894 482.107 182.503 484.775 178.137C485.55 176.87 490.169 178.733 490.661 177.332C490.973 176.394 487.889 175.455 487.934 174.471C488.008 169.942 501.27 162.208 501.27 162.208Z" fill="#8B4E96"/>
<path d="M511.238 225.553L456.374 182.34C463.288 172.98 466.288 161.297 464.738 149.764C463.189 138.231 457.212 127.753 448.073 120.55C438.934 113.346 427.35 109.982 415.774 111.169C404.198 112.357 393.539 118.003 386.053 126.912C378.567 135.821 374.842 147.294 375.666 158.901C376.491 170.509 381.8 181.34 390.471 189.101C399.141 196.862 410.492 200.945 422.119 200.484C433.747 200.023 444.739 195.055 452.768 186.632L504.801 233.271C505.302 233.718 505.887 234.06 506.522 234.278C507.157 234.495 507.83 234.582 508.499 234.535C509.169 234.488 509.822 234.307 510.421 234.003C511.019 233.698 511.55 233.278 511.983 232.765C512.426 232.25 512.758 231.65 512.961 231.003C513.164 230.355 513.232 229.673 513.163 228.998C513.093 228.323 512.886 227.67 512.555 227.077C512.225 226.485 511.776 225.966 511.238 225.553ZM394.625 186.229C388.576 181.141 384.173 174.374 381.97 166.783C379.768 159.192 379.866 151.118 382.252 143.583C384.638 136.048 389.205 129.389 395.375 124.45C401.545 119.51 409.042 116.511 416.916 115.831C424.791 115.152 432.691 116.823 439.616 120.633C446.541 124.443 452.18 130.221 455.822 137.237C459.463 144.252 460.942 152.189 460.072 160.045C459.203 167.901 456.023 175.323 450.935 181.372C447.56 185.392 443.426 188.708 438.768 191.13C434.111 193.551 429.022 195.031 423.793 195.485C418.563 195.939 413.296 195.358 408.291 193.775C403.286 192.192 398.642 189.638 394.625 186.259V186.229Z" fill="#263238"/>
<path opacity="0.5" d="M511.238 225.553L456.374 182.34C463.288 172.98 466.288 161.297 464.738 149.764C463.189 138.231 457.212 127.753 448.073 120.55C438.934 113.346 427.35 109.982 415.774 111.169C404.198 112.357 393.539 118.003 386.053 126.912C378.567 135.821 374.842 147.294 375.666 158.901C376.491 170.509 381.8 181.34 390.471 189.101C399.141 196.862 410.492 200.945 422.119 200.484C433.747 200.023 444.739 195.055 452.768 186.632L504.801 233.271C505.302 233.718 505.887 234.06 506.522 234.278C507.157 234.495 507.83 234.582 508.499 234.535C509.169 234.488 509.822 234.307 510.421 234.003C511.019 233.698 511.55 233.278 511.983 232.765C512.426 232.25 512.758 231.65 512.961 231.003C513.164 230.355 513.232 229.673 513.163 228.998C513.093 228.323 512.886 227.67 512.555 227.077C512.225 226.485 511.776 225.966 511.238 225.553ZM394.625 186.229C388.576 181.141 384.173 174.374 381.97 166.783C379.768 159.192 379.866 151.118 382.252 143.583C384.638 136.048 389.205 129.389 395.375 124.45C401.545 119.51 409.042 116.511 416.916 115.831C424.791 115.152 432.691 116.823 439.616 120.633C446.541 124.443 452.18 130.221 455.822 137.237C459.463 144.252 460.942 152.189 460.072 160.045C459.203 167.901 456.023 175.323 450.935 181.372C447.56 185.392 443.426 188.708 438.768 191.13C434.111 193.551 429.022 195.031 423.793 195.485C418.563 195.939 413.296 195.358 408.291 193.775C403.286 192.192 398.642 189.638 394.625 186.259V186.229Z" fill="white"/>
<path d="M505.174 217.594C507.413 218.993 509.732 220.262 512.117 221.394C514.532 222.551 517.021 223.547 519.568 224.374C522.352 225.286 525.241 225.842 528.165 226.028C529.963 226.129 531.766 225.963 533.515 225.536C535.894 224.95 538.036 223.65 539.654 221.811C539.869 221.557 540.059 221.283 540.22 220.991L540.399 220.634C541.869 217.921 543.057 215.065 543.945 212.11C544.822 209.192 545.431 206.199 545.763 203.17C546.106 200.203 546.205 197.213 546.061 194.229C546.061 192.739 545.853 191.249 545.659 189.759C545.57 189.014 545.465 188.269 545.331 187.509L545.108 186.362L544.81 185.051C544.464 183.31 543.441 181.778 541.965 180.791C540.49 179.805 538.683 179.445 536.942 179.791C535.201 180.136 533.669 181.16 532.683 182.635C531.696 184.111 531.336 185.917 531.682 187.658L531.786 188.224L531.891 188.88L532.025 189.715L532.263 191.428C532.397 192.59 532.502 193.768 532.561 194.945C532.695 197.292 532.695 199.645 532.561 201.993C532.294 206.277 531.385 210.496 529.864 214.509C529.292 214.691 528.703 214.811 528.106 214.867C526.011 215.007 523.908 214.917 521.833 214.599C519.583 214.316 517.258 213.854 514.919 213.347C512.579 212.841 510.18 212.215 507.915 211.634H507.766C506.992 211.423 506.167 211.499 505.444 211.847C504.72 212.196 504.147 212.793 503.828 213.53C503.51 214.267 503.467 215.094 503.709 215.859C503.95 216.625 504.46 217.278 505.144 217.698L505.174 217.594Z" fill="#CE7A63"/>
<path d="M496.531 207.192L499.512 206.447C500.098 206.313 500.708 206.315 501.294 206.452C501.88 206.589 502.427 206.857 502.894 207.237L507.454 210.888C509.286 212.378 511.328 216.446 510.33 218.129C507.677 222.6 498.603 217.742 498.603 217.742L496.606 217.399C495.773 217.265 495.019 216.83 494.486 216.176C493.953 215.522 493.679 214.696 493.715 213.853L494.043 209.979C494.108 209.31 494.384 208.679 494.831 208.178C495.279 207.677 495.874 207.332 496.531 207.192Z" fill="#CE7A63"/>
<path d="M535.765 166.918C536.617 166.498 537.573 166.334 538.517 166.445C539.46 166.556 540.352 166.938 541.084 167.543C544.765 170.524 550.576 178.719 547.819 201.338C543.9 233.464 527.718 228.964 509.405 220.277L510.523 211.843C510.523 211.843 523.054 215.39 529.596 214.034C531.623 208.639 532.555 202.895 532.337 197.136C531.861 188.896 527.435 171.388 535.765 166.918Z" fill="#8B4E96"/>
<path d="M450.115 194.795L450.979 197.984C451.144 198.585 451.439 199.141 451.844 199.615C452.248 200.089 452.752 200.468 453.319 200.726L458.698 203.14C458.995 203.271 459.312 203.352 459.637 203.378C460.478 203.474 461.33 203.33 462.092 202.96C462.855 202.591 463.497 202.013 463.943 201.293C464.39 200.574 464.623 199.742 464.615 198.895C464.607 198.047 464.358 197.22 463.898 196.509C462.818 194.739 461.571 193.078 460.173 191.547L458.892 189.878C458.412 189.174 457.679 188.683 456.846 188.508C456.012 188.332 455.143 188.487 454.421 188.939L451.277 191.159C450.737 191.575 450.336 192.146 450.128 192.796C449.921 193.445 449.916 194.143 450.115 194.795Z" fill="#CE7A63"/>
<path d="M92.4059 199.184L210.09 130.685" stroke="black" stroke-linecap="round"/>
<path d="M92.4059 217.429L210.09 148.93" stroke="black" stroke-linecap="round"/>
<path d="M92.3032 217.382V199.291M211.123 130.494V148.489" stroke="black"/>
<path d="M341.72 438.15C341.957 441.168 340.083 444.157 336.664 446.535C333.255 448.905 328.39 450.604 322.876 451.036C317.362 451.469 312.291 450.55 308.555 448.74C304.806 446.924 302.49 444.264 302.253 441.246C302.016 438.227 303.889 435.239 307.309 432.86C310.718 430.49 315.583 428.792 321.097 428.359C326.611 427.927 331.682 428.846 335.418 430.656C339.167 432.471 341.483 435.131 341.72 438.15Z" stroke="black"/>
<ellipse cx="321.986" cy="439.698" rx="9.08811" ry="5.31706" transform="rotate(-4.48501 321.986 439.698)" fill="black"/>
<ellipse cx="367.524" cy="413.272" rx="9.08811" ry="5.31706" transform="rotate(-4.48501 367.524 413.272)" fill="black"/>
<path d="M386.9 411.926C387.137 414.945 385.263 417.933 381.844 420.311C378.435 422.682 373.57 424.38 368.056 424.812C362.541 425.245 357.471 424.326 353.735 422.516C349.986 420.7 347.67 418.04 347.433 415.022C347.196 412.003 349.069 409.015 352.489 406.637C355.897 404.267 360.763 402.568 366.277 402.136C371.791 401.703 376.862 402.622 380.598 404.432C384.347 406.248 386.663 408.908 386.9 411.926Z" stroke="black"/>
<path d="M230.186 266.346C235.544 263.405 240.843 260.329 246.23 257.445C246.947 257.061 247.672 256.799 248.345 256.318C249.385 255.576 250.493 254.999 251.505 254.23C254.678 251.819 258.371 249.959 261.834 248.035C269.757 243.634 277.578 238.799 285.762 234.89C287.163 234.221 288.809 233.302 290.117 232.459C291.36 231.657 292.601 230.887 293.784 230C296.352 228.074 299.623 226.543 302.479 225.069C304.199 224.181 306.431 223.376 307.946 222.198C308.83 221.51 310.165 220.604 311.284 220.604" stroke="black" stroke-width="2.8" stroke-linecap="round"/>
<path d="M253.922 285.136C253.988 285.66 256.003 284.485 256.23 284.367C258.878 282.988 261.224 281.09 263.895 279.724C266.603 278.338 269.046 276.06 271.903 275.04C273.779 274.37 275.467 272.88 277.274 271.977C279.252 270.988 281.436 270.276 283.345 269.175C284.066 268.759 285.297 268.349 285.818 267.829" stroke="black" stroke-width="2.8" stroke-linecap="round"/>
<path d="M285.818 267.829H286.065" stroke="black" stroke-width="3" stroke-linecap="round"/>
<path d="M259.362 304.669C260.843 304.669 261.863 303.77 263.098 303.021C265.763 301.406 268.314 299.455 271.079 298.021C276.439 295.242 281.984 292.654 287.191 289.587C289.156 288.43 291.352 287.798 293.427 286.868C294.672 286.31 295.972 285.843 297.191 285.233C298.541 284.558 299.697 283.574 301.051 282.912C303.582 281.674 306.209 280.69 308.702 279.381C310.832 278.263 313.685 276.236 316.229 276.236" stroke="black" stroke-width="2.8" stroke-linecap="round"/>
<path d="M258.867 317.773C261.899 317.629 264.991 315.606 267.603 314.257C270.829 312.59 274.422 311.057 277.466 309.078C280.767 306.932 284.651 305.136 288.29 303.68" stroke="black" stroke-width="2.8" stroke-linecap="round"/>
<path d="M268.758 414.695C269.934 414.564 271.364 413.659 272.467 413.266C275.469 412.195 278.486 411.042 281.313 409.558C285.221 407.506 288.392 404.605 292.191 402.36C295.939 400.145 299.838 398.297 303.744 396.371C306.537 394.993 309.205 393.207 311.875 391.605C314.906 389.786 318.307 388.638 321.477 387.085C326.123 384.809 330.798 381.887 335.103 379.009C338.458 376.765 342.27 374.81 345.405 372.278C347.09 370.917 349.384 370.152 350.995 368.789C351.903 368.021 352.841 367.375 353.811 366.729" stroke="black" stroke-width="2.8" stroke-linecap="round"/>
<path d="M294.035 322.017C293.599 322.297 292.832 322.371 292.357 322.51C292.009 322.612 291.164 322.713 290.905 323.065C290.602 323.476 290.55 324.016 290.525 324.511C290.484 325.3 290.473 326.148 291.446 326.148C291.805 326.148 292.165 326.148 292.525 326.148C292.936 326.148 293.244 325.71 293.556 325.497C293.993 325.198 294.159 325.021 294.347 324.528C294.672 323.674 294.775 322.617 294.775 321.709" stroke="black" stroke-linecap="round"/>
<path d="M292.247 332.559C291.326 332.732 290.814 333.264 290.35 334.066C289.891 334.857 289.171 336.091 289.377 337.059C289.538 337.816 290.46 338.261 291.083 338.559C291.517 338.767 292.02 338.75 292.494 338.72C293.06 338.685 293.723 338.268 294.121 337.888C294.902 337.142 295.24 335.94 295.446 334.912C295.651 333.887 295.2 333.328 294.377 332.734C293.645 332.205 292.894 331.704 292.172 331.162C291.919 330.971 291.673 330.702 291.384 330.586" stroke="black" stroke-linecap="round"/>
<path d="M291.508 345.135C290.993 345.366 290.636 345.996 290.377 346.467C289.962 347.226 289.629 348.226 289.86 349.094C290.201 350.373 291.728 350.362 292.621 349.759C293.745 348.999 294.478 347.886 294.467 346.539C294.46 345.772 294.063 344.827 293.172 344.827" stroke="black" stroke-linecap="round"/>
<path d="M292.494 355.676C292.394 355.951 292.004 356.22 291.822 356.444C291.46 356.888 291.173 357.329 291.041 357.896C290.814 358.873 290.983 360.027 292 360.451C292.546 360.678 293.147 360.608 293.726 360.608C294.285 360.608 294.574 360.632 295.021 360.297C295.676 359.805 295.638 358.878 295.638 358.142" stroke="black" stroke-linecap="round"/>
<path d="M295.206 357.403C294.975 357.101 294.452 357.204 294.158 356.91" stroke="black" stroke-linecap="round"/>
<path d="M139.06 216.293C140.465 218.445 142.64 220.311 143.575 222.747C143.888 223.563 144.151 224.386 144.504 225.191C144.977 226.265 145.153 227.301 145.514 228.404C145.915 229.632 146.003 230.976 146.47 232.176C146.807 233.043 146.625 233.911 146.775 234.812C146.924 235.706 147.174 236.661 147.187 237.567C147.211 239.241 147.426 240.914 147.426 242.587" stroke="black" stroke-width="2.8" stroke-linecap="round"/>
<path d="M146.709 206.373C147.343 206.506 147.971 207.519 148.369 207.98C149.061 208.781 149.77 209.578 150.441 210.397C151.724 211.961 152.844 213.733 153.734 215.549C154.491 217.093 155.677 218.425 156.124 220.117C156.647 222.096 157.173 224.115 157.784 226.067C158.416 228.083 158.918 230.144 159.112 232.255C159.261 233.868 159.899 235.476 159.976 237.089C159.994 237.47 160.124 238.868 159.856 239.002" stroke="black" stroke-width="2.8" stroke-linecap="round"/>
<path d="M164.398 212.707C164.943 212.737 165.204 213.273 165.474 213.69C166.148 214.733 166.599 215.915 167.24 216.983C168.172 218.537 168.784 220.41 169.033 222.202C169.305 224.158 169.657 225.993 169.657 227.979C169.657 229.223 169.657 230.467 169.657 231.711" stroke="black" stroke-width="2.8" stroke-linecap="round"/>
<path d="M174.199 202.906C174.15 202.92 176.438 207.683 176.616 208.099C177.587 210.371 178.307 212.751 178.98 215.124C179.525 217.048 179.465 219.02 179.816 220.954C180.037 222.167 180.055 223.428 180.055 224.659" stroke="black" stroke-width="2.8" stroke-linecap="round"/>
<path d="M139.187 277.728C139.187 282.155 139.187 286.582 139.187 291.009C139.187 292.604 139.15 294.142 139.399 295.718C139.625 297.153 139.61 298.565 139.61 300.011" stroke="black" stroke-linecap="round"/>
<path d="M159.411 357.742C159.831 357.71 160.206 357.555 160.588 357.388C162.262 356.654 163.826 355.629 165.337 354.609C167.82 352.934 170.312 351.362 172.949 349.931C174.15 349.28 175.527 348.76 176.592 347.883C178.871 346.006 181.424 343.515 184.289 342.56" stroke="black" stroke-width="2.8" stroke-linecap="round"/>
<path d="M111.648 214.613L218.797 152.684" stroke="black" stroke-width="2" stroke-linecap="round"/>
<path d="M110.41 214.716C112.906 216.422 114.181 217.792 115.982 219.992C116.645 220.802 117.475 221.226 117.92 222.226C118.641 223.849 120.348 224.814 120.773 226.64C121.15 228.263 122.544 229.792 122.751 231.445C122.954 233.069 123.647 234.404 124.191 235.9C125.395 239.212 125.988 242.802 126.627 246.316C127 248.369 127.009 250.663 127.125 252.749C127.154 253.271 127.488 253.865 127.596 254.351C127.798 255.261 127.609 256.423 127.609 257.352C127.609 279.639 127.609 301.925 127.609 324.212" stroke="black" stroke-width="2" stroke-linecap="round"/>
<path d="M218.453 153.184C218.85 151.597 222.974 157.489 223.163 157.679C224.786 159.302 225.999 161.513 226.878 163.601C229.653 170.193 230.55 177.406 231.279 184.69C231.819 190.094 231.292 195.83 231.292 201.257C231.292 208.488 231.292 215.72 231.292 222.951C231.292 232.722 231.292 242.493 231.292 252.263" stroke="black" stroke-width="2" stroke-linecap="round"/>
<path d="M127.382 324.909C127.451 327.448 126.901 331.074 128.056 333.473C128.346 334.076 128.534 334.706 128.72 335.346C129.155 336.844 129.856 338.245 130.336 339.727C130.778 341.094 131.054 342.965 131.922 344.138C132.792 345.316 133.365 346.687 134.023 348.004C135.241 350.44 136.228 352.913 137.472 355.319C138.273 356.866 138.826 358.483 139.613 360.057C140.247 361.325 140.965 362.477 141.853 363.555C148.519 371.65 158.552 375.578 168.873 375.578C170.002 375.578 170.921 375.549 171.985 375.261C173.057 374.971 174.015 374.624 175.028 374.151C175.784 373.798 176.827 373.642 177.446 373.071C178.079 372.486 178.965 372.217 179.558 371.653C180.459 370.797 181.409 370 182.293 369.116C183.528 367.881 184.577 366.506 185.366 364.973C187.517 360.79 188.399 356.574 188.399 351.879C188.399 349.952 188.666 347.768 188.221 345.883C187.837 344.256 187.329 342.468 187.329 340.788" stroke="black" stroke-width="2" stroke-linecap="round"/>
<path d="M187.328 291.189V339.895" stroke="black" stroke-width="2" stroke-linecap="round"/>
<path d="M187.507 292.081C187.619 290.072 188.999 288.304 189.48 286.382C189.739 285.343 190.081 283.975 190.629 283.062C191.139 282.212 191.378 280.778 191.571 279.811C191.734 278.995 192.204 278.254 192.681 277.59C193.728 276.136 194.886 275.663 196.497 275.043C198.198 274.389 200.032 273.853 201.85 273.695C204.853 273.434 208.386 273.14 211.315 274.062C212.599 274.466 214.096 274.921 215.419 275.132C216.968 275.38 218.389 276.236 219.899 276.659C222.692 277.441 225.079 279.755 227.293 281.466C228.593 282.47 229.671 283.959 230.643 285.262C231.726 286.713 232.808 288.285 233.676 289.881C234.751 291.856 235.65 293.945 236.749 295.907C237.692 297.591 238.246 299.424 239.078 301.141C239.706 302.436 239.991 303.976 240.456 305.324C240.892 306.587 241.056 308.005 241.249 309.308C241.408 310.386 241.365 311.618 241.705 312.639C241.965 313.42 241.86 314.359 242.141 315.097C242.385 315.738 242.186 316.422 242.369 317.079C242.642 318.064 242.458 319.248 242.458 320.271C242.458 325.666 242.458 331.061 242.458 336.457C242.458 352.233 242.458 368.009 242.458 383.785" stroke="black" stroke-width="2" stroke-linecap="round"/>
<path d="M241.744 383.785C241.744 385.638 241.444 387.791 241.883 389.594C242.18 390.818 242.202 392.035 242.547 393.261C243.095 395.21 243.389 397.199 243.974 399.149C244.481 400.84 244.895 402.494 245.491 404.124C246.165 405.969 246.86 407.88 247.632 409.695C248.53 411.81 249.38 413.937 250.387 415.999C251.403 418.079 251.788 420.396 252.994 422.432C253.987 424.108 254.961 425.763 255.918 427.437C256.838 429.048 258.185 430.43 259.327 431.877C260.203 432.986 261.225 433.953 262.222 434.95C263.329 436.058 264.282 437.283 265.572 438.201C266.901 439.147 267.954 440.347 269.388 441.135C270.229 441.598 271.134 441.926 271.985 442.384C273.457 443.177 274.988 443.712 276.356 444.624" stroke="black" stroke-width="2" stroke-linecap="round"/>
<path d="M277.427 444.981C278.208 444.981 278.56 445.122 279.231 445.626C281.072 447.007 283.087 448.152 285.098 449.263C287.583 450.636 289.735 452.492 292.156 453.991C293.555 454.857 294.772 455.792 296.279 456.479C297.86 457.199 298.989 458.384 300.452 459.244C301.714 459.987 303.025 460.537 304.268 461.336C305.797 462.319 307.211 463.451 308.827 464.289C311.517 465.684 313.75 467.886 316.4 469.325C319.349 470.926 321.95 473.016 324.864 474.667C327.263 476.026 329.808 476.939 332.368 477.898C333.371 478.275 334.704 478.88 335.767 478.88" stroke="black" stroke-width="2" stroke-linecap="round"/>
<path d="M336.124 479.058C337.131 478.98 338.001 478.551 338.919 478.156C340.625 477.422 342.383 476.796 344.063 476.005C345.519 475.32 346.896 474.521 348.395 473.923C349.979 473.292 351.26 472.332 352.736 471.505C353.737 470.944 354.825 470.665 355.858 470.187C357.295 469.522 358.6 468.569 359.942 467.738C360.984 467.093 362.126 466.644 363.163 465.994C364.367 465.239 365.485 464.415 366.771 463.793C369.159 462.639 371.609 461.465 373.947 460.215C374.982 459.662 376.019 459.08 377.04 458.501C378.32 457.773 379.35 456.741 380.687 456.082C385.941 453.495 391.205 450.935 396.229 447.935C398.344 446.671 400.548 445.545 402.711 444.366C405.468 442.865 408.081 441.146 410.72 439.45C412.229 438.48 413.863 437.718 415.339 436.695C417.386 435.275 419.216 433.586 421.127 431.996C423.347 430.151 425.762 428.598 428.006 426.803C430.682 424.662 433.781 422.84 436.758 421.153C437.702 420.618 438.632 420.062 439.563 419.508C440.37 419.027 441.087 418.196 441.922 417.862" stroke="black" stroke-width="2" stroke-linecap="round"/>
<path d="M376.445 377.72C378.111 377.803 379.944 379.468 381.183 380.436C382.53 381.488 383.724 382.723 385.227 383.568C386.598 384.339 388.036 385.004 389.459 385.669C392.808 387.236 396.07 388.954 399.539 390.288C401.496 391.041 403.64 391.513 405.526 392.429C406.459 392.883 407.313 393.432 408.282 393.817C408.941 394.079 409.882 394.323 410.432 394.768C413.048 396.886 415.409 399.292 417.836 401.627C418.973 402.721 420.455 403.35 421.801 404.125C423.473 405.088 424.799 406.568 426.301 407.763C428.114 409.204 429.856 410.76 431.931 411.797C433.868 412.765 435.6 414.047 437.561 414.909C438.429 415.291 439.299 415.788 440.227 415.99C440.895 416.135 441.405 416.614 442.101 416.614" stroke="black" stroke-width="2" stroke-linecap="round"/>
<path d="M349.862 317.059C349.862 321.229 349.839 325.399 349.862 329.568C349.886 333.77 351.588 337.538 352.538 341.541C354.164 348.384 359.45 353.827 363.421 359.343C366.132 363.107 367.768 367.634 371.073 370.94C372.131 371.997 373.295 373.702 374.027 375.033C374.334 375.592 374.643 376.142 374.919 376.718C375.11 377.116 375.554 377.297 375.554 377.719" stroke="black" stroke-width="2" stroke-linecap="round"/>
<path d="M349.508 256.382V316.459" stroke="black" stroke-width="2" stroke-linecap="round"/>
<path d="M219.664 261.227C219.756 260.4 221.515 259.502 222.1 259.034C223.868 257.619 225.884 256.541 227.752 255.279C228.804 254.568 229.895 253.613 230.807 252.749C232.26 251.372 234.279 250.763 235.841 249.599C237.748 248.179 239.798 246.854 241.83 245.616C242.942 244.938 244.209 244.157 245.463 243.786C246.509 243.476 247.325 242.666 248.33 242.224C253.282 240.046 257.963 236.887 262.326 233.719C264.491 232.147 266.892 230.778 269.177 229.385C271.314 228.082 273.432 226.465 275.744 225.496C279.77 223.808 284.152 221.821 287.843 219.453C289.247 218.552 290.834 218.069 292.23 217.138C293.154 216.523 294.605 216.083 295.366 215.321C296.009 214.679 297.113 214.576 297.91 214.178C298.994 213.635 300.156 213.16 301.301 212.778" stroke="black" stroke-width="2" stroke-linecap="round"/>
<path d="M299.848 212.535C300.417 212.472 300.341 211.833 301.005 211.809C301.737 211.782 302.541 211.438 303.185 211.082C303.829 210.727 304.476 210.506 305.123 210.113C305.691 209.768 306.345 209.887 306.927 209.521C309.839 207.687 314.4 208.848 317.263 210.019C319.315 210.858 321.471 211.363 323.332 212.643C325.078 213.843 326.67 215.399 328.433 216.533C331.442 218.467 333.87 221.631 335.566 224.755C336.346 226.193 337.633 227.005 338.419 228.335C338.935 229.209 339.682 229.853 340.168 230.704C340.671 231.583 341.376 232.617 341.999 233.423C343.633 235.538 345.452 237.467 346.373 239.923C346.985 241.556 347.582 243.285 347.826 244.997C347.971 246.01 348.782 246.905 348.782 248.038C348.782 249.415 349.751 250.608 349.751 252.022C349.751 253.233 349.751 254.444 349.751 255.655" stroke="black" stroke-width="2" stroke-linecap="round"/>
<path d="M262.488 373.183C259.563 371.951 257.58 368.856 256.907 364.562C256.237 360.286 256.907 354.983 259.134 349.695C261.362 344.406 264.689 340.222 268.217 337.715C271.759 335.196 275.359 334.454 278.283 335.686C281.208 336.918 283.191 340.012 283.864 344.306C284.534 348.582 283.865 353.885 281.637 359.174C279.409 364.462 276.083 368.646 272.555 371.154C269.012 373.672 265.413 374.415 262.488 373.183Z" stroke="black" stroke-width="2"/>
<path d="M317.928 340.184C315.003 338.952 313.02 335.858 312.347 331.564C311.677 327.288 312.347 321.985 314.574 316.696C316.802 311.408 320.129 307.224 323.657 304.716C327.199 302.198 330.799 301.455 333.723 302.687C336.648 303.919 338.631 307.014 339.304 311.308C339.974 315.584 339.305 320.887 337.077 326.175C334.849 331.464 331.523 335.648 327.995 338.155C324.452 340.674 320.853 341.416 317.928 340.184Z" stroke="black" stroke-width="2"/>
<path d="M333.042 460.931C334.086 460.826 335.029 460.125 335.899 459.599C338.703 457.903 341.494 456.187 344.305 454.502C348.36 452.073 352.293 449.403 356.407 447.085C364.424 442.568 372.782 438.708 380.871 434.338C387.726 430.635 394.336 426.538 401.282 422.992C407.68 419.726 413.557 415.254 420.321 412.717" stroke="black" stroke-width="2" stroke-linecap="round"/>
<path d="M280.872 431.755C283.227 431.755 285.134 429.534 286.779 428.129C288.688 426.498 290.915 425.248 292.987 423.843C295.435 422.184 297.555 420.175 299.91 418.404C303.023 416.064 306.656 413.994 310.103 412.209C311.664 411.4 313.008 410.383 314.745 409.997" stroke="black" stroke-width="2" stroke-linecap="round"/>
<path d="M332.053 400.601C334.164 400.484 336.574 398.709 338.344 397.716C342.17 395.571 345.699 392.875 349.594 390.862C354.031 388.57 358.506 386.262 362.959 384.035" stroke="black" stroke-width="2" stroke-linecap="round"/>
<path d="M255.406 396.152C256.667 396.152 257.764 396.007 258.991 395.589C262.16 394.509 265.486 393.632 268.538 392.251C272.282 390.558 275.951 388.511 279.499 386.441C281.252 385.418 282.977 384.338 284.719 383.295C285.829 382.631 286.67 381.631 287.795 381.015C288.55 380.602 289.806 380.033 290.268 379.339" stroke="black" stroke-width="2" stroke-linecap="round"/>
<path d="M310.048 365.492C310.628 365.492 311.105 365.148 311.641 364.943C313.992 364.044 316.262 362.973 318.523 361.866C323.143 359.604 327.702 357.541 332.081 354.847C334.514 353.349 337.592 352.614 339.828 350.85C341.829 349.27 344.138 348.076 346.394 346.949" stroke="black" stroke-width="2" stroke-linecap="round"/>
<path d="M297.425 343.409C297.533 343.409 297.605 343.357 297.699 343.299C298.207 342.985 298.69 342.631 299.199 342.319C301.307 341.031 303.506 339.91 305.563 338.538" stroke="black" stroke-width="2" stroke-linecap="round"/>
<path d="M299.399 331.573C301.373 330.448 303.424 329.507 305.471 328.525C306.119 328.213 306.742 327.881 307.351 327.504" stroke="black" stroke-width="2" stroke-linecap="round"/>
<path d="M300.878 320.476C302.241 319.854 303.636 319.119 304.824 318.195C305.11 317.972 305.515 317.753 305.872 317.702" stroke="black" stroke-width="2" stroke-linecap="round"/>
<path d="M300.693 354.752C302.383 354.046 303.951 353.271 305.433 352.201C306.168 351.67 306.771 350.733 307.659 350.437" stroke="black" stroke-width="2" stroke-linecap="round"/>
<path d="M179.697 186.891C180.375 186.815 181.278 185.912 181.782 185.523C183.072 184.527 184.32 183.483 185.633 182.515C189.477 179.679 193.345 177.088 197.532 174.793C200.829 172.986 204.209 171.306 207.644 169.78C211.269 168.169 214.827 166.292 218.541 164.899" stroke="black" stroke-width="2" stroke-linecap="round"/>
<path d="M183.64 194.899C184.521 194.093 185.666 193.56 186.668 192.934C189.586 191.113 192.404 189.131 195.446 187.516C198.699 185.79 201.877 183.947 205.194 182.343C207.457 181.249 209.82 180.39 212 179.123C213.208 178.421 214.341 177.608 215.552 176.912C216.254 176.508 217.003 176.169 217.743 175.843C218.098 175.687 218.502 175.575 218.779 175.298" stroke="black" stroke-width="2" stroke-linecap="round"/>
<path d="M187.466 204.818C189.315 204.492 191.223 203.609 192.924 202.866C196.76 201.191 200.583 199.284 204.272 197.302C207.834 195.387 211.479 193.606 214.995 191.605C217.019 190.453 219.09 189.407 221.117 188.265C222.201 187.654 223.537 187.034 224.397 186.173" stroke="black" stroke-width="2" stroke-linecap="round"/>
<path d="M189.019 215.097C189.13 215.544 191.013 214.637 191.097 214.599C194.543 213.06 197.871 211.057 201.183 209.248C205.77 206.741 210.247 204.078 214.875 201.645C217.127 200.461 219.277 199.15 221.482 197.88C222.306 197.405 223.107 196.916 223.905 196.399C224.472 196.032 225.249 195.839 225.711 195.377" stroke="black" stroke-width="2" stroke-linecap="round"/>
<path d="M138.701 260.875C139.441 260.702 140.14 260.247 140.773 259.852C142.573 258.729 144.164 257.335 145.892 256.114C147.252 255.153 148.724 254.381 150.149 253.524C151.63 252.633 153.047 251.644 154.505 250.715C158.351 248.263 162.526 246.254 166.656 244.328C168.858 243.301 170.816 241.843 173.01 240.782C174.839 239.898 176.597 238.855 178.475 238.073C180.298 237.313 182.185 236.706 183.986 235.895C185.659 235.142 187.234 234.195 188.906 233.445C192.339 231.905 195.752 230.321 199.026 228.465C203.012 226.204 207.124 224.162 210.639 221.194C212.312 219.781 213.93 218.349 215.645 216.984C216.751 216.105 217.682 214.915 218.819 214.103C219.2 213.831 219.614 213.495 219.895 213.12C220.102 212.844 220.252 212.79 220.453 212.589" stroke="black" stroke-width="2" stroke-linecap="round"/>
<path d="M137.984 272.826C138.089 272.802 138.12 272.754 138.197 272.673C138.658 272.187 139.236 271.834 139.79 271.465C142.822 269.443 145.741 267.284 148.887 265.436C151.305 264.015 153.822 262.728 156.178 261.206C158.346 259.805 160.494 258.393 162.698 257.049C163.953 256.284 165.148 255.383 166.456 254.712C168.183 253.827 169.929 252.992 171.702 252.202C175.711 250.415 179.753 248.632 183.7 246.711C187.644 244.791 191.775 243.269 195.712 241.339C197.596 240.416 199.513 239.644 201.436 238.809C203.326 237.988 205.073 236.759 206.841 235.702C209.926 233.856 212.91 231.889 215.765 229.706C217.231 228.585 218.874 227.607 220.094 226.213" stroke="black" stroke-width="2" stroke-linecap="round"/>
<path d="M140.568 329.064C141.086 329.064 141.569 329.033 142.074 328.88C145.053 327.976 147.734 325.768 150.253 324.021C153.047 322.083 155.576 319.772 158.433 317.924C161.104 316.196 163.939 314.62 166.771 313.173C171.467 310.774 176.187 308.35 180.797 305.797C181.642 305.328 182.694 304.637 183.624 304.383C184.198 304.227 185.159 303.893 185.581 303.472" stroke="black" stroke-width="2" stroke-linecap="round"/>
<path d="M142.073 335.688C142.927 335.641 143.722 335.425 144.524 335.128C146.25 334.489 148 333.906 149.717 333.246C153.888 331.644 157.646 329.359 161.159 326.622C163.653 324.679 166.221 322.84 168.719 320.902C170.346 319.639 172.055 318.544 173.696 317.314C175.92 315.646 178.258 314.089 180.696 312.789C181.514 312.353 182.325 311.897 183.18 311.526C183.693 311.304 184.609 311.067 184.978 310.698" stroke="black" stroke-width="2" stroke-linecap="round"/>
<path d="M145.536 344.421C145.875 344.421 146.177 344.353 146.506 344.253C149.079 343.47 151.597 342.411 154.075 341.376C160.467 338.706 166.167 335.125 171.898 331.273C174.98 329.201 177.722 326.698 180.763 324.582C182.054 323.684 183.318 322.846 184.526 321.839" stroke="black" stroke-width="2" stroke-linecap="round"/>
<path d="M84.0415 92.0574L83.7552 342.561" stroke="black" stroke-width="2" stroke-linecap="round"/>
<path d="M217.822 11.7922V152.914" stroke="black" stroke-width="2" stroke-linecap="round"/>
<path d="M82.5063 341.213L127.69 315.543" stroke="black" stroke-width="2" stroke-linecap="round"/>
<path d="M82.5063 93.7964L218.546 15.4832" stroke="black" stroke-width="2" stroke-linecap="round"/>
<path d="M61.7933 90.7349L202.446 10.3176" stroke="black" stroke-width="2" stroke-linecap="round"/>
<path d="M219.79 15.4836C212.452 13.83 204.548 12.699 197.404 10.3176" stroke="black" stroke-width="2" stroke-linecap="round"/>
<path d="M85.8182 93.3182C83.8049 93.3182 81.8287 93.2606 79.8272 92.8781C75.7141 92.0919 71.7449 90.6118 67.6782 89.568C65.7065 89.062 63.7424 88.8078 61.7933 88.1522" stroke="black" stroke-width="2" stroke-linecap="round"/>
<path d="M83.7518 339.219C83.1052 340.65 78.8621 338.535 78.1724 338.301C73.6611 336.768 69.2858 334.534 64.685 333.786C64.5085 333.757 60.6837 333.757 60.6041 333.097C60.5728 332.836 61.2478 331.83 61.3419 331.643" stroke="black" stroke-width="2" stroke-linecap="round"/>
<path d="M66.0065 91.0157V338.558" stroke="black" stroke-width="2" stroke-linecap="round"/>
<path d="M113.379 151.669C113.539 152.318 113.949 152.453 114.608 152.072C114.833 151.942 115.01 151.72 115.139 151.404C115.267 151.107 115.332 150.782 115.332 150.43C115.332 150.188 115.308 149.989 115.259 149.831L109.955 129.089C110.18 128.7 110.445 128.045 110.751 127.127C111.056 126.189 111.289 125.405 111.45 124.774C112.109 122.37 112.438 120.278 112.438 118.496C112.438 117.401 112.326 116.398 112.101 115.489C111.876 114.561 111.554 113.772 111.136 113.122C110.686 112.473 110.1 112.097 109.376 111.995C108.653 111.893 107.849 112.097 106.965 112.607C106.37 112.951 106.073 113.289 106.073 113.624L106.073 120.974C106.073 125.317 106.017 131.02 105.904 138.082C105.776 146.175 105.711 151.891 105.711 155.232L105.711 156.095C105.711 156.374 105.792 156.55 105.952 156.624C106.113 156.717 106.314 156.694 106.555 156.555C107.15 156.211 107.447 155.659 107.447 154.898L107.447 154.063L107.351 132.152C107.496 132.031 107.713 131.785 108.002 131.414L108.508 130.816C108.894 132.263 109.32 134.235 109.786 136.732C110.333 139.609 110.654 141.27 110.751 141.715C111.072 143.312 111.747 145.91 112.776 149.511C113.097 150.625 113.298 151.344 113.379 151.669ZM107.327 114.208C107.375 114.18 107.415 114.148 107.447 114.111L107.568 114.041C108.13 113.716 108.637 113.721 109.087 114.055C109.537 114.371 109.891 114.918 110.148 115.698C110.582 117.155 110.799 118.635 110.799 120.138C110.799 120.992 110.718 121.994 110.558 123.145C110.413 124.287 110.22 125.187 109.979 125.846C109.722 126.514 109.28 127.391 108.653 128.477C108.042 129.535 107.6 130.143 107.327 130.3L107.327 114.208Z" fill="black"/>
<path d="M122.565 145.028C122.565 145.288 122.557 145.534 122.541 145.766C122.525 145.998 122.517 146.244 122.517 146.504C122.565 147.274 122.895 147.483 123.505 147.131L127.58 144.778C129.011 143.952 129.726 143.196 129.726 142.509C129.726 142.008 129.244 142.036 128.279 142.592L127.339 143.191L126.447 143.762C125.659 144.216 125.121 144.388 124.832 144.277C124.542 144.147 124.373 143.66 124.325 142.815C124.229 141.33 124.181 139.845 124.181 138.361L124.229 134.268L124.277 130.203C124.277 128.069 124.245 126.584 124.181 125.748L124.181 125.581L124.422 125.164L124.639 125.038L126.254 124.384C126.463 124.561 126.841 124.491 127.387 124.175C127.693 123.999 127.934 123.721 128.111 123.34C128.287 122.941 128.376 122.537 128.376 122.129C128.36 121.452 127.717 121.479 126.447 122.213C126.367 122.259 126.085 122.44 125.603 122.755L124.783 123.284C124.317 123.554 124.084 123.159 124.084 122.101C124.084 120.913 124.116 119.419 124.181 117.619C124.245 115.818 124.277 114.324 124.277 113.136C124.277 112.208 124.261 111.401 124.229 110.714L124.47 110.241C125.338 109.777 126.672 109.368 128.472 109.016C129.083 108.255 129.389 107.698 129.389 107.345C129.389 106.993 129.083 106.881 128.472 107.011C127.862 107.141 127.146 107.387 126.326 107.749C125.571 108.092 125.089 108.297 124.88 108.362C124.719 108.213 124.454 108.246 124.084 108.459C123.57 108.756 123.2 109.099 122.975 109.489C122.766 109.87 122.662 110.338 122.662 110.895C122.662 111.823 122.694 112.937 122.758 114.236C122.822 115.554 122.854 116.677 122.854 117.605C122.854 119.776 122.798 122.677 122.686 126.305C122.573 129.934 122.517 132.825 122.517 134.978C122.517 135.627 122.557 136.857 122.637 138.667C122.718 140.476 122.758 141.706 122.758 142.356C122.758 143.154 122.637 144.003 122.396 144.903L122.565 145.028Z" fill="black"/>
<path d="M138.985 138.583C139.612 138.221 139.925 137.697 139.925 137.01C139.925 135.952 139.861 134.143 139.732 131.581C139.588 129.178 139.515 127.363 139.515 126.138L139.515 119.345C140.287 118.621 140.97 117.92 141.565 117.243C142.192 116.528 142.698 115.893 143.084 115.336C143.486 114.77 143.815 114.171 144.072 113.54C144.378 112.807 144.603 112.185 144.747 111.675C144.892 111.164 144.997 110.538 145.061 109.795C145.125 109.053 145.165 108.343 145.181 107.665C145.198 106.969 145.206 106.176 145.206 105.285C145.206 101.647 144.796 99.6379 143.976 99.2574C143.51 99.0811 142.947 98.9883 142.288 98.979C141.629 98.9512 141.115 99.044 140.745 99.2574L138.575 100.51C138.398 100.612 138.157 101.225 137.852 102.348C138.045 102.812 138.141 106.44 138.141 113.234C138.141 116.092 137.972 117.944 137.635 118.788C137.635 119.122 137.739 119.498 137.948 119.916C137.948 121.345 137.916 123.127 137.852 125.261C137.771 127.943 137.731 129.739 137.731 130.648C137.731 133.785 137.916 136.416 138.286 138.541L138.985 138.583ZM139.708 111.354C139.708 110.649 139.668 109.299 139.588 107.304C139.507 105.345 139.467 104.004 139.467 103.28C139.467 102.724 139.539 102.292 139.684 101.986C139.845 101.652 140.134 101.364 140.552 101.123C141.099 100.807 141.565 100.649 141.951 100.649C142.336 100.649 142.634 100.747 142.843 100.942C143.052 101.137 143.22 101.457 143.349 101.902C143.462 102.32 143.534 102.724 143.566 103.113C143.598 103.503 143.614 104.041 143.614 104.728L143.614 106.259C143.566 107.884 143.47 109.211 143.325 110.241C143.052 111.995 142.69 113.354 142.24 114.32C141.951 114.932 141.597 115.498 141.179 116.018C140.777 116.528 140.327 116.927 139.829 117.215L139.515 116.839C139.515 116.115 139.547 115.206 139.612 114.111C139.676 113.016 139.708 112.097 139.708 111.354Z" fill="black"/>
<path d="M158.853 127.057C159.592 126.63 160.243 126.022 160.806 125.233C161.368 124.482 161.834 123.656 162.204 122.755C162.59 121.827 162.927 120.76 163.217 119.554C163.474 118.44 163.675 117.377 163.819 116.366C163.98 115.326 164.109 114.166 164.205 112.886C164.286 111.8 164.334 110.844 164.35 110.018C164.366 109.174 164.374 108.352 164.374 107.554L164.326 104.185L164.278 100.817L164.374 100.482C164.374 98.0695 164.197 95.8608 163.844 93.8562C163.506 91.8423 162.992 90.3482 162.3 89.3737C161.69 88.39 161.063 88.0188 160.42 88.2601C160.355 88.2787 159.994 88.4132 159.335 88.6638C158.676 88.9144 158.001 89.1 157.309 89.2206C157.02 89.2949 156.795 89.3784 156.634 89.4712C154.255 90.8447 153.066 96.8306 153.066 107.429L153.066 109.406C153.066 123.4 154.995 129.284 158.853 127.057ZM154.657 110.686L154.609 108.459C154.609 108.013 154.649 107.099 154.73 105.717C154.81 104.334 154.85 103.42 154.85 102.974C154.963 102.315 155.035 101.559 155.067 100.705C155.115 99.8235 155.139 99.0393 155.139 98.3526C155.155 97.6565 155.164 97.2157 155.164 97.0301C155.18 96.2041 155.252 95.3457 155.381 94.4548C155.654 92.6265 156.546 91.2762 158.057 90.4039C158.812 89.9677 159.504 89.8563 160.13 90.0698C160.773 90.2554 161.28 90.7148 161.649 91.4479C162.019 92.1625 162.204 93.0674 162.204 94.1624L162.108 94.4965L162.3 94.8306C162.3 96.3341 162.397 98.5243 162.59 101.401C162.767 104.417 162.855 106.612 162.855 107.986C162.855 109.675 162.791 111.531 162.662 113.554C162.517 115.883 162.14 118.264 161.529 120.695C161.24 121.865 160.846 122.871 160.347 123.716C159.849 124.56 159.287 125.164 158.66 125.526C158.001 125.906 157.422 125.786 156.924 125.164C156.457 124.579 156.088 123.781 155.815 122.769C155.541 121.739 155.308 120.435 155.115 118.858C154.842 116.565 154.705 114.584 154.705 112.914L154.657 110.686Z" fill="black"/>
<path d="M181.228 114.027C181.597 113.814 181.782 113.438 181.782 112.9C181.782 112.566 181.654 112.185 181.397 111.758C181.22 111.47 181.107 111.285 181.059 111.201C181.011 111.099 180.987 111.039 180.987 111.02C180.89 110.779 180.215 108.051 178.961 102.835C177.708 97.6194 177.081 94.9466 177.081 94.8167C177.081 94.761 177.298 94.1532 177.732 92.9931C178.23 91.6103 178.672 90.2136 179.058 88.803C179.46 87.3831 179.661 86.3205 179.661 85.6152L179.661 81.4668C179.661 79.7035 179.146 78.6363 178.117 78.2651C177.105 77.8846 175.771 78.1723 174.115 79.1282C173.81 79.3045 173.568 79.5736 173.392 79.9355C173.231 80.2696 173.126 80.5713 173.078 80.8404C173.046 81.1002 173.03 81.4622 173.03 81.9262C173.03 89.4062 173.295 101.225 173.826 117.382L174.187 117.619L174.911 117.201L175.272 116.046C175.112 115.507 174.975 113.591 174.862 110.296C174.573 104.19 174.428 100.107 174.428 98.0463C174.428 97.508 174.79 97.0301 175.513 96.6125L175.706 96.5011C176.06 96.2969 176.438 97.0347 176.84 98.7145C177.274 100.506 177.651 102.431 177.973 104.492C178.359 106.942 178.776 109.104 179.227 110.979C179.693 112.825 180.119 113.888 180.504 114.166L181.228 114.027ZM174.621 95.5963C174.621 93.7216 174.589 91.4386 174.525 88.7473C174.461 86.056 174.428 83.773 174.428 81.8984C174.428 81.5643 174.477 81.2116 174.573 80.8404C174.686 80.4413 174.83 80.1908 175.007 80.0887C175.73 79.6711 176.325 79.504 176.791 79.5875C177.274 79.6432 177.619 79.9355 177.828 80.4645C178.021 80.9842 178.15 81.5132 178.214 82.0515C178.294 82.5805 178.334 83.2811 178.334 84.1535C178.334 84.8217 178.262 85.6894 178.117 86.7567C177.989 87.8146 177.796 88.9468 177.539 90.1533C177.282 91.4154 176.896 92.5662 176.381 93.6056C175.883 94.6172 175.329 95.2993 174.718 95.652L174.621 95.5963Z" fill="black"/>
<path d="M193.476 105.647C193.733 105.498 194.007 105.229 194.296 104.84C194.585 104.431 194.73 104.097 194.73 103.837C194.73 100.107 194.537 94.6404 194.151 87.4388C193.766 80.2186 193.573 74.7524 193.573 71.0403C193.573 70.502 193.589 70.1308 193.621 69.9266C193.653 69.7967 193.717 69.7039 193.814 69.6482C194.248 69.3976 194.955 69.0264 195.936 68.5345C196.916 68.0427 197.615 67.6761 198.033 67.4348C198.339 67.2585 198.596 67.045 198.805 66.7945C199.014 66.5439 199.118 66.298 199.118 66.0567C199.118 65.5741 198.821 65.5045 198.226 65.8479L197.189 66.4743L196.129 67.1146C195.261 67.6158 193.83 68.3489 191.837 69.3141C189.731 70.3628 188.3 71.1052 187.545 71.5414C187.063 71.8198 186.749 72.2142 186.605 72.7247C186.605 73.1701 186.942 73.2722 187.617 73.0309C188.244 72.7989 189.61 72.075 191.716 70.8593C191.732 73.3928 191.909 77.8382 192.247 84.1953C192.568 90.376 192.729 95.007 192.729 98.0881C192.857 98.4222 192.922 98.8398 192.922 99.3409L192.874 100.371L192.825 101.401L192.874 103.434L192.922 105.494L193.476 105.647Z" fill="black"/>
</svg>
